<?xml version="1.0" encoding="utf-8"?>
<!-- Generator: Adobe Illustrator 21.1.0, SVG Export Plug-In . SVG Version: 6.00 Build 0)  -->
<svg version="1.1" id="图层_3" xmlns="http://www.w3.org/2000/svg" xmlns:xlink="http://www.w3.org/1999/xlink" x="0px" y="0px"
	 viewBox="0 0 1024 512" enable-background="new 0 0 1024 512" xml:space="preserve">
<path fill="#00CBA9" d="M514,454.7c-100.9,0-201.7,0-302.6,0c-95.2-0.1-162-66.7-161.5-162.2c0.2-36.1-3.5-72.4,2.7-108.4
	C64.7,113.7,127.6,58,199,57.8c211-0.8,422-0.8,633.1,0c72.3,0.3,141.5,71.6,142.6,144c0.5,35.2,0.3,70.3,0.1,105.5
	c-0.5,76.6-70.7,147.1-147.3,147.4C723,455,618.5,454.7,514,454.7z"/>
<path fill="#FEFEFE" d="M415,88.9c-46.2,38.7-63.8,85.6-61.2,141.2c0.9,20.6,0.1,41.3,0.2,62c0,53.4,11.2,78.5,57.7,129.9
	c-4.1,3.4-8.8,1.6-13.1,1.6c-63.1,0.1-126.1,0.2-189.2,0.1C134.8,423.6,80.8,370.3,81,296c0.1-36.1-4-72.5,2.7-108.3
	c10.1-53.5,55.1-96.3,109.3-98.3C265.6,86.9,338.4,88.9,415,88.9z"/>
<path fill="#FEFEFE" d="M624,312c-6.6-21.1,6.4-37.3,23.6-53.4c29-27.2,56.2-56.2,84.3-84.3c22.1-22.1,51.4-23.5,71.6-3.6
	c19.9,19.6,19.2,50.1-2.1,71.9c-33.6,34.3-67.5,68.3-101.2,102.6c-4.6,4.7-9.1,7.5-16,7.3c-16.5-0.5-33.1-0.7-49.6,0
	c-9.5,0.4-11.3-3.6-10.7-11.7C624.5,332.6,624,324.3,624,312z"/>
<path fill="#F4FBFA" d="M548.9,306.5c0.5,0,1,0,1.6,0c41.2-1.6,36.3,3.8,35.8,43.3c-0.1,10.2-8.1,13.8-17.2,14
	c-13.9,0.3-27.9,0.3-41.8,0c-11.9-0.3-17.7-6.7-17.8-18.7C509.1,307,508,305.3,548.9,306.5z"/>
<path fill="#F6FCFB" d="M544.4,262.5c9.8,0,19.7-0.6,29.4,0.3c5.2,0.5,14.9-4.6,14.9,4.8c0,7.4-9.2,3.7-14.1,3.8
	c-19.6,0.5-39.3,0.7-58.9,0c-11.6-0.4-15.5,4.9-15.9,15.6c-0.8,22.7-2.1,45.4-3.4,68c-0.2,3.5,2.1,9.6-4.8,9.1
	c-6.2-0.5-4.2-6.2-4.1-9.8c1-24.7,2.2-49.5,3.7-74.2c0.7-11.6,7-17.8,19-17.7C521.6,262.7,533,262.5,544.4,262.5z"/>
<path fill="#E3F7F2" d="M547.4,294.4c-11.4,0-22.8,0.1-34.1-0.1c-3.2,0-6.5-0.8-6-5.1c0.4-2.9,2.7-4.4,5.5-4.4
	c23.3-0.1,46.6-0.1,69.8,0c3.4,0,6.2,1.5,5.9,5.4c-0.3,4.3-4,4.1-7,4.2C570.2,294.5,558.8,294.4,547.4,294.4z"/>
<path fill="#00CBA9" d="M149.1,310.7c-6.1-20.2,5.6-36.2,22.8-52.1c29.2-27,56.5-56,84.7-84.1c22.8-22.7,52.6-23.9,72.8-3.3
	c19.5,20.1,18,49.6-4,71.7c-32.8,33-65.9,65.7-98.5,98.8c-6.2,6.3-12.4,9.8-21.6,9.3c-15-0.7-30-0.6-44.9,0
	c-8.9,0.4-12-2.7-11.3-11.5C149.6,331.5,149.1,323.2,149.1,310.7z"/>
<path fill="#00CBA9" d="M655,283.1c30-29.1,60.1-58.1,89.9-87.4c4.9-4.8,7.8-6,13.7-0.6c29.3,26.4,29.5,26.3,1.6,54.1
	c-22.7,22.6-45.6,45.1-69.4,68.7c-2.4-8.6-1.6-18-8.4-24.8c-7.2-7-15.7-7-24.6-6.3C656.8,285.6,655.9,284.4,655,283.1z"/>
<path fill="#02CCAA" d="M548.4,354.5c-2.1,0-4.1,0-6.2,0c-23.1,0-29.7-8.8-23.5-31.3c1.7-6.1,5.7-8.1,11.4-8.1c7.7,0,15.5,0,23.2,0
	c24.4,0,29.1,6.1,24.4,30.8c-1.1,5.8-4.2,8.1-9.2,8.3c-6.7,0.3-13.4,0.1-20.1,0.1C548.4,354.3,548.4,354.4,548.4,354.5z"/>
<path fill="#FAFDFD" d="M173.8,306.8c-2.8-13.2,2-21.2,16-21.8c13.1-0.6,24.6,11.2,24.5,24.6c-0.2,17-11.4,16.5-24.3,17.6
	C172.1,328.7,172,319.1,173.8,306.8z"/>
<path fill="#FCFEFD" d="M294.1,181.3c12,0.8,20.2,6.5,22.9,18.7c1.5,6.7,1.8,14.9-3.9,18.6c-6.9,4.4-9.3-5.1-13.6-8.4
	c-4.9-3.6-9.1-8.3-13.1-12.9c-2.8-3.2-9.4-5.6-6.3-10.8C282.8,182.1,288.7,181.2,294.1,181.3z"/>
</svg>
