<?xml version="1.0" standalone="no"?><!DOCTYPE svg PUBLIC "-//W3C//DTD SVG 1.1//EN" "http://www.w3.org/Graphics/SVG/1.1/DTD/svg11.dtd"><svg t="1520666335257" class="icon" style="" viewBox="0 0 1024 1024" version="1.1" xmlns="http://www.w3.org/2000/svg" p-id="706" xmlns:xlink="http://www.w3.org/1999/xlink" width="64" height="64"><defs><style type="text/css"></style></defs><path d="M512.628436 716.24170041h-309.5047306c-86.72416817 0-156.16634629-69.44217814-156.48056432-156.16634632v-92.69431018c0.31421799-82.63933418 70.69905013-153.33838431 153.0241663-153.33838429h621.83742322c93.32274619 0 161.50805231 68.18530612 161.19383433 161.82227031 0 37.07772405 3.770616 74.46966615-2.513744 111.23317222-12.56872002 73.84123014-76.98341015 128.82938026-152.0815123 129.14359826-104.94881219 0.31421799-210.21184242 0-315.47487263 0z" fill="#00CBA9" p-id="707"></path><path d="M613.4924142 684.50568234c34.24976206-29.22227406 56.24502211-62.21516412 59.70142013-103.37772221 4.08483399-47.76113611 6.28436002-96.15070819-1.885308-143.91184428-6.28436002-36.13507007-26.70853004-65.35734413-54.98815012-88.92369418 3.14217999-5.02748801 7.85545002-2.82796201 11.62606603-2.82796201 64.41469013-0.31421799 128.82938026-0.31421799 192.92985236 0 77.29762816 0.31421799 131.02890626 54.0454961 130.71468826 131.65734227-0.31421799 36.13507007 3.770616 72.27014015-2.82796201 108.09099224-10.36919402 54.3597141-59.38720211 98.03601619-114.68957019 98.97867017-71.95592213 1.57108999-144.22606228 0.31421799-220.58103646 0.314218zM248.05687948 571.38720211c-5.97014202-20.42417004 5.65592402-36.76350606 22.93791405-52.78862408 29.53649205-27.33696604 56.87345811-56.87345811 85.46729617-85.15307818 23.25213204-23.25213204 52.7886241-25.13744005 73.52701213-4.39905203 20.42417004 20.42417004 19.16729804 50.90331611-3.45639799 73.84123016-33.62132607 34.24976206-67.55687014 68.49952413-101.17819621 102.7492862-4.71327001 4.71327001-9.42654002 7.54123201-16.33933604 7.22701401-16.65355405-0.628436-33.30710806-0.628436-50.2748801 0-8.16966803 0.31421799-11.31184801-1.885308-10.68341201-10.36919401 0.628436-9.11232202 0-17.91042605 0-31.10758207z" fill="#FEFEFE" p-id="708"></path><path d="M501.63080598 566.0454961h1.57109001c42.1052121-1.57108999 36.76350606 3.770616 36.76350608 43.6763021 0 9.42654002-6.91279601 14.13981003-15.71090004 14.45402802-15.08246403 0.628436-30.47914606 0.628436-45.56161009 0-10.36919402-0.31421799-16.65355405-6.28436002-16.65355403-16.96777204-0.628436-39.90568608-2.51374401-42.41943008 39.59146807-41.16255808z" fill="#F4FBFA" p-id="709"></path><path d="M499.11706197 530.85308003c-8.79810401 0-17.91042605 0.94265401-26.70853006-0.31421798-15.08246403-1.57108999-20.42417004 4.39905201-20.42417002 19.48151602 0 21.99526005-1.885308 43.67630209-3.14218002 65.67156212-0.31421799 3.770616 1.57108999 9.42654002-5.341706 8.79810403-5.34170603-0.628436-3.770616-5.65592402-3.77061602-8.79810403 1.25687199-25.45165805 2.19952601-51.2175341 3.77061602-76.66919215 0.628436-10.99763002 6.59857803-17.28199003 18.22464402-17.28199002h72.27014016c3.45639799 0 8.16966803-1.25687199 8.79810402 4.08483401 0.628436 7.22701402-5.34170603 5.02748801-8.79810402 5.027488-11.62606602 0.31421799-23.25213204 0-34.87819808 0z" fill="#F6FCFB" p-id="710"></path><path d="M500.05971598 553.79099409h-34.24976206c-2.51374401 0-5.34170603-0.31421799-5.97014202-3.77061602-0.31421799-4.08483399 2.19952601-5.97014202 5.341706-5.970142h71.64170415c2.82796201 0 5.02748801 1.885308 5.34170601 4.71326999 0.31421799 4.08483399-3.14217999 4.71327001-6.28436002 5.02748803-11.94028402 0.31421799-23.88056804 0-35.82085206 0z" fill="#E3F7F2" p-id="711"></path><path d="M684.81990034 571.07298412c-6.28436002-20.73838803 5.65592402-37.70616007 23.56635005-54.04549611 29.53649205-27.33696604 57.18767612-56.55924012 85.78151416-85.15307816 22.30947806-22.30947806 52.1601881-23.56635005 72.58435816-3.45639802 20.10995203 20.10995203 19.16729804 50.58909811-2.82796203 72.58435815-33.62132607 33.62132607-67.24265214 67.24265214-100.86397817 101.17819621-5.97014202 5.97014202-11.94028402 9.42654002-20.42417006 8.79810401-14.76824603-0.628436-29.22227406-0.94265401-43.99052008 0-10.99763002 0.628436-15.08246403-3.14217999-13.82559203-14.13981003 0.628436-6.59857803 0-14.13981003 0-25.76587605zM314.67109562 578.92843413c-1.885308-26.70853004-7.85545002-32.36445406-37.70616009-33.93554407 32.99289006-32.05023607 63.78625413-61.58672813 94.26540018-91.75165617 4.71327001-4.71327001 8.48388603-5.65592402 12.56872002 0 0.31421799 0.31421799 0.628436 0.628436 0.94265402 1.25687199 28.59383805 26.08009405 28.59383805 26.39431205 1.25687199 53.41706013-22.93791404 23.25213204-46.19004608 46.19004608-71.32748612 71.01326812z" fill="#00CBA9" p-id="712"></path><path d="M501.31658798 574.84360012h6.28436001c21.68104205 0 31.10758207 13.82559203 23.25213204 33.93554407-1.885308 4.71327001-5.65592402 5.65592402-10.05497602 5.97014202-7.85545002 0.31421799-15.71090003 0-23.56635004 0-27.33696604 0-28.59383805-1.57108999-26.08009406-27.96540206 0.628436-8.79810401 4.71327001-11.94028402 12.88293802-11.94028403h17.28199005z" fill="#02CCAA" p-id="713"></path><path d="M724.41136841 586.46966615c-16.33933604 5.02748801-15.08246403-6.91279601-15.39668203-19.48151605-0.31421799-13.51137403 2.51374401-22.62369604 17.91042605-22.93791403 12.56872002 0 23.56635005 11.31184801 23.88056804 24.19478604 0 14.45402802-5.02748801 18.22464404-26.39431206 18.22464404z" fill="#FAFDFD" p-id="714"></path><path d="M855.44027467 463.92464591c-0.31421799 5.34170603-0.628436 11.62606602-5.027488 14.13981002-5.02748801 2.82796201-7.54123201-3.770616-10.683412-6.91279602-5.97014202-5.65592402-11.94028402-11.62606602-17.59620806-17.59620802-2.19952601-2.51374401-7.22701402-4.71327001-4.71327-8.48388602 1.57108999-2.51374401 5.65592402-4.39905201 9.112322-5.027488 15.08246403-3.45639799 29.22227406 8.16966803 28.90805606 23.88056804z" fill="#FCFEFD" p-id="715"></path></svg>