<?xml version="1.0" standalone="no"?><!DOCTYPE svg PUBLIC "-//W3C//DTD SVG 1.1//EN" "http://www.w3.org/Graphics/SVG/1.1/DTD/svg11.dtd"><svg t="1522290219405" class="icon" style="" viewBox="0 0 1024 1024" version="1.1" xmlns="http://www.w3.org/2000/svg" p-id="766" xmlns:xlink="http://www.w3.org/1999/xlink" width="128" height="128"><defs><style type="text/css"></style></defs><path d="M345.9 731.2c65.8-60.8 131.6-93.4 216-57.2 65.1 27.9 91.2 90 70.1 179.7-19.3 82.2-80.2 138-144.6 131.4-26.8-2.7-56.3-10.7-56.5-41.9-0.2-28.6 29.9-35.2 53-37.6 62.3-6.6 99.6-35.8 103.8-101.3 2.4-37.5-14.3-60.6-47-77.8-34.6-18.1-62-11.6-91.4 11.3-51.7 40.4-84 86-68.7 156.8 6.3 29.2 6.1 70.2-35.6 72.4-38.8 2-35.7-36-37.4-64.2-5.9-96.6-80.8-137.7-148.6-184.5-30.8-21.3-69.2-31.3-93.6-61.8-37.4-46.7-25.5-81.8 33.7-87.3 157.1-14.7 214.7 29.9 246.8 162zM593.3 429c-0.5 35.2-18.6 58.2-53.7 64.2-40.2 6.9-48-26.8-54.7-52.5-24-91.9-46.3-184.5-54.3-279.5C425 94.5 458 46.6 507.1 44.5c49.4-2.1 83.5 39.5 87 106.3 0.5 9.5 0.9 19 1 28.5 0.2 30.9-1 198-1.8 249.7z" fill="#01CBAA" p-id="767"></path><path d="M639.5 431.4c8.4-65.6 16.8-138.8 27.5-211.7 8.2-55.8 40.5-86 98.8-76.5 57 9.4 64.9 54.8 54.8 98.3-19.5 83.7-21.9 175.1-91.4 240.1-17.7 16.6-27.7 52.3-59.7 38.3-33.1-14.6-32.2-49.3-30-88.5zM396.6 486.7c-21.6 45.5-49 48.8-78.2 8.1-41.9-58.5-92.3-111.7-114.2-183-13.9-45.2-13.3-89.4 36-107.2 46.9-16.9 82.6 7.8 98.2 55.8 19.7 60.6 38.3 121.5 57.4 182.3 6.2 18.3 10.3 29.2 0.8 44zM782.9 616.8c-24.1-1.3-38.7-14.1-27.8-41.2 26.6-66.5 60.3-129.5 108.1-183.2 20.8-23.4 50-25.9 78.5-10.8 24.3 12.9 30.4 34.7 27.4 60.5-5.4 48-136.9 173.4-186.2 174.7z" fill="#02CCAA" p-id="768"></path><path d="M857.8 826.5c0 37.6 0.5 54.1-0.1 70.6-0.8 20.9 62.6 38.5 14.1 52.6-28 8.1-91.6 12.5-110.2-43.3-6.5-19.5-5.5-42-5.1-63 0.8-39.1-8-89.6 53.3-87.4 60.3 2.2 45.9 53.9 48 70.5z" fill="#14CFB0" p-id="769"></path><path d="M721 850c-4.1 39.9 18.4 98.9-30.7 98-47.7-0.9-26.8-61.7-25.1-95 1.7-32.6-24.8-93.8 27.6-93.1 52.3 0.7 31.2 60.1 28.2 90.1z" fill="#08CDAC" p-id="770"></path><path d="M691.4 656.2c29.3-4.1 34.6 18.4 39.7 33.6 5.1 15.5-12.6 21.5-25.2 24.5-19.7 4.6-31.6-8.6-36-24.6-5.1-18.8 6.8-29.9 21.5-33.5z" fill="#11CFAF" p-id="771"></path><path d="M803.8 791.3c21.7 44.1 17.5 73.8 3.2 104.3-16.9-28.2-14.6-57.9-3.2-104.3z" fill="#FDFEFE" p-id="772"></path></svg>