<?xml version="1.0" encoding="utf-8"?>
<!-- Generator: Adobe Illustrator 21.1.0, SVG Export Plug-In . SVG Version: 6.00 Build 0)  -->
<svg version="1.1" id="图层_1" xmlns="http://www.w3.org/2000/svg" xmlns:xlink="http://www.w3.org/1999/xlink" x="0px" y="0px"
	 viewBox="0 0 512 512" enable-background="new 0 0 512 512" xml:space="preserve">
<path fill="#00CCAA" d="M304.4,171.3c-20.1,0-36.3,16.2-36.3,36.3s16.2,36.3,36.3,36.3s36.3-16.2,36.3-36.3S324.5,171.3,304.4,171.3
	 M304.4,268.1c-20.1,0-36.3,16.2-36.3,36.3s16.2,36.3,36.3,36.3s36.3-16.2,36.3-36.3S324.5,268.1,304.4,268.1 M207.6,377.1
	c-13.3,0-24.2,10.9-24.2,24.2s10.9,24.2,24.2,24.2c13.3,0,24.2-10.9,24.2-24.2S220.9,377.1,207.6,377.1 M207.6,171.3
	c-20.1,0-36.3,16.2-36.3,36.3s16.2,36.3,36.3,36.3s36.3-16.2,36.3-36.3S227.7,171.3,207.6,171.3 M304.4,461.8
	c-6.8,0-12.1,5.3-12.1,12.1s5.3,12.1,12.1,12.1c6.8,0,12.1-5.3,12.1-12.1S311.2,461.8,304.4,461.8 M304.4,377.1
	c-13.3,0-24.2,10.9-24.2,24.2s10.9,24.2,24.2,24.2s24.2-10.9,24.2-24.2S317.7,377.1,304.4,377.1 M473.9,292.3
	c-6.8,0-12.1,5.3-12.1,12.1c0,6.8,5.3,12.1,12.1,12.1s12.1-5.3,12.1-12.1C486,297.6,480.7,292.3,473.9,292.3 M401.3,86.5
	c-13.3,0-24.2,10.9-24.2,24.2s10.9,24.2,24.2,24.2s24.2-10.9,24.2-24.2S414.6,86.5,401.3,86.5 M401.3,183.4
	c-13.3,0-24.2,10.9-24.2,24.2c0,13.3,10.9,24.2,24.2,24.2s24.2-10.9,24.2-24.2C425.5,194.3,414.6,183.4,401.3,183.4 M401.3,377.1
	c-13.3,0-24.2,10.9-24.2,24.2s10.9,24.2,24.2,24.2s24.2-10.9,24.2-24.2S414.6,377.1,401.3,377.1 M401.3,280.2
	c-13.3,0-24.2,10.9-24.2,24.2s10.9,24.2,24.2,24.2s24.2-10.9,24.2-24.2S414.6,280.2,401.3,280.2 M207.6,268.1
	c-20.1,0-36.3,16.2-36.3,36.3s16.2,36.3,36.3,36.3s36.3-16.2,36.3-36.3S227.7,268.1,207.6,268.1 M207.6,134.9
	c13.3,0,24.2-10.9,24.2-24.2s-10.9-24.2-24.2-24.2c-13.3,0-24.2,10.9-24.2,24.2S194.3,134.9,207.6,134.9 M207.6,50.2
	c6.8,0,12.1-5.3,12.1-12.1S214.4,26,207.6,26c-6.8,0-12.1,5.3-12.1,12.1S200.8,50.2,207.6,50.2 M207.6,461.8
	c-6.8,0-12.1,5.3-12.1,12.1s5.3,12.1,12.1,12.1c6.8,0,12.1-5.3,12.1-12.1S214.4,461.8,207.6,461.8 M38.1,292.3
	c-6.8,0-12.1,5.3-12.1,12.1c0,6.8,5.3,12.1,12.1,12.1s12.1-5.3,12.1-12.1C50.2,297.6,44.9,292.3,38.1,292.3 M304.4,50.2
	c6.8,0,12.1-5.3,12.1-12.1S311.2,26,304.4,26c-6.8,0-12.1,5.3-12.1,12.1S297.6,50.2,304.4,50.2 M304.4,134.9
	c13.3,0,24.2-10.9,24.2-24.2s-10.9-24.2-24.2-24.2s-24.2,10.9-24.2,24.2S291.1,134.9,304.4,134.9 M473.9,219.7
	c6.8,0,12.1-5.3,12.1-12.1c0-6.8-5.3-12.1-12.1-12.1s-12.1,5.3-12.1,12.1C461.8,214.4,467.1,219.7,473.9,219.7 M110.7,86.5
	c-13.3,0-24.2,10.9-24.2,24.2s10.9,24.2,24.2,24.2s24.2-10.9,24.2-24.2S124.1,86.5,110.7,86.5 M38.1,195.5
	c-6.8,0-12.1,5.3-12.1,12.1c0,6.8,5.3,12.1,12.1,12.1s12.1-5.3,12.1-12.1C50.2,200.8,44.9,195.5,38.1,195.5 M110.7,183.4
	c-13.3,0-24.2,10.9-24.2,24.2c0,13.3,10.9,24.2,24.2,24.2s24.2-10.9,24.2-24.2C134.9,194.3,124.1,183.4,110.7,183.4 M110.7,377.1
	c-13.3,0-24.2,10.9-24.2,24.2s10.9,24.2,24.2,24.2s24.2-10.9,24.2-24.2S124.1,377.1,110.7,377.1 M110.7,280.2
	c-13.3,0-24.2,10.9-24.2,24.2s10.9,24.2,24.2,24.2s24.2-10.9,24.2-24.2S124.1,280.2,110.7,280.2z"/>
</svg>
