<?xml version="1.0" encoding="utf-8"?>
<!-- Generator: Adobe Illustrator 21.1.0, SVG Export Plug-In . SVG Version: 6.00 Build 0)  -->
<svg version="1.1" id="图层_1" xmlns="http://www.w3.org/2000/svg" xmlns:xlink="http://www.w3.org/1999/xlink" x="0px" y="0px"
	 viewBox="0 0 512 512" enable-background="new 0 0 512 512" xml:space="preserve">
<path fill="#999999" d="M448.3,135.7h-74.3l-44.8-44.8l0,0l0,0l0,0c-7.1-7.1-15.3-11.8-25.9-11.8H210c-10.6,0-20.1,4.7-27.1,11.8
	l0,0l-43.6,44.8H62.6c-20.1,0-36.6,16.5-36.6,36.6v222.9c0,20.1,16.5,37.7,36.6,37.7h385.7c20.1,0,37.7-16.5,37.7-37.7V172.3
	C486,152.2,469.5,135.7,448.3,135.7z M256,377.5c-56.6,0-102.6-46-102.6-102.6c0-56.6,46-102.6,102.6-102.6s102.6,46,102.6,102.6
	S312.6,377.5,256,377.5z M442.4,194.7c-8.3,0-15.3-7.1-15.3-15.3s7.1-15.3,15.3-15.3c8.3,0,15.3,7.1,15.3,15.3
	C457.7,187.6,450.6,194.7,442.4,194.7z"/>
<path fill="#999999" d="M256,197c-42.5,0-76.7,34.2-76.7,77.8c0,42.5,34.2,77.8,76.7,77.8s76.7-34.2,76.7-77.8
	C332.7,232.4,298.5,197,256,197z"/>
</svg>
