<?xml version="1.0" encoding="utf-8"?>
<!-- Generator: Adobe Illustrator 21.1.0, SVG Export Plug-In . SVG Version: 6.00 Build 0)  -->
<svg version="1.1" id="图层_1" xmlns="http://www.w3.org/2000/svg" xmlns:xlink="http://www.w3.org/1999/xlink" x="0px" y="0px"
	 viewBox="0 0 512 512" enable-background="new 0 0 512 512" xml:space="preserve">
<path fill="#00CCAA" d="M256.3,57.1c64.5,0,129,0.1,193.4-0.1c5.3,0,6.3,1.5,6.3,6.4c-0.1,129.2-0.1,258.3,0,387.5
	c0,4.8-1,6.1-6,6.1c-129.4-0.2-258.7-0.2-388.1,0c-5,0-6-1.4-6-6.1c0.1-129.2,0.1-258.3,0-387.5c0-5,1-6.4,6.3-6.4
	C126.9,57.2,191.6,57.1,256.3,57.1z"/>
<path fill="#FEFEFE" d="M256.3,127.3c41.3,0,82.6,0.1,123.9-0.1c4.7,0,5.7,1.4,5.7,5.8c-0.1,82.8-0.1,165.6,0,248.4
	c0,4.2-0.9,5.5-5.4,5.5c-83-0.2-166-0.2-249,0c-4.5,0-5.4-1.3-5.4-5.5c0.1-82.8,0.1-165.6,0-248.4c0-4.4,0.9-5.8,5.7-5.8
	C173.3,127.3,214.8,127.3,256.3,127.3z"/>
</svg>
