<?xml version="1.0" encoding="utf-8"?>
<!-- Generator: Adobe Illustrator 21.1.0, SVG Export Plug-In . SVG Version: 6.00 Build 0)  -->
<svg version="1.1" id="图层_1" xmlns="http://www.w3.org/2000/svg" xmlns:xlink="http://www.w3.org/1999/xlink" x="0px" y="0px"
	 viewBox="0 0 512 512" enable-background="new 0 0 512 512" xml:space="preserve">
<path fill="#00CBA9" d="M26.1,204.7c45.4,0,90.9,0,136.3,0c11.9,0,23.9-0.1,35.8,0.1c3.1,0.1,4-0.7,5-3.8
	c6.4-20.3,13.2-40.4,19.8-60.6c11.1-34.1,22-68.3,33.1-102.4c0.1-0.3,0.3-0.5,1-1.4c2.3,6.5,4.6,12.6,6.6,18.7
	c11.4,35,22.7,70.1,34.1,105.1c4.1,12.7,8.5,25.4,12.4,38.1c1.2,4,3,5.4,7.2,5.4c55.1-0.2,110.1-0.1,165.2-0.1c1.8,0,3.5,0,6,0
	c-4,4.7-8.9,7.3-13.2,10.5c-22.6,16.8-45.3,33.3-68,49.9c-19.3,14.1-38.5,28.3-58,42c-3.1,2.2-2.9,4-2.1,6.5
	c7.4,22.6,14.8,45.1,22.2,67.7c9.7,29.8,19.4,59.5,29.2,89.3c0.8,2.3,1.7,4.6,1.4,7.7c-9-6.4-17.6-12.5-26.1-18.7
	c-16.8-12.2-33.5-24.4-50.2-36.6c-19.8-14.4-39.7-28.7-59.5-43.1c-7.3-5.3-7-5.4-14.6,0.2c-19.5,14.3-39.2,28.3-58.7,42.6
	c-18.9,13.8-37.7,27.8-56.5,41.7c-6.3,4.6-12.7,9.1-19.9,14.2c1.3-9.2,4.6-16.7,7.1-24.4c8.6-27,17.5-53.9,26.3-80.8
	c6.4-19.8,12.6-39.6,19.2-59.3c1-3,0.2-4.2-2-5.8c-27.8-20.1-55.5-40.3-83.3-60.4c-17.9-12.9-35.9-25.7-53.9-38.6
	c-0.8-0.6-1.5-1.1-2.3-1.7C25.7,206,25.9,205.4,26.1,204.7z"/>
</svg>
