<?xml version="1.0" encoding="utf-8"?>
<!-- Generator: Adobe Illustrator 21.1.0, SVG Export Plug-In . SVG Version: 6.00 Build 0)  -->
<svg version="1.1" id="图层_1" xmlns="http://www.w3.org/2000/svg" xmlns:xlink="http://www.w3.org/1999/xlink" x="0px" y="0px"
	 viewBox="0 0 512 512" enable-background="new 0 0 512 512" xml:space="preserve">
<path fill="#00CCAA" d="M182.3,325.1c0,32.5,0,65.1,0,97.6c0,6.2-0.2,12.5,0.1,18.7c0.1,3.1-0.9,3.9-4,3.9
	c-39.2-0.1-78.3-0.1-117.5,0c-3.2,0-4.2-1.1-3.8-4c0.1-1,0-1.9,0-2.9c0-121,0-241.9-0.1-362.9c0-5,0.9-6.8,6.5-6.8
	c37.6,0.3,75.2,0.2,112.8,0c4.8,0,6.1,1,6.1,6c-0.2,69.3-0.1,138.7-0.1,208c0,2.7,0,5.4,0,8.1c0.2,0,0.5,0.1,0.7,0.1
	c1.4-6.2,2.9-12.3,4.1-18.5c0.7-3.6,2.2-5.1,6.2-5.1c84.2,0.1,168.3,0.1,252.5,0c3.7,0,5.4,1,6.4,4.8c6.4,24.1,6.5,48.1,0,72.1
	c-1,3.7-2.6,4.9-6.4,4.9c-84.2-0.1-168.3-0.1-252.5,0c-4,0-5.5-1.5-6.2-5.1c-1.2-6.3-2.7-12.5-4-18.8
	C182.8,325.3,182.5,325.2,182.3,325.1z"/>
<path fill="#00CCAA" d="M216.2,218.9c54.4-65.2,157.7-61.1,206.4-0.2C418,219.6,224.9,219.8,216.2,218.9z"/>
<path fill="#00CCAA" d="M215,397.4c70.3,0,138.8,0,208.9,0c-23,26-50.6,41.6-83.8,46.3C291,450.5,250,434.4,215,397.4z"/>
</svg>
