<?xml version="1.0" encoding="utf-8"?>
<!-- Generator: Adobe Illustrator 21.1.0, SVG Export Plug-In . SVG Version: 6.00 Build 0)  -->
<svg version="1.1" id="图层_1" xmlns="http://www.w3.org/2000/svg" xmlns:xlink="http://www.w3.org/1999/xlink" x="0px" y="0px"
	 viewBox="0 0 512 512" enable-background="new 0 0 512 512" xml:space="preserve">
<path fill="#00CBA9" d="M378.1,84.1c1.1-0.3,3-3.5,3.3,0c0.7,7.8,3.3,2.6,5.5,1.1c0.6-0.4-0.2,0,0.5-0.3c1.9-0.7,3.4-4.5,5.2-2.7
	c2,2,5.3,3.9,4.9,7.8c-0.3,2.3-0.5,5,3.2,2.7c7.2-0.9,10.8,1.3,11.6,7.7c0.4,3.1,3.8,3.3,4.4,5.9c0.5,2.1,2.1,3.9,2.1,6.2
	c-0.4,2.4-1.9,4.3,2.4,5.8c4.1,1.4,7.2,5.5,8.2,10.4c1.6,2.7,3.3,4.7,6.7,2.3c2.4-1.5,4.8-2.3,6.6,0.7c1.7,2.9,1.1,5.1-2.1,6.6
	c-1,0.4-1.6,1.4-2.4,2.2c-1.7,1.1-2.8,2.8-4.5,3.8c-1.4,0.8-1.9,2.3-0.9,3.7c0.9,1.4,2.5,1.6,3.8,0.6c1.6-1.2,3.4-1.9,5.4-2.5
	c4.1-1.9,4.4,2.1,6,4c1.2,1.4,2.3,2.7,3.4,4.2c1.9,2.6,1.7,4.6-0.9,6.4c-0.6,0.4-1.2,0.8-1.6,1.5c-0.6,1.1-2,2.1-1.3,3.4
	c1,1.9,2.5,0.1,3.8,0.1c0.5,0,1-0.3,1.6-0.5c1.9-0.6,3.7-1.4,5.8-1.6c1.5-0.1,3.1,0.1,3.6,1.8c0.5,1.8-0.8,2.4-2.2,3.1
	c-3.4,1.7-6.7,3.4-10,5.2c-0.9,0.7-2.6,1-2.3,2.7c0.3,1.6,1.8,1.6,3.1,1.5c5.3-0.5,9.6,3.2,15.1,2.8c4-0.3,0.6,3.3,0.2,5.2
	c-1.2,2.5-1.1,5.6-3.7,7.7c-1.3,1-1,3.2-0.2,4.6c1.2,2.1,2.3,4,2.8,6.4c0.5,2,2.2,3.4,4.7,2.4c1.8-0.7,3.4-0.1,4.1,1.6
	c0.8,2.1-1.2,2.7-2.6,3.5c-1.1,0.7-2.1,1.4-3.5,1.5c-3,0.1-3.5,2.1-3.3,4.6c0.1,1.7,0.8,3.1,1.8,4.5c1.9,2.7,7,4.9,1.6,9
	c-0.6,0.5,0.4,2,0.8,3c4.7,1,5.6,4.5,5.8,8.6c1.7,1.6,3,2.7,0.3,5.1c-2,1.7-1.6,4.4,1.9,4.9c1.8,0.6,4.5-0.1,4.8,2.4
	c0.2,1.8-2,2.3-3.4,3c-0.7,0.3-1.3,0.5-2.1,0.6c-1.7,0.2-3.9-0.6-4.8,1.6c-1,2.3,0.9,3.3,2.4,4.7c3.1,2.6,1.1,5.9,0.6,9
	c-1.7,1.3-3.7,1.1-5.6,1.5c-1.8,0.4-3.1,1.4-3.1,3.2c0,1.6,1.3,2.3,2.8,2.8c4.4,1.5,4.5,2.3,1.1,5.1c-2.3,1.9-2,2.4,2.4,4
	c3.1,4.7-2,2.9-3.3,4.2c-1.5,2.4-1.1,4,1.9,4.6c1.1,0.2,2.1,0.5,3.1,1.1c1.4,0.8,3.1,1.8,2.9,3.6c-0.2,2.5-2.5,1.8-3.9,1.6
	c-3.9-0.6-5.2,3.8-8.6,4c-3.1,4-1.7,8.8,3.3,11.2c1.3,0.8,2.9,1.2,3.6,2.8c0.4,1.1,0.5,2.2-0.8,2.7c-4.6,1.6-2.8,3.5-0.2,5.4
	c0.2,2.7-1.6,5-2.8,6.8c-2,2.8-5.3,0.6-8,0.1c-1.5-0.3-3-2.1-4.3-0.1c-1.4,2.2-0.2,3.8,1.9,4.9c0.7,0.4,1.3,1,1.6,1.9
	c0.4,2.5-0.8,3.7-3.3,3.8c-1.4,0.1-3.9-1.4-4,1.2c-0.2,6.3-5.1,6.4-9.2,7.5c-4.7,1.2-4.9,1.4-2.7,6.1c2.3,2.4,5.2,4,8,5.8
	c0.8,0.7,2,1,1.8,2.4c-3.1,3.2-6.1,0.9-9-0.2c-4.7-1.8-5.4-1.4-5.5,3.7c-0.1,4.4-0.6,9,4.5,11.3c1.3,1,3.2,1.7,2.4,3.8
	c-0.9,2.1-3.1,1.9-4.8,1.4c-2.2-0.6-3.7-0.6-4.8,1.8c-1,2.1-3.1,1.6-4.9,1.1c-3.4-0.9-4.2,0.6-3,3.3c0.9,2.1,1.4,4.6,3.3,6.2
	c1.2,4.2-1.6,6.7-4.3,8.6c-2.4,1.8-4.6-0.8-6.7-2c-2-1.2-3.5-3.2-5.8-4c-9.5-0.9-13.7,4.3-10.5,12.7c0.9,2.4,2.4,4.5,3.1,6.9
	c0.4,1.4,2.1,3,0.2,4.4c-1.7,1.3-3.1,0.1-4.3-1.1c-0.4-0.4-0.8-0.7-1.3-1c-1.8-1-2.9-2.8-4.7-3.7c-1.3-0.6-2.5-2.8-4.2-1
	c-1.1,1.3-0.3,2.7,0.7,3.9c0.2,0.3,0.5,0.5,0.7,0.8c2.1,3.8,0.4,7.2-3.7,6.2c-5-1.2-4.9,0.9-4.3,4.4c0.4,2.5-0.3,4.3-3.4,4.3
	c-1.5,0-2.9,0.4-3.2,2.3c-0.7,4.5-2.9,3.3-5.2,1.3c-0.7-0.6-1.4-1.2-2-1.8c-3-2.5-4.2-2.2-4.8,1.5c-0.2,1.3-0.1,2.6-1.9,2.7
	c-3.5-0.2-5.1,0.8-4,4.8c0.8,3-0.9,3.4-3.3,2.2c-1.2-0.6-2.1-1.5-3.2-2.1c-3-1.5-5.8-1.4-8,1.6c-2.7,3.7-5.6,6.8-11.1,5.7
	c-4.3-0.8-6.8,4.1-11.1,4.1c-0.7,0-0.3,2.3-0.4,3.6c-0.1,0.9,0.3,1.9-0.5,2.5c-1,0.8-1.6,0-2.2-0.7c-3.8-4.5-3.8-4.5-8.2-0.7
	c-1,0.9-1.9,0.8-2.8,0c-0.9-1.4-1.3-3.6-3.4-3.3c-0.9,0.1-0.9,1.8-1,2.8c-2.3,4.1-8.9,4.8-12.2,1c-1.6-1.8-2.8-3.2-5.4-2.6
	c-3.1,0.8-2.7,3.4-3.1,5.7c-0.3,1.6,0.1,3.3-0.5,4.9c-1.6,2-2.8,2-3.4-0.7c-0.3-1.1,0.4-2.5-0.9-3.3c-1.7-0.3-3.2,0.2-4.7,0.8
	c-2.4,1-3.2-0.6-3.5-2.6c-0.5-1.4-1.4-2.5-2.8-1.8c-5.1,2.5-5.6-1.3-6.2-4.5c-0.4-2.3-0.5-4.6-3.5-4.5c-3.1,0.1-3.2,2.4-3.2,4.7
	c0.3,2.8-0.8,5.4-1.3,8.1c-0.5,1.1-1.1,2.3-1.5,3.5c-0.9,2.3-1.6,5.8-4.3,5.5c-3-0.3-4.2-3.7-4.8-6.5c-0.5-2.1-0.1-4.4-2.6-5.5
	c-2.2-1-4.1-0.7-5.9,1.1c-2.8,3-4.7,1.8-5.9-1.6c-0.4-1.2-0.5-2.7-2.2-2.5c-2,0.2-1.6,2.1-2,3.3c-0.6,2.4-0.2,5.6-4.4,4.6
	c-0.8-0.4-1.2-1.1-1.3-2c-0.1-1.2-0.1-2.8-1.6-3.1c-2.3-0.5-3.5-1.6-4.3-4.1c-0.8-2.7-2.5-2-3.6,0.2c-0.1,0.5-0.2,1-0.4,1.5
	c-0.9,2.6-2.4,4.7-5.4,4.3c-3-0.3-4-2.9-4.6-5.4c-0.8-3-0.5-6.1-1.7-9c-1.8-4.6-3.5-4.9-7.2-1.3c-0.5,0.9-1.4,1.5-1.9,2.4
	c-0.4,0.8-1,1.5-1.6,2.2c-1,1-1.9,2.6-3.6,1.8c-1.9-0.9-0.7-2.5-0.4-3.8c0.3-1.7,1.9-3.6-0.5-4.8c-2.3-1.1-4.6-0.9-6.3,1.4
	c-0.5,0.7-0.8,1.6-1.5,2.3c-1,1-2.2,1.4-3.5,0.6c-1.1-0.7-1.2-2-0.8-2.9c2.2-4.8-0.8-4.7-4.1-4.5c-0.7,0.3-1.3,0.9-1.8,1.4
	c-3,3.4-4.3,1.6-5-1.7c-0.2-0.7-0.4-1.5-0.9-2c-1-0.7-2.1-0.6-3.1-0.5c-2.9,0-4.8-1-3.7-4.2c1.6-4.5-3.4-4.7-4.8-7.3
	c-0.7-1.3-3.4,1.2-4.8,3c-1.2,1.5-2.3,3.3-4.5,3.6c-2.9-1.2-1.5-3.3-0.8-5c0.8-1.8,1.9-3.5,3.1-5.1c2.6-3.5,2.2-6.1-1.2-8.8
	c-3.2-2.5-5.9-1.7-8.7,0.8c-4.3,3.8-7.2,3.5-9.8-1c0.2-1.3,0.7-2.6,0-3.9c-0.6-2.3-2-4.2-2.6-6.6c-0.7-2.7-2.7-3.9-5.4-2l0.2,0.2
	c-2.2,1.3-3.7,3.5-5.8,4.8c-6.1,2.1-5.7-5.1-9.6-6.8c-2.3-1-0.4-3.8,1.2-5.4c0.4-0.7,0.3-1.4-0.2-2c-2.3-1.9-5.8,1.6-7.8-1.8
	c-0.3-0.4-0.6-0.8-0.9-1.1l0,0c-1-0.8-2.9-0.4-2.8-2.4c-0.1-1.5,0.5-2.9,0.6-4.3c0.1-3.9-0.4-7.1-5.4-6.8c-0.8,0-1.3-0.6-1.6-1.3
	c-0.3-1.4,0.6-2,1.5-2.7l0.1,0.1c3.8-4.3,1.3-9.6-5.7-11c-3.7-0.7-5-1.8-2.5-5.2c0.6-2.4,2.9-4.7-0.1-7.1c-0.2-0.1-0.3-0.1-0.5-0.2
	c-2.8-0.2-6.5,2.2-8.2-1.4c-1.7-3.5,2.2-5.1,3.9-7.5c1.5-1.3,3.4-2.7,2.3-4.9c-1.1-2-3-3.8-5.7-3.2c-3.4,0.8-5.1-0.8-6.3-3.5
	c-1.8-1.9-6.5,0.9-6.5-3.9c0.4-3-2.4-3.1-4-4.3c-1.1-0.8-2.7-1.4-2.6-3.1c0.1-1.8,1.4-2.4,3-2.5c1.7-0.2,2.5-2.1,4.2-2.2
	c1.1-0.1,2.1,0.1,3.2-0.2c1.6-0.5,2.9-1.2,2.8-3.3c-0.1-1.8-1.2-2.4-2.8-2.6c-0.9-0.1-1.8-0.3-2.5-0.9c-1.1-1.7-0.9-3.4,0.1-5.1
	c4.6-7.7,4.3-8.8-3.8-12.7c-0.5-0.2-1-0.3-1.5-0.5c-1.2-0.2-2.3,0.2-3.4,0.4c-1.7,0-3.5,0.5-4.5-1.6c1.5-2,4.6-3.1,3.7-6.6
	c-0.9-3.3-3.4-3.8-6.3-4.2c-1.4-0.2-3-0.2-3.5-2c-0.4-1.8,0.3-3.2,1.7-4.2c0.6-0.4-0.1,0.2,0.4-0.3c2-2,5.9-1.6,6.6-5.1
	c0.7-3.7-2.8-4.7-4.5-6.8c-0.8-0.9,0.3-1.6,0.9-2.2l0,0.1c0.9-0.7,2-0.6,3-0.9c5.2-1.4,7.2-4.9,6.5-10c0-0.9,0.1-1.9-0.1-2.8
	c-0.9-2.1-2.8-1.2-4.3-1.5c-2.9-0.2-4.9-1.5-4.5-4.7c0.4-2.8-3.8-4.8-1.1-7.9c1.9-1.1,4.4-1.2,5.4-3.9c0.8-2.1,2.8-2.4,4.9-2.5
	c2.1-0.1,3.5-0.9,2.5-3.4c-2.2-5.5-5.4-9.9-11.5-11.9c-2-0.6-1.3-3.2,0.8-3.4c7.1-0.5,3.6-4,2.2-7c-0.6-3.5,1.2-4.6,4.1-3.2
	c5.4,2.8,9.4-0.9,13.6-2.9c2-1,1.4-4.1,0.4-5.9c-1.3-2.3-2.4-5-5.3-6c-1.8-2.6-4.9-3.7-7-5.9c-3.2-3.4-3.4-4.8,0.5-7.1
	c3.2-1.8,5.2-4.2,5.1-7.7c0-4.1,3.4-5.3,5.7-7.5c0.7-1.1,1.7-2,2.7-2.8c1.2-1,1.1-2.2,0.5-3.5c-2.1-4.4-0.2-7.7,3-10.6
	c0.5-0.1,1-0.1,1.5,0.1c1.6,1.4,3.2,3,5.6,1.9c0.3-0.5,0.7-0.9,1-1.4c-2.7-3.9,2.6-4.2,3.1-6.7c1.9-1.1,3-2.1,0.6-4
	c-1.5-1.2-3.1-3.1-1.4-5.1c1.9-2.3,4.1-0.9,5.9,0.3c2.2,1.6,5.1,1.9,7.3,3.7c2.3,1.9,4.9-0.1,7.2-0.9c1.8-0.7,1-2.7,0.6-4.4
	c-0.8-2.8,0.7-5.6,0.2-8.5c-0.4-2.3,1.1-4.9-1.7-6.8c-1-0.7-0.4-2.4,0.6-3.4c1.1-1.1,2.6-1.1,3.5-0.1c4.1,4.2,7.7,2,11.4-0.6
	c0.4-0.3,0.9-0.7,1.3-1c1.8-1.3,5.6,0.4,5.8-2.7c0.1-2-2.2-4-3.7-5.8c-1.1-1.3-1.1-3.1-2.4-4.3c-1.4-1.2-2-2.8-1-4.4
	c1.1-1.8,2.9-2.1,4.7-0.9c3.7,2,4,0.2,3.4-2.9c-1.1-5.5-0.3-6.4,5.5-7.1c2.8-1.2,5.6-1.9,7.9,1c1.4,1.4,2.8,2.8,4.2,4.2
	c4.9,4.7,6.8,4.3,9.8-1.9c0-1.9,0-3.7,2.4-4.3c0.8-0.1,1.5,0.2,2.2,0.5c0.5,0.1,1,0.1,1.5,0.1c3-0.5,1.6-2.4,1.3-4
	c0-1.3,0.5-2.6,1.5-3.4c2.9-2.3,4-5.4,4.9-8.8c1.7-1.6,3.2-3.1,2.6-5.9c-0.9-3.8,1.2-4.4,4.3-3c2.7,0.8,5.6,0.7,8,3
	c2.2,2,4.8,0.7,6.6-1.5c3-1.4,5.6-0.1,8.4,1.1c3.6,1.6,6.3,1.2,6.6-3.5c3.7-2.2,5.2-5.8,6.2-9.8c0.2-0.5,0.5-0.9,0.9-1.3
	c1.8-1.9,3.3-1.9,5.4,0c2.9,2.6,5.5,2.2,6.6-2.1c1.7-2,3.9-3,5,0c1.3,3.5,3.6,3.2,6,2.2c2.3-1,4.4-1.5,6.8-0.8
	c3.4,1,5.2-0.4,5.6-3.8c0.2-1.6,0-3.4,2-4c5.6,0.2,6.6,1.1,7.8,7.4c0.3,1.8,0.4,3.7,2.5,4.4c2.3,0.8,3.2-1.1,4.3-2.4
	c1-0.1,2.1-0.1,3.1-0.2c2.1-0.4,2.2-3.2,4.6-3.6c4.5-0.8,7.5,1.2,8.2,5.9c0.8,5.3,3.4,7.1,7.7,5.2c0-1.1,0.3-2.1,1.1-2.9
	c1.9-3,1.7-6.4,2.2-9.6c0.3-2.1,1.4-3.5,3.5-3.3c2.3,0.2,1.7,2.4,2.1,3.9c0.6,1.9,0.1,4,0.8,5.9c0.8,3.1,2.5,6,2.4,9.4
	c-0.1,1.7,0.7,3.3,2.8,3.4c2.3,0.1,3.5-1.5,3.5-3.4c0-3.2,1.6-5.9,2.5-8.8c0-0.5-0.1-1.1,0-1.6c0.4-1.9,0.4-4.5,3.2-4.1
	c2.4,0.4,3.1,2.6,2.6,4.7c-0.6,2.8-0.3,4.6,3,4.8c0.5,0.2,0.9,0.6,1.3,0.9c4.6,2.1,9.1,1.1,11.4-2.6c1.2-2.5,3.1-2.8,5.5-1.8
	c2.4,1,2.7,2.9,2.7,5.4c0,1.6-2.3,4.8,2.1,4.6c2.1,0.3,4.1,0.4,6.1-0.6c2.6-0.4,3.9,0.4,3.2,3.3c-0.6,2.1-0.6,4.3-0.5,6.8
	c3-0.2,4.3-2.5,5.4-4.3c2.5-4.1,6.6-4.2,10.5-4.8c2-0.3,2.9,1.3,2.9,3.2c0.1,2.8-0.1,5.5-1.6,8c-1.4,2.3,0.2,3.9,1.4,5.4
	c1.1,1.4,2.2,0.8,3-0.6l0,0c0.2-0.3,0.4-0.7,0.7-0.8c1.8-0.4,2.3-4.2,4.6-2.4c1.8,1.4-0.1,3.6-0.5,5.4c1.5,4.2,4.5,7.7,5.7,12.2
	c0.5,1.7,2.4,1.9,4,0.8C375.9,85.2,377.2,85,378.1,84.1z"/>
<path fill="#BDF1E8" d="M113.9,89.7c-1.5-1-2.9-0.8-3.9,0.5c-0.9,1.2-0.3,2.3,0.5,3.5c2.1,3,3.9,6.1,6.1,9c2,2.6,1.4,4.1-1.7,4.3
	c-2.3,0.1-4.2,0.9-6,2.3c-3.6,2.9-7.2,5.1-11.2,0.4c-0.6-0.7-1.9-1.2-3-0.3c-0.8,0.7-1.1,1.7-0.3,2.4c3.8,3.7,1.4,8.3,1.8,12.4
	c0.1,1-0.5,2.2-0.2,3.2c0.6,2.3,1.2,4.8-1.4,5.7c-2.5,1-5.3,2.4-8.3,0.2c-2.3-1.7-5.1-2.7-7.7-4c-1.3-0.7-2.8-1.4-3.9,0.3
	c-0.9,1.3,0.2,2.6,1.1,3.4c2.5,2,3.8,3.8-0.3,5.3c-0.4,0.4-0.8,0.4-1.2-0.1c2.8-2,0.6-3.5-0.5-5.3c-0.8-1.3-3.2-1.9-1.9-4
	c1.2-2,3.4-1.9,5.4-1.8c3.5,0.2,6.2,2.5,8.8,4.1c2.8,1.8,4.9,0.3,7.2,0.1c0.8-0.1,1.7-0.8,1.4-1.4c-2.3-4.8-0.2-9.5,0.1-14.2
	c0.1-1.7-1.4-2-2.2-2.9c-1.5-1.8-0.4-3.5,0.5-5c0.8-1.4,2.5-2.3,3.7-1.1c4.9,5.1,9.3,2,13.8-0.5c1.4-0.8,3.1-1,5-1.6
	c-2.6-3.4-3.9-7.2-7.3-9.6c-1-2.2-0.8-4.4-0.2-6.6c2.6-2.5,5.2-0.3,7.7,0c0.6-0.3,1.1-0.3,1.5,0.3C117.3,93,115.6,91.4,113.9,89.7z"
	/>
<path fill="#6FE1CE" d="M361.6,449.7c1.1-0.7,0.9-1.8,1-2.9c0.5-4.3,2.4-4.4,5.5-2c2.5,2,5.3,7.5,7.4-0.4c0.2-0.6,1.5-1.1,2.3-1.1
	c3.2,0.1,3.6-1.5,3.1-4.2c-0.7-3.5,0.5-5.4,4.5-4.5c1.7,0.4,3.5,0,4.4-1.4c1-1.6-0.1-3.1-1.3-4.4c-1.7-1.8-2.5-4-0.6-5.8
	c2.3-2.2,3.5,0.7,5,1.7c1.8,1.1,3.5,2.6,5.2,4c-0.8,0.8-1.5,0.8-2.3,0.1c-2.2-1.1-3.6-3.5-6.3-3.7c-0.9,2,0.6,2.9,1.2,4.1
	c0.9,2.1,3.7,4.4,2.1,6.3c-1.2,1.4-4.9,2.2-6.7,1.4c-4.9-2.1-3.4,1.3-3.7,3.5c-0.3,2.4,1.4,4.3,2.1,6.4c-2.4,0.9-3.2-1.4-4.8-1.4
	c-1.7-0.1-3.3-0.3-3.7,2c-0.8,4.8-3.2,4-6.1,1.7c-0.6-0.5-1.1-1-1.7-1.4c-1.3-0.7-1.9-3.4-3.8-1.8c-1.4,1.1,0.1,2.7,0.5,4
	c0.2,0.8,1.1,1.5,0.4,2.6c-1.7,0.7-2.4-1.2-3.7-1.5c-0.4-0.2-0.5-0.5-0.4-0.7C361.4,449.8,361.5,449.7,361.6,449.7z"/>
<path fill="#4ADAC2" d="M36.8,266.9c-0.7,1.5-0.2,2.2,1.5,2.6c3.2,0.6,3.7,3.4,3.8,5.9c0.1,2.5-1.7,3.8-4,4.6
	c-1.2,0.4-2.3,1-3.4,1.7c-1.3,0.8-2.6,1.6-2.2,3.4c0.5,2,2.2,1.7,3.6,1.7c3.3,0.1,5.6,1.5,6.1,5c0.5,3.2-0.9,5.3-4.1,6.1
	c0.4,1.8,0.9,1.9,4.2,1.1c1.1,0,2.2,0,3.3,0c0.3,0.3,0.4,0.5,0.3,0.8c-0.1,0.3-0.2,0.4-0.3,0.4c-2.2,0.3-4.3,0.8-6.5,1
	c-1.5,0.2-3.2,0.4-3.7-1.4c-0.5-1.7,0.7-2.7,2.2-3.2c2-0.7,3.2-1.9,3-4c-0.2-2.1-1.8-2.9-3.6-3.5c-2.5-0.9-6.8-0.2-6.6-4.3
	c0.1-4.3,4-5.7,7.6-6.7c2.3-3.8,1.7-5.4-2.8-6c-3.8-0.5-4.6-1.7-2.6-4.9C34,267,35.4,266.9,36.8,266.9z"/>
<path fill="#71E2CF" d="M361.6,449.7c0,0.4,0,0.7,0,1.1c-2.9-0.1-4.9,0.5-3,4.1c0.7,1.3,1.2,2.8-0.2,4c-1.1,1-2.2,0.7-3.5,0.1
	c-8.8-4.3-8.9-4.3-15.9,3.3c-1.1,1.2-2,2-3.6,1.6c-3.4-0.7-7.3-2.9-7.8,3.4c-0.1,1.1-1.8,0.7-2.8,0.1c-4.4-2.8-3.8,0.7-4,3.2
	c-0.4,0.5-0.7,0.5-1,0c-0.4-3.1,1-4,3.7-6.1c5.1-3.7,11.8-0.3,15.9-5.2c0.6-0.7,1.6-1,2-1.8c3.5-5.6,5.3-5.9,11.1-2.1
	c1.1,0.7,2.3,1.9,4.4,1.3C355.7,452.7,355.4,448.8,361.6,449.7z"/>
<path fill="#45D9C0" d="M118.2,426.5c2.2,3.9,5,3.3,7.8,1c5.5-4.5,9.7-3.9,13.4,2.1c1.6,2.6-0.4,4.3-1.3,6.4
	c-1.2,3.1-5.9,4.9-3.4,9.3c0.8,1.3-0.5,1.6-1.1,2.3l0,0c-3.8,0.9-3.1-1.3-2.3-3.4c1.7-3.2,3.2-6.6,5.1-9.6c2-3.1,0.8-5.1-1.6-6.9
	c-2.5-1.8-5.1-1.7-6.7,0.8c-3,4.7-8.3,3.9-12.3,4.3c-3.4,0.3-1-3.2,0.1-5C116.7,427.1,117,426,118.2,426.5z"/>
<path fill="#AFEEE4" d="M360.5,70.9c-0.2,1.9-1.4,3.1-2.8,1.7c-1.5-1.5-3.9-3-3.1-5.9c0.2-0.7,0.9-1.2,1.1-1.9c1-2.9,2.9-7.1,0-8.4
	c-2.7-1.2-7.1-0.3-9.9,2.5c-1.3,1.3-2.3,2.8-3.3,4.4c-0.9,1.4-2,3.1-3.8,2.4c-2.3-0.8-0.9-2.8-0.7-4.3c0.2-1.4,0.5-2.9,0.8-4.3
	c0.5-2.2-1-2.4-2.5-2.6c-0.3-0.3-0.4-0.5-0.3-0.8c0.1-0.3,0.2-0.4,0.3-0.4c1.7-0.5,3.3-2.8,4.9-1.4c1.6,1.4,0.7,3.7-0.5,5.5
	c-1.1,1.5-1.5,3.2-0.5,5.1c2-0.6,2.9-2.2,3.9-3.7c2.7-4.2,7.2-4.5,11.5-5.2c2-0.3,3,1.3,2.9,3.2c-0.2,3.2,0.3,6.5-1,9.7
	C356.5,68.8,355.9,72,360.5,70.9z"/>
<path fill="#C4F2EB" d="M426.3,404.7c-2.6-2.2-3.2-5.6-4.5-8.5c-0.5-1-0.5-2.2,0.5-3c1.1-0.9,1.9,0.2,2.9,0.6
	c2.7,1.2,5.5,2.8,5.8-2.6c0.2-3.6,2.5-1.9,4.2-0.6c1.6,1.2,3.6,1.8,5,0.4c1.2-1.2-0.4-2.2-1.5-2.9c-2-1.9-5.2-2.9-4.7-6.6
	c0.4-0.4,0.9-0.4,1.4,0c2.3,2.5,4.7,5,7.1,7.5c1,1.1,1.9,2.1,1.1,3.8c-0.9,1.8-2,1.3-3.6,1.1c-2.4-0.3-5.7-2.1-6.4,2.7
	c-0.3,1.8-2.4,0.6-3.7,0.4c-1.7-0.3-3.6-2.2-5-0.3c-1,1.5,0.6,3.4,1.1,5.1c0.3,1,1.2,1.8,1.8,2.7
	C427.3,405.1,426.9,405.2,426.3,404.7z"/>
<path fill="#A6ECE1" d="M221.7,472.7c0.1-1.9,0.1-3.9,2.5-4.1c2.3-0.2,3.1,1.2,3.2,3.4c0.2,2.7,1.8,3.8,3.9,1.5
	c2.1-2.3,4.4-2.2,7-1.8c1.2,0.8,2.4,1.7,1.1,3.3c-2-1.5-3.7-3.4-6.6-0.7c-4.6,4.2-5.1,4-7.7-2.1c-0.2-0.4-0.6-0.8-0.9-1.2
	c-1.9,1.2-1.2,3-1.2,4.5c-0.1,3.1-0.8,5.8-4.3,5.9c-3.4,0.2-3.2-2.8-3.5-5.1c-0.1-0.5-0.3-1-0.4-1.5c-2.2-0.4-1.7,3.8-4.1,2.5
	c-1.7-0.9-1-2.9-1.2-4.5c-0.1-1.7,0.8-3.9-2-4.3c-0.6-1.4,0.3-2.1,1.4-2.3c1-0.2,2.1,0.7,2,1.4c-0.5,4,1.8,4.9,5.2,5.2
	c0.9,0.1,0.6,1.6,1.2,2.3c0.1,0.7,0.2,1.3,0.3,2C220.9,478.2,220.9,478.2,221.7,472.7z"/>
<path fill="#7FE4D3" d="M239.4,33.5c-0.8,7.4-4.3,10-12.1,8.6c-3.6-0.6-7.5,2.5-9.8-3.1c-0.6-1.5-2.5,0-3.4,1.1
	c-0.4,0.5-0.7,0.5-1.1,0c-0.1-2.4,1.3-3.9,3.4-4.3c2.4-0.4,2.9,1.5,3.2,3.5c0.3,2,1.8,2,3.3,1.9c1.6-0.2,2.1-1.2,2-2.7
	c0-0.4-0.1-0.7,0-1.1c0.2-1.9-0.8-4.9,1.5-5.3c2.2-0.3,2.3,2.7,3,4.5c3.9,5,4.2,5,6.6,1.2c0.2-2.3-0.5-5.3,3.3-5.5
	c0.4,0.2,0.5,0.5,0.4,0.7C239.7,33.4,239.5,33.5,239.4,33.5z"/>
<path fill="#72E2CF" d="M162.2,453.5c6.3-1.3,6.3-1.3,5.9,5c0,0.6,0.3,1.6,0.7,1.8c0.5,0.3,1.6,0.2,2-0.2c0.9-0.9,1.5-2,2.3-3
	c2.2-2.5,4.9-2.2,7.5-1c2.9,1.3,0.9,3.3,0.5,5.1c-0.2,1-0.5,2-1.2,4.3c2.5-2.2,4-3.5,5.5-4.9c1.3,2.6-0.9,3.9-2.2,5.5
	c-1.2,1.9-2.5,3.6-5.3,3.6c0.4-3,0.8-5.8,1.2-8.6c0.2-1.3,1.6-2.9-0.5-3.7c-1.7-0.7-3.6-0.7-4.8,1.2c-0.4,0.6-0.6,1.3-1.1,1.9
	c-1,1.3-2.3,2.5-4.1,2c-2.3-0.7-2.5-2.7-2-4.4c0.9-3.1,0.2-4.6-3.3-4C162.8,454.4,162.4,454.1,162.2,453.5z"/>
<path fill="#6CE1CD" d="M464,218.5c-0.4-2.8-0.1-5.1,3.5-5.6c1.4-0.2,2.6-1.2,3.9-1.9c0.9-0.5,2.3-0.8,1.6-2.3
	c-0.4-0.9-1.5-1.2-2.4-0.9c-2.5,0.8-5.5,1.1-6-1.7c-0.8-4.7-7.8-8.8-2-14.2c2-1.9,0.4-4.8,2.4-6.5c0.5,0.4,0.7,0.9,0.8,1.5
	c-0.3,2.2,1.2,5-2,6.2c-0.4,0.3-0.8,0.7-1.1,1c-0.9,2.6-0.6,4,2.7,4.1c2.3,0.1,5,0.7,1.8,3.7c-3.4,3.2-0.7,4.2,1.8,3.8
	c2.6-0.4,4.1,0.5,5.9,1.8c1.5,1.9,0.7,3.3-1.1,4.3c-1.9,0.8-3.6,2.4-5.8,2.5c-2.7,0.2-3,2-3,4.1C464.8,219,464.4,219,464,218.5z"/>
<path fill="#98EADC" d="M470.6,324.3c-1.1-0.7-2.3-1.5-3.4-2.2c-4.9-2.7-6.9-9.2-4.1-13.2c3.9-0.5,6.5-4.8,11.1-3.5
	c1.7,0.5,2-1.1,0.9-2.5c-1.2-1.5-2.9-2.1-4.7-2.5c-3.9-0.9-3.9-3.1-1.8-5.9c0.6,0.4,0.6,0.8,0.2,1.3c-0.3,2,0.3,3.1,2.5,3.2
	c1.7,0.1,3.2,0.9,4.3,2.1c1.2,1.2,3.4,2.1,2.5,4.3c-0.8,1.9-2.8,1.2-4.4,1.3c-5.2,0.3-9.4,5.2-8.5,9.6c0.4,2.1,1.5,3.2,3.3,3.9
	c1.8,0.7,3.3,1.6,3.5,3.8C471.5,324.5,471,324.6,470.6,324.3z"/>
<path fill="#B3EFE5" d="M58.6,161.2c-3,2.8-6,5.4-5.8,10.2c0.2,2.9-2.7,4.2-5,5.2c-4,1.7-3.4,3.4-0.6,5.9c2.1,1.9,4.9,3.2,6.4,5.9
	c0.5,0.5,0.5,1-0.2,1.4c-2.5-2.3-5.9-3.6-8.1-6.3c-2.4-2.9-3-5.4,0.6-7.7c3.6-2.4,5.5-5.6,4.8-10.1c-0.8-5.1,4.4-2.4,6-4.5
	C57.3,160.6,57.9,160.6,58.6,161.2z"/>
<path fill="#83E5D5" d="M133.7,447.5c0.4-0.8,0.7-1.5,1.1-2.3c2.7-1.4,4-4.1,6.2-6.1c1.9-1.8,3.6-2.6,5.1,0.5
	c0.2,0.5,0.5,1.4,0.8,1.4c5.4,0.1,4.6,2.7,2.8,6.2c-0.9,1.8,0.4,2.5,2.2,2.6c1.7,0.1,3.7-0.9,5,1.1c-1.6,1.3-3.8-0.3-5.5,1
	c-0.7,0.6-1.5,1.1-2.1,1.7c-0.9,0.8-1.8,2.1-3.2,1c-1.5-1.2-0.7-2.6,0-3.9c1.1-2.1,3-3.6,0.8-6.7c-3.1-4.4-4.9-4.3-7.9-0.1
	C137.7,445.4,136.3,447.4,133.7,447.5z"/>
<path fill="#5BDDC8" d="M280.2,479.4c0-1.8,0-3.6,0-5.4c0-2.1-0.4-4.8,2.4-5.4c2.7-0.5,5.5-1.4,7.9,1.6c3.2,3.9,9.1,3.3,10.7-0.7
	c0.6-0.3,1.1-0.2,1.5,0.4c0.4,3.3,0,5.9-4.3,5.7c-1.5-0.1-2.3,0.8-2.7,2.1c-0.5,1.6-1.4,2.6-3.2,2.1c-1.6-0.4-2.5-1.6-2.7-3.1
	c-0.3-2.2-1-4.2-1.8-6.2c-0.8-1.3-2.1-1-3.3-1c-2.8,1.7-2.2,4.7-2.8,7.3C281.5,477.8,282.4,479.6,280.2,479.4z"/>
<path fill="#B9F0E7" d="M449.6,173.2c2.7-2.6,6.4-3.3,9.4-5.3c1-0.7,2.7-1,2.2-2.6c-0.5-1.6-2.2-1-3.3-0.8c-2,0.3-3.9,0.8-5.9,1.2
	c-1.7,0.2-3.7,2.7-4.9,0c-0.8-1.8,0.3-3.4,2.7-3.3c0.9,3.9,3.5,1.6,5.1,1c3.4-1.3,6.6-2.6,10.4-2.1c3.7,2.6,0.7,3.9-1.1,5.5
	c-4.5,3.1-9.4,5.5-14.4,7.6c-0.3-0.2-0.4-0.5-0.3-0.8C449.4,173.3,449.5,173.2,449.6,173.2z"/>
<path fill="#E7F9F6" d="M287.9,470.5c1.2,0.7,1.5,2,1.9,3.2c1.7,5.5,1.6,5.4,5.7,2.1c0.6-0.5,1.7-0.9,2.5-0.8c4,0.1,4.3-2.6,4.1-5.5
	c-0.1-1.1,0.5-1.5,1.4-1.4c0.8,0.1,1,0.7,0.9,1.4c-1.6,2.8-1.1,7.1-6.4,7.1c-2.2,0-1,3.4-1.2,5.3c-0.3,2-0.2,4.5-2.6,4.8
	c-2.5,0.4-1.3-2.6-2.3-3.6C288,479.7,288.9,474.8,287.9,470.5z"/>
<path fill="#80E5D4" d="M395.9,428.7c0.8,0,1.6,0,2.3-0.1c1.6,0.5,2.4,3.6,4.4,1.8c1.3-1.2-0.2-3.1-0.9-4.5c-1.3-3-2.8-5.8-4.2-8.8
	c-1.9-4.3,1.4-7.5,3.8-9.2c1.9-1.3,5.3-5.4,8.8-1.3c-2.4,1.6-5.3,1.3-7.9,2.3c-4.8,4.5-2.6,9.3-0.5,13.9c1,2.1,2,4.3,2.7,6.5
	c0.4,1.4,2.2,3.3,0.3,4.4c-1,0.6-3.1-0.4-4.5-1.2C398.8,431.5,397.4,430,395.9,428.7z"/>
<path fill="#9AEADD" d="M53.4,189.8c0.1-0.5,0.1-0.9,0.2-1.4c3.3,1,4.9,3.9,6.1,6.6c2,4.6-2.3,9.6-8.6,10.2c-2.1,0.2-4.4,0-6.5-0.5
	c-2.6-0.7-3.3,0.3-3.2,2.6c0.5,0.9,0.6,1.7-0.1,2.5c-0.7-1.2-1.3-2.6-2.1-3.7c-0.8-1.1-2.9-1.6-1.7-3.4c1.2-1.7,3-1.7,4.9-0.9
	c4.4,1.7,8,3,13.1-0.2c4.3-2.7,3.9-4.2,1.9-7.3C56.2,192.5,55.4,190.6,53.4,189.8z"/>
<path fill="#4EDBC3" d="M319.8,470.6c0.3,0,0.7,0,1,0c-0.1,1.8,2.7,4.1-0.3,5.1c-2.4,0.8-3.3-1.8-3.7-3.8c-0.6-2.3-2-3-4-2.5
	c-2.4,0.5-1.6,2.4-1.4,4c0.1,0.9,0.3,1.8,0.1,2.7c-0.3,1.1-0.1,2.9-1.9,2.9c-1.2,0-1.5-1.3-1.9-2.4c-0.4-1.2-0.8-2.4-1.2-3.6
	c-0.6-0.8-0.6-1.6,0.1-2.4c0.6,0.2,1.3,0.8,1.9,0.1c4.6-4.7,6.1-4.6,9.4,0.4C319.1,472.7,319.5,471.9,319.8,470.6z"/>
<path fill="#CCF4ED" d="M435.4,381.4c-0.4,0-0.7,0-1.1,0c-0.7-1-0.4-2.1-0.5-3.2c-0.4-8.6,0.5-9.9,8.5-5.9c3.4,1.7,4.8,1.3,6.2-0.7
	c-0.7-0.4-1.3-0.9-2-1.3c-0.7-0.6-0.7-1.3-0.2-2.1c2.6,0.6,4.5,2.3,6.2,4.2c1,1.1,2.3,2.2,1.2,3.7c-1,1.4-2.7,2.2-4.3,1.1
	c-4.1-2.7-9-2.1-13.4-3.9C434.8,376.1,435.7,378.8,435.4,381.4z"/>
<path fill="#ACEEE3" d="M363.9,73.2c0.7-1.5,1.9-2.7,1.6-5.1c-1.8,1-3.4,1.9-5,2.8c1.2-3.4,3.8-5,7.7-6.1c-2.5,7,2.9,11.9,3.6,18
	c0.5,4.1,4.2,0.7,6.4,1.3c-0.1,1.4-1.2,1.7-2.1,2.3c-4,2.2-5.8-0.3-6.8-3.5c-1-3.3-0.8-7.1-5.5-7.9
	C363.1,74.9,363.4,73.8,363.9,73.2z"/>
<path fill="#78E3D1" d="M145.8,83.1c-5.4,7.7-7.6,7.4-15.4-2.2c-0.3-0.3-0.4-0.6-0.3-0.9c0.1-0.3,0.2-0.5,0.2-0.5
	c0.5-0.3,1-0.2,1.4,0.1c1.9,1.7,3.6,3.6,5.6,5.1c1.2,0.9,2.5,2.4,4.3,0.9c1.3-1.2,2.1-2.4,1.2-4.3c-0.9-2.1-0.1-4,1.8-5.2
	c2-1.3,3.4-0.4,4.4,1.5c0.7,0.7,0.7,1.4,0.1,2.1c-0.4-0.3-0.8-0.6-1.2-0.9C144.9,78.5,144.9,78.7,145.8,83.1z"/>
<path fill="#AFEEE4" d="M250.4,476.1c0.4-2.9,0.8-5.8,1.3-8.6c0.9-1.2,0.1-2.9,1.3-4.1c1.4-1.3,3-1.2,4.6-0.8
	c1.6,0.4,2.3,1.7,2.2,3.3c-0.2,4,1.2,7.1,4.9,9c0.1,0.8,0.1,1.6,0.2,2.3c-1.1,0.9-2.3,0.7-3.4,0.1c-2.6-1.7-3.1-4.2-3.3-7
	c-0.1-2.1,1.2-5.7-2.2-5.7c-3.2,0.1-1.8,3.7-2.1,5.8c-0.4,3.3-0.9,6.5-3.2,9C249.6,478.4,249.8,477.2,250.4,476.1z"/>
<path fill="#C2F2EA" d="M400.2,91.6c4.3-4.6,10.6-4.8,14.8-0.1c1.5,1.7,0.6,3.6-0.5,5.5c-0.8,1.3-2.6,3.3,1,3.6
	c0.4,0.3,0.6,0.8,0.7,1.3c-2.2,2.7-3.8,2.5-4.3-1.1c-0.2-1.4-0.1-2.9,0.1-4.3c0.1-0.7-0.1-2-0.5-1.9c-4,1.7-6.3-3.3-10.1-2.2
	C400.8,92.4,400.4,92.1,400.2,91.6z"/>
<path fill="#65DFCB" d="M278,50c-3,3.1-7.5,2.1-9-2c-3.5-9.3-3.5-9.3-12.1-5.8c0.5-0.7,0.9-1.3,1.4-2c0.5-2.4,1.7-3.6,4.3-2.9
	c1.2,0.1,2.3-0.2,3.4-0.7c4.9-0.6,5.9,0.1,5.3,5.1c-0.4,3.7-0.1,6.5,3.4,8.2c0.7,0,1.4,0,2.1,0C277.2,49.5,277.6,49.5,278,50z"/>
<path fill="#52DCC5" d="M186.6,458.6c0.3-3,2.6-3.3,4.8-3.2c2.2,0.1,3.7,1.2,4.2,3.5c0.5,2.4,1.9,4.5,1.6,7.3
	c-0.3,2.9,0.5,6.2,3.4,7.4c3.2,1.3,3.7-2.8,5.8-4c1.2,3.9-1.3,5.9-4.2,6.9c-2.6,0.9-7.5-4.5-7.9-8.4c-0.3-3.2,0.2-6.5-1.2-9.6
	c-1-0.8-2-1.4-3.3-1C188.8,457.9,188,459.1,186.6,458.6z"/>
<path fill="#9EEBDE" d="M471.7,291.3c-4-0.6-6.5-2.1-1.9-5.5c2.1-1.6,1.2-2.5,0-3.2c-2-1.1-5.7-0.2-4.8-4.3c0.9-4.3,4.7-3.2,7.6-3.7
	c0.4-0.1,0.7-0.1,1.1-0.1c0.6-0.4,1.2-0.3,1.7,0.2c-1.9,1.8-4.4,1.6-6.6,2.2c-1.1,0.3-2,1-1.9,2.3c0.1,1,0.8,1.8,1.8,1.8
	c3-0.1,4.4,2.3,6.6,3.6c1.7,1.1,1.7,2.2,0,3.3c-1.2,0-2.5,0-3.7,0.1c-0.7,0.1-2.1-0.4-1.8,1c0.1,0.5,1.4,0.8,2.2,1.2
	c0.3,0.3,0.4,0.5,0.3,0.8C471.9,291.2,471.8,291.3,471.7,291.3z"/>
<path fill="#A2ECDF" d="M402.4,409c2.4-1.6,5.1-1.9,7.9-2.3c2.6,0.2,3.9,2.5,5.9,3.7c6.1,3.7,9.4,2,10.2-5.7
	c0.5-0.1,0.9-0.1,1.4-0.2c2.4,3.5,2.9,6.4-2.3,7.7c-1.3,0.9,0.6,5-3.2,3.2c-1.6-0.7-3.7-1-4.8-2.1
	C413.1,409.1,408.2,407.4,402.4,409z"/>
<path fill="#9BEADD" d="M475.2,274.7c-0.6-0.1-1.1-0.1-1.7-0.2c0.6-3.6,1.8-7-2.2-10.1c-2.6-2-0.8-5.5,2.6-6.1
	c1.4-0.2,2.9-0.2,4.3-0.3c0.3,0.3,0.4,0.5,0.3,0.8c-0.1,0.3-0.2,0.5-0.2,0.5l0,0c-1.7,1.2-3.9-0.3-5.5,1c-1.7,1.8-1.3,3,1.1,3.2
	c1.9,0.2,3.5,0.8,5,2c1.7,1.2,2.4,2.8,0.1,3.6C476.2,270.2,476.7,273,475.2,274.7z"/>
<path fill="#A4ECE0" d="M49.9,229.5c0.8,0.9,1.1,2.7,0.1,2.8c-5.6,0.2-7.9,6.4-13.2,7.1c-1.3,1-3.6,1.8-0.7,3.6
	c1.1,0.7,1.7,1.7,1,3.1c-0.5,0.3-0.9,0.3-1.4,0c-1.4,0-2.8-0.1-4.2-0.1c-0.4-0.3-0.8-0.7-1.2-1.1c-1.1-1.4-1.2-2.9-0.1-4.4
	c0.7-0.7,1.5-1.5,2.2-2.2c2.1-1.3,4.6,0.2,6.7-1c1.9-3.1,3.8-6.2,8.2-5.7c1.2,0.1,1.4-0.9,1.3-1.9C49,229.1,49.4,229,49.9,229.5z"/>
<path fill="#87E6D6" d="M49.9,229.5c-0.4,0.1-0.8,0.1-1.2,0.2c-2.7-5.4-6.6-9.2-12-12.3c-3.5-2-0.6-3.8,1.9-4.3
	c2-0.4,4.4-0.1,2.5-3.3c0-0.8,0.1-1.7,0.1-2.5c3.9,5.6,3.9,5.6-3.8,8.2c1.1,2.4,3,3.7,5.3,3.8c3.7,0.2,5.4,1.7,4.9,5.4
	C47.4,226.9,48.7,228.2,49.9,229.5z"/>
<path fill="#57DDC6" d="M456.1,344.1c-3.4-0.8-3.9-3.4-2.7-6c1.3-2.9,3.3-1.3,5.4-0.3c2.2,1,5.3,2.2,7.2,0.7
	c1.7-1.4,2.3-4.3,3.3-6.5c-0.3-0.3-0.4-0.6-0.2-0.8c0.1-0.2,0.3-0.3,0.4-0.3c2.1,1.2,1.5,2.8,0.4,4.1c-1.6,1.9-1.6,3.9-1,6.7
	c-3.6-0.7-7-1.1-10.2-2c-4.1-1.1-4,0.3-2.2,3.1C456.7,343.4,456.6,343.8,456.1,344.1z"/>
<path fill="#8BE7D8" d="M307.5,49.2c-2.1-0.6-5.6,0.4-4.6-3.9c0.5-2.1,1-5.2-1.3-5.6c-2.8-0.4-2,3-2.7,4.9c-0.4,0.5-0.8,0.5-1.1,0
	c0.3-2.1,0.5-4.3,0.9-6.4c0.3-1.6,0.9-3.3,2.9-3.4c2.3-0.1,3.1,1.8,3.4,3.6c0.5,2.7,0.4,5.6,0.6,8.4
	C305.9,47.7,308.7,46.8,307.5,49.2z"/>
<path fill="#E1F8F5" d="M193.2,458.5c2.1,2.1,2.2,4.9,2.1,7.6c-0.1,2.1,0.5,3.9,1.6,5.6c1.4,2.1,2.9,4.4,5.4,3.9
	c2.8-0.6,4.5-2.9,4.3-6.1c0,0,0,0,0,0c0.3-0.6,0.6-0.6,1-0.1c0.1,1.6,0.1,3.3-0.8,4.8c-2.1,3.4-4.1,4.8-8.1,1.9
	C192,471.5,193.2,465,193.2,458.5z"/>
<path fill="#4CDAC3" d="M438.7,364.9c-2.5-1.2-2.6-3.4-2-5.6c0.6-2.2,2.7-1.8,4.5-2.2c3.8-0.9,8.9-0.1,8-7.1
	c-0.4-2.8,2.6-3.5,5.2-1.9c-0.3,1.1-1.8,1.2-2.2,2.3c-0.3,1.5,0.9,3.1-0.4,4.5c-3,0.8-5.2,3.4-8.3,3.6c-5.3,0.4-5.7,2.6-2.4,6.3
	C440.3,365.6,439.5,365.5,438.7,364.9z"/>
<path fill="#70E2CF" d="M449.6,173.2c0,0.4,0,0.8,0.1,1.2c0,0,0,0,0,0c-1.7,1.5-2.1,2.7,0.8,2.8c2.8,0.1,5.7-0.5,8.1,1.6
	c1.7,0.9,3.4,0.9,5.2,0.3c2.2-0.7,4.5-0.6,5.8,1.5c1.6,2.5-1.7,3.1-2.2,4.8c-0.5,0.7-0.8,1.6-2,1.5c-0.1-0.5-0.1-1-0.2-1.5
	c0.3-1.3,2.6-2,1.6-3.7c-0.8-1.3-2.4-0.7-3.6-0.6c-5.2,0.7-9.6-3.5-15-2.4c-1.4,0.3-2.3-1.3-2.3-2.6
	C445.6,173.5,447.7,173.4,449.6,173.2z"/>
<path fill="#ACEDE3" d="M66.6,352.8c-1.1,2.5-5.8,3.7-4.1,6.8c1.9,3.4,6,0.4,9,1.1c1.8,1.5,1.4,3,0.1,4.6c-0.6,0.1-1.2,0-1.7-0.4
	c0.6-1.5,1.2-3.1-1.5-2.5c-1.8,0.4-3.6,0.6-5.4,0c-3.1-1-5-2.5-2.1-5.8c2-2.3,3.8-4.8,5.7-7.2c0.5-0.3,1-0.3,1.5,0
	C68.7,351,67.7,352,66.6,352.8z"/>
<path fill="#BDF1E8" d="M274.6,50c-5.2-0.9-4.5-4.9-4.3-8.5c0.2-3.5-0.7-5.2-4.5-3.7c-0.5-2.7,1.4-4.8,2-7.3
	c0.4-1.9,2.1-2.6,3.5-0.4c-0.6,5.2,2.1,10.2,0.5,15.5C271.6,46.8,273.7,48.6,274.6,50z"/>
<path fill="#96E9DB" d="M96.1,406.7c-0.1,1.8-3.8,3.7-1.5,4.9c3.6,1.9,3.7,8.2,9.3,7.1c0.6,0.4,0.6,0.8,0.1,1.3
	c-0.4,0.4-0.8,0.7-1.2,1.1c-4.5,2.8-4.9,2.7-5.4-1.1c1.6-2.6-0.6-3.6-2.1-4.7c-5.5-3.9-5.6-3.8-0.2-8.6
	C95.4,406.2,95.8,406.2,96.1,406.7z"/>
<path fill="#DEF8F3" d="M117.3,88.6c-0.4,0-0.8-0.1-1.2-0.1c0-2.2-1.8-3.5-2.7-5.2c-2.5-4.3-2.5-4.3,2.2-5.3
	c1.3-0.3,1.3-0.8,0.2-4.7c2.5,1.3,5,2,4.8,5.2C115.1,80.4,117.8,85,117.3,88.6z"/>
<path fill="#6BE1CD" d="M464,218.5c0.4,0,0.7,0,1.1,0c1.9,2.9,2.4,7.8,8,5.8c1.1-0.4,2.4,0.3,2.6,1.5c0.4,2-1.2,3.1-2.8,3.5
	c-3.1,0.9-5.3,1.9-3.1,5.6c-0.4,0.6-1,0.7-1.6,0.3c-0.3-0.8-1.2-2.1-0.9-2.4c4.6-5.4-1-8-3-11.6C464,220.4,464.1,219.4,464,218.5z"
	/>
<path fill="#58DDC7" d="M69.8,364.9c0.4,0,0.8,0.1,1.2,0.1c0.6,1.4,1.4,2.7,0.9,4.2c-3.2,2.5-2.1,3.1,1.3,3.5c5,0.5,9.1,5.1,8.7,9.4
	c-0.2,2-0.3,3.9-3.2,2.8c0.8-1.8,1.3-3.6,0.9-5.5c-1.3-1-3.3-0.8-4-3c-0.7-2.2-2.6-2.7-4.7-1.5c-0.9,0-1.7-0.3-2.1-1.2
	C66,370.3,68.4,367.7,69.8,364.9C69.9,364.9,69.8,364.9,69.8,364.9z"/>
<path fill="#CCF4ED" d="M58.6,161.2c-0.7,0-1.3,0-2,0c0.1-5.3,3.3-10.1,2.4-15.6c-0.3-1.6,0.9-2.8,2.6-2.9c2.3-0.2,4.9-0.9,6,2.2
	c-0.7,0.5-1.4,0.5-2.1-0.1l0,0c-3.7,0.5-6.1,4.8-4.5,8.9c0.7,1.9,1.6,3.6,0.2,5.5C60.3,159.8,59.5,160.5,58.6,161.2z"/>
<path fill="#7AE4D2" d="M297.7,44.5c0.4,0,0.8,0,1.1,0c-0.4,3.6-2.5,6.7-2.8,10.3c-0.1,1.8-2.1,3-4.1,2.8c-2.3-0.1-3.1-1.8-3-3.8
	c0.3-3.4-2.5-6.1-2.3-9.4c0.4-0.6,0.9-0.6,1.3-0.1c1.9,2,2,4.5,2.1,7.1c0.1,1.6,0,3.7,2.1,3.8c2.4,0.1,2.9-2,3-3.8
	C295.3,48.8,296.2,46.6,297.7,44.5z"/>
<path fill="#A4ECE0" d="M149.2,79.7c0-0.7,0-1.4-0.1-2.1c0.5-0.2,1.4-0.2,1.5-0.5c1.7-8.9,9.8-15.4,9.3-25.1
	c0.2,0.2,0.4,0.4,0.7,0.5c0.5,3.7,2.7,7.7-1.8,10.6c0.3,5.3-5.2,7.6-6.2,12.2c1.6,2.7-0.3,3.6-2.3,4.5l-0.5,0L149.2,79.7z"/>
<path fill="#A6ECE0" d="M428.8,129.3c-1.4-3.7-3.3-7.1-6.6-9.3c-0.7-0.5-1.4-1.2-2.2-1.4c-5.1-0.9-5.1-0.8-2.1-5.6
	c0.3-0.5,0.7-0.6,1.2-0.3c0.4,1.3,0.4,2.8,2.1,3.4c4.7,3.4,7.2,8.3,10,13.1c-0.1,0.2-0.3,0.4-0.4,0.5
	C430,129.9,429.3,129.9,428.8,129.3z"/>
<path fill="#8FE8D9" d="M51.2,317.4c2.5,0.6,6-0.1,5.5,4.3c-0.5,4.4-4,3.4-6.7,3.6c-0.4-0.2-0.5-0.5-0.4-0.7
	c0.1-0.2,0.3-0.4,0.4-0.4c1.4-0.4,2.8-0.6,4.1-1.1c0.5-0.2,1-1.1,1.1-1.7c0.1-1.1-0.8-1.6-1.8-1.5c-2.3,0.2-3.3-1.3-5-2.7
	c-7.1-6,0-5,2.7-6.2C51.5,313.1,49,315.3,51.2,317.4z"/>
<path fill="#6DE1CE" d="M400.2,94.1c-3.2,2.3-3.8,0.1-3.8-2.4c0-1.6,0.2-3-0.7-4.6c-2.4-4.3-5.2-4.5-8.8-1.8c0.6-1.8,2.2-2.8,3.5-4
	c1.7-1.6,3.2-1.6,4,0.9c0.4,1.2,0.7,2.7,2.1,2.9c3.8,0.6,3,2.4,1.7,4.8c-0.7,1.3-1.3,3.9,1.9,1.8c0,0.3,0,0.5,0.1,0.8
	C400.8,92.9,400.7,93.5,400.2,94.1z"/>
<path fill="#73E2D0" d="M77.4,386.9c8.4,3.6,8.8,4.4,6.7,13.2c-0.4,0.3-0.8,0.4-1.2,0c0.1-1.1,0.4-2.2,0.2-3.2
	c-0.3-2.3,1.2-5.4-1.6-6.8c-2.6-1.3-4,1.8-6.1,2.4c-2.7,0.8-3.6-0.4-2.2-2.7C74.1,388.4,75.3,386.8,77.4,386.9z"/>
<path fill="#54DCC6" d="M449.7,162.3c-1.3,0.5-2.5,1.5-1.9,2.8c0.9,2.2,2.9-0.3,4.2,0.6c-1.8,0.9-3.2,4.5-5.7,1.4
	c-2.1-2.6,0-4.6,2-5.8c6.7-4.3,1.1-7.4-0.9-10.9c0.4-0.6,0.9-0.6,1.5-0.2C455.4,156.4,455.5,157.4,449.7,162.3z"/>
<path fill="#54DCC5" d="M250.4,476.1c0,1.1,0.1,2.3,0.1,3.4c-0.4,3.3-2,6.8-4.8,7.2c-3.1,0.4-3.7-3.8-5.2-6.1
	c-1.3-1.6,0.3-3.9-1.1-5.5c0,0,0,0,0,0c-0.4-1.1-0.7-2.2-1.1-3.3c2.2,0,2.6,1.6,3.1,3.2c0.2,0.8,0.2,1.8,0.2,2.7
	c0.1,2.7,1.5,5.7,3.5,6.2c2.7,0.6,2.4-3.3,3.8-5C249.5,478,249.9,477,250.4,476.1z"/>
<path fill="#2FD5B9" d="M264.6,474.9c-5.3,1-3.9-3.9-5.2-6.2c-1-1.9,0.5-5-2.8-5.7c-3.8-0.9-3.4,3-5,4.5c-0.2-2.9-0.2-5.5,3.8-5.7
	c3.9-0.2,4.8,1.7,5.1,5.2c0.2,2.6,0.1,7,5.3,3.9c1.4-0.9,3.3-0.4,3.2,2.1c-1.2,0.4-2.1-1.1-3.2-0.4
	C264.7,473.1,264.7,474,264.6,474.9z"/>
<path fill="#A6ECE0" d="M437.5,140.2c0.6-0.7,1.2-1.4,1.8-2c1.6-1.5,4.5-2.1,2.8-5.5c-1.8-3.5-4.2-1.7-6.6-1.1
	c-2.4,1.1-5.1,2.8-4.7-2.2c0,0,0.3-0.3,0.3-0.3c2,1.4,3.9,1.7,6,0c2.6-2.1,5-1.2,6.4,1.4c1.3,2.4,1.8,5.2-1.1,7.3
	c-1.6,1.2-3.2,2.4-4.8,3.5c-0.3-0.3-0.4-0.5-0.3-0.8C437.4,140.4,437.5,140.2,437.5,140.2z"/>
<path fill="#92E8DA" d="M437.5,140.2c0,0.4,0,0.8,0.1,1.3c-0.6,2.4-5.6,3-3.7,5.7c1.9,2.6,4-2,6.6-1.7c0.8,0.1,1.7-0.4,2.6-0.6
	c0.6,1.3-0.5,1.5-1.2,2.1c-1.8,0.4-3.4,1.2-4.8,2.3c-1.9,1.5-3.9,1.2-5.3-0.4c-1.6-1.8-0.8-3.8,0.9-5.2
	C434.2,142.3,435.9,141.3,437.5,140.2z"/>
<path fill="#4CDBC3" d="M195.4,52.3c-0.2,6.7-1.1,7.5-7.3,5.3c-2.7-1-5.2-2.6-8.3-2.1c-0.9-2.3,0.1-2.9,2.2-2.6
	c0.4,0.2,0.8,0.4,1.1,0.5c1.6,0.9,3.6,0.4,5.2,1.2c3,1.4,6,3.6,4.3-2.7c-0.6-2.4,1.4-3,3.5-2.1C197.3,51,196.2,51.6,195.4,52.3z"/>
<path fill="#6DE1CE" d="M239.4,33.5c0-0.4,0-0.7,0-1.1c6.7-2,7.6,3.1,8.5,7.5c0.8,4.3,2.3,5.4,5.9,2.5c-0.2,2.6-1.7,3.5-4,3.3
	c-2.9-0.2-3.5-2.4-3.6-4.7C246,36.6,244.3,33.7,239.4,33.5z"/>
<path fill="#BDF1E8" d="M151.3,451.8c1.6-1.7,3.6-0.8,5.5-1c0.1,0.7,0.3,1.4,0.4,2.1c1,2.5-1.6,5.4,1,7.6c0.2,0.5,0.1,0.9-0.3,1.3
	c-0.7,1.7-2.5,2.1-3.7,3.1c-0.6,0.5-1.3,0.9-1.9,0.3c-0.4-0.4-0.7-1.7-0.5-1.9c2.1-2,1-5,2.5-7.1
	C157.4,451.9,154.5,451.9,151.3,451.8z"/>
<path fill="#33D5BA" d="M51.2,317.4c-3.2-2.1-1.7-4.3-0.1-6.5c3.1-3.4,3-6.2-1.4-8.4c-1.4-0.7-2.7-1.6-4.1-2.5c0-0.4,0-0.8,0-1.2
	c8,1.8,12.1,7.4,6.5,13.9C50.9,314.2,51.2,315.8,51.2,317.4z"/>
<path fill="#B9F0E7" d="M50.1,324.2c0,0.4,0,0.7,0,1.1c-1.2,2.8-6.2,1.3-6,4.3c0.1,2.7,4.2,3,6.1,4.8c0.5,0.5,0.7,1.3,0.1,2
	c-0.4,0.5-0.8,0.5-1.2,0c-1.3-2.7-4.7-2.5-6.6-4.6c-2.3-2.6-2.1-4.5,1-5C46,326.2,47.6,324.3,50.1,324.2z"/>
<path fill="#7CE4D3" d="M329.9,55.7c-1.3,1.9-2.8,3-3.5-0.3c-0.4-1.7-0.1-3.6,0.2-5.4c0.2-1.4,1.2-3-0.7-3.8
	c-1.6-0.6-3.7-2.5-5.1,0.5c-0.5,0.6-1.1,0.7-1.8,0.5c-0.2-0.1-0.3-0.3-0.5-0.4c0.8-1.5,1.6-3,2.3-4.5c3.1-1.5,5.2,0.9,7.8,1.8
	c1.3,1.4,1,3,0.9,4.7c-0.1,0.5-0.3,1-0.5,1.4C328,52.2,329,53.9,329.9,55.7z"/>
<path fill="#EBFAF8" d="M446.4,142.4c1.8-3.9,6.3-3,9.1-5.2c0.4-0.3,1.8,0,2.4,0.5c0.8,0.6,0.5,1.7,0,2.5c-1.6,2-2.4,5.2-6,4.5
	c-0.4-0.9,0.3-2.9-2-2.1C448.7,143,447.5,143.6,446.4,142.4z"/>
<path fill="#BCF1E8" d="M196.4,49.9c-2.8-0.1-3.5,1.1-2.6,3.7c0.9,2.9,0.1,4.5-3.2,2.8c-2.4-1.2-5.3-1.1-7.4-3
	c3.1-0.3,6.1-0.3,9.3,2.5c-0.6-4.2-3.1-9.1,4-8.2c0.3,0.3,0.5,0.6,0.6,1.1C197,49.3,196.8,49.6,196.4,49.9z"/>
<path fill="#DEF8F3" d="M328.6,44.6c-3,0.8-5-1.9-7.7-2.2c0.3-2.2,2.3-3.6,3.7-2.7c2.3,1.6,5.8,2.4,6.2,6c0.1,1.5,0.5,3.3-1,4.5
	c-0.2-0.2-0.3-0.4-0.5-0.5C328.8,47.9,329.8,46.1,328.6,44.6z"/>
<path fill="#A4ECE0" d="M182.1,52.8c-0.9,0.7-2.4,1-2.2,2.6c-1.8,3.3-4.8,3.4-7.2,1.6c-2.5-1.8-5.2-2.2-7.9-2.7
	c-0.5-0.4-0.7-0.9-0.7-1.6c0.1-0.4,0.4-0.7,0.8-0.8c2.9,2.3,7.3,0.5,10,4.2c1.2,1.6,3-0.7,3.8-2.4C179.4,52.4,180,50,182.1,52.8z"/>
<path fill="#91E8DA" d="M280.2,479.4c1.6-1.4,0.9-3.4,1.1-5.1c0.3-2.1,0.3-4.5,3.3-4.8c-1.5,2.8-1.7,5.9-2.3,8.9
	c-0.4,1.9-0.5,4.6-2.9,4.6c-3.1,0-2.5-2.9-2.6-5c0-0.5-0.1-1.1-0.1-1.6c-0.3-0.3-0.4-0.5-0.2-0.8c0.1-0.2,0.2-0.3,0.4-0.3
	c1.5,0.7,1,2.2,1.2,3.4C278.3,480.1,279,480.6,280.2,479.4z"/>
<path fill="#ABEEE2" d="M32.6,267.1c-0.7,3.4,0.8,4.6,4.1,4.3c1.8-0.2,3.1,0.8,3.4,2.7c0.2,1.8,0.7,3.7-2.1,3.9
	c2.1-4.7-1.1-5.1-4.4-5.4c-1.7-0.2-4.3,0.5-4.6-1.5C28.6,269.1,30.6,267.7,32.6,267.1z"/>
<path fill="#77E3D1" d="M74.4,138.2c0.4,0,0.8,0.1,1.2,0.1c-0.2,2.6-4.4,3.1-3.5,6.4c-1.4-1.1-2.9-2.2-4.3-3.4
	c-0.8-1.1-1.9-2.2-1-3.7c0.7-1.1,1.8-1.6,3.1-0.7C71.5,137.1,72.2,140.4,74.4,138.2z"/>
<path fill="#3CD7BD" d="M117.3,88.6c-0.8-4-4.1-8.8,3.3-10.1c0.7,0,1.5,0,2.2,0.1c0,0,0.4,0.4,0.4,0.4c0.1,0.4,0,0.7-0.4,0.9
	c-4.7,0.1-6.2,2.1-3.9,6.5c1.1,2.1,0.4,4.1-1.4,5.2c-1.5,0.9-3.2,0.5-3.5-1.8C115.2,89.9,117.1,91.8,117.3,88.6z"/>
<path fill="#7FE5D4" d="M288.1,44.4c-0.4,0-0.9,0.1-1.3,0.1c-1-1.8-0.9-3.8-1-5.8c-0.1-1.4,0.4-3.3-1.4-3.7
	c-2.1-0.5-2.8,1.2-3.2,2.9c-0.3,0.5-0.7,0.6-1,0c-0.3-2.8,0.8-4.9,3.7-5.2c3.2-0.3,3.1,2.5,3.4,4.6
	C287.5,39.7,287.8,42.1,288.1,44.4z"/>
<path fill="#52DCC5" d="M207.5,469.5c-0.3,0-0.7,0.1-1,0.1c-0.4-2.2,0-4.2,2.6-4.3c2-0.1,2.8,1.4,2.8,3.2c-0.1,1.7,0.3,2.5,2.4,2.5
	c2.3,0.1,3.6,1.5,3.1,4c-1.6-3.1-3.9-2.1-6.4-0.5c-0.1-2.4,0.1-4.3-0.3-6c-0.6-2.3-1.9-2.7-3-0.1
	C207.5,468.8,207.5,469.2,207.5,469.5z"/>
<path fill="#9AEADD" d="M476.1,253.8c-3.4-1.2-4.4-3.8-1.7-6c2.9-2.3,0-2.7-0.6-3.9c-0.3-1.7-1.7-3.6,1.1-4.5c0,1.5-0.1,2.9,1.4,3.9
	c2.7,1.9,2.9,3.5-0.2,5.3c-1.9,1.1-1.3,2.7,0,4.1c0.4,0.2,0.5,0.5,0.4,0.7C476.4,253.7,476.2,253.8,476.1,253.8z"/>
<path fill="#A1EBDF" d="M77.4,386.9c-0.9,1.8-6,2.1-2,5.6c-1.6,2.2-3.6,2.8-6.5,1.3c2.9-3.6,5-7.6,9.6-9.1
	C78.2,385.4,77.8,386.2,77.4,386.9z"/>
<path fill="#5CDEC8" d="M475,239.4c-1.7,1.2-0.8,3-1.1,4.5c-1.2-3.4-0.6-7.9-5.6-8.7c0.5-0.1,1.1-0.2,1.6-0.3
	c2.1,0.1,4.2,0.2,6.3,0.2c0.9,1,3.4-0.2,3.4,1.7C479.5,239.5,476.4,238.2,475,239.4L475,239.4z"/>
<path fill="#45D9C0" d="M109.4,414.3c-0.8-1.9,0.3-2,1.8-2c2,0,3.6,0.8,4.4,2.6c1.1,2.4,1.8,4.9,2.7,7.4c-1.9,0.6-2.2-1.5-3.4-2.1
	C113.4,417.8,113.9,413.7,109.4,414.3z"/>
<path fill="#D4F6F0" d="M307.5,49.2c-0.7-0.8-1.3-1.6-2-2.5c4.4-1.8,8.7,3.2,13,0.1c0,0,0.5-0.1,0.5-0.1c0.1,0.3,0.4,0.8,0.2,1
	c-1.6,2.7-8.6,4-11.4,2.2C307.7,49.7,307.6,49.4,307.5,49.2z"/>
<path fill="#D5F6F0" d="M35.7,246.1c0.4,0,0.8-0.1,1.2-0.1c0.5,3.7,2.5,5.6,6.4,5.6c2.3,0,3.8,1.1,4,3.6c-0.1,0.9-0.5,1.6-1.2,2.1
	c-0.6,0.2-1.1,0.1-1.5-0.3c-0.9-2.9-3.7-3.3-5.8-4.1C35,251.4,34.6,249.2,35.7,246.1z"/>
<path fill="#A6ECE1" d="M446.4,142.4c1.2,0.1,2.1-0.5,3-1.2c1.4-1,3.2-1.7,4.3,0c1.2,1.8-1.2,2.3-1.8,3.4c-1.5,0.6-2.4,2.4-4.3,2.3
	c-0.8-1.4-2-2.3-3.3-3.3C444.6,142.7,445.5,142.6,446.4,142.4z"/>
<path fill="#2DD4B8" d="M45.6,257c0.4-0.4,0.7-0.8,1.1-1.1c0.4-0.5,0.8-0.5,1.2,0.1c-1.2,9.8-2.6,11.1-11,11c0.4-1,1.4-0.8,2.2-1.2
	C43.6,264.7,44.8,261,45.6,257z"/>
<path fill="#ACEEE3" d="M276.8,475.3c0,0.4-0.1,0.7-0.1,1.1c-0.2,0-0.4-0.1-0.5-0.1c-3.8,0.9-7.7-0.5-10.4-3.7
	c1.3-1.5,2.2-0.1,3.2,0.4c0.3,1.5,0.1,3.5,2.7,2.4C273.3,474.7,275.1,474.9,276.8,475.3z"/>
<path fill="#D8F6F1" d="M271.4,30.2c-2-1-3.1-0.3-3.2,1.8c-0.1,2.2-1.4,4-2.3,5.9c-1.1,0-2.2,0-3.3,0c-0.4-0.2-0.5-0.5-0.4-0.7
	c0.1-0.2,0.3-0.4,0.4-0.4c3.7-1,3.5-4.6,4.8-7.3c0.5-1.1,0.9-2.6,2.5-2.4C271.7,27.4,271.2,29,271.4,30.2z"/>
<path fill="#CCF4ED" d="M67.7,349.5c-0.4,0-0.8-0.1-1.2-0.1c-0.6-2.9-2.5-3-4.9-2.5c-4,0.8-6.4-0.6-5.9-5.2c0.5-0.4,1-0.4,1.4,0.2
	c0.9,2.7,2.7,2.6,5.1,2.2C66,343.5,68.1,345.7,67.7,349.5z"/>
<path fill="#C4F2EA" d="M69.9,137c-3.3,0.2-2.8,2.3-2.1,4.4c-0.3-0.1-0.9-0.2-0.9-0.4c-0.8-2.4-5.8-3.2-3.6-6
	C65.3,132.3,67.5,136.4,69.9,137z"/>
<path fill="#2BD4B8" d="M213.1,40.2c0.4,0,0.7,0,1.1,0c-1.3,4.8-5,4.4-7.3,2.1c-2.3-2.2-3.3-0.6-4.9,0c-1-1.6,0.1-2.4,1.2-3.2
	c2.1-1.3,3.1,0.1,4.3,1.5C209.4,42.9,211.4,42.7,213.1,40.2z"/>
<path fill="#93E9DA" d="M131.7,79.6c-0.4,0-0.8,0.1-1.2,0.1c-2.4-2.7-5.2-0.7-7.9-0.6c-0.1-0.2,0-0.4,0.1-0.6
	c0.4-0.7,0.7-1.4,1.1-2.1c-0.7-1.2-1-2.5,0.2-3.4c1.3-0.9,2.3,0.1,3.1,1.2C128.7,76,131.3,76.9,131.7,79.6z"/>
<path fill="#56DCC6" d="M444.3,143.7c2.1,0.1,5.2-0.8,3.3,3.3c-0.4,1.4,0.6,2.2,1.3,3.1c-0.5,0.1-1,0.1-1.5,0.2
	c-2.1-0.7-1.8-5.2-5.4-3.5c0.4-0.7,0.8-1.4,1.2-2.1C443.5,144.4,443.9,144.1,444.3,143.7z"/>
<path fill="#BBF0E7" d="M475.1,239.4c0.3-1.5,7.1-1.4,1-4.4c2.2,0.3,6.3-1.5,6.1,1.9C482,240.9,477.6,238.9,475.1,239.4z"/>
<path fill="#C9F3EC" d="M127.2,74.2c-2.5-1.4-3.6-0.5-3.3,2.2c-0.1-0.1-0.4-0.2-0.4-0.3c-0.7-2-4.7-3.8-1.7-5.7
	C123.6,69.1,126.1,71.6,127.2,74.2z"/>
<path fill="#C4F2EA" d="M96.1,406.7l-0.5,0c0,0-0.5,0-0.5,0c-1-1.3-2.2-1.1-3.2-0.3c-1.7,1.3-3.4,2.2-5.3,0.8
	c-2.1-1.5,0.1-3.3-0.1-4.9c0.3,0,0.6,0,0.9,0.2c1,0.8,0.5,3.5,3.2,2.1c1.7-0.9,3.8-1.2,5.6,0.2C96.1,405.4,96.1,406,96.1,406.7z"/>
<path fill="#A9EDE2" d="M476.1,253.8c0-0.4,0-0.7,0-1.1c1.1,0,2.2,0,3.3,0c1.6,1.3,6.1-0.3,4.4,4.3c-1.8,0.8-3.6,1.5-5.4,2.3
	c0-0.4-0.1-0.9-0.1-1.3c0.6-1.1,2.9-1.1,2.4-2.4C480,253.8,477.7,254.4,476.1,253.8z"/>
<path fill="#ACEEE3" d="M203.1,39.1c-0.4,1.1-0.8,2.1-1.2,3.2c0,0,0,0,0,0c-1,1.5-1.5,3.1-2,4.8c-0.5,1.6-1.2,3-3.4,2
	c0-0.4-0.1-0.9-0.1-1.3C198.8,45,198.4,40,203.1,39.1z"/>
<path fill="#B8F0E7" d="M471.7,291.3c0-0.4,0-0.8,0-1.2c1.9,0.1,3.5,0.9,3.1,2.9c-0.7,3.7-4,2.1-6.2,2.8c-0.1-0.4-0.1-0.9-0.2-1.3
	C469,292.9,473,294.8,471.7,291.3z"/>
<path fill="#30D5B9" d="M469.5,330.9c0,0.4-0.1,0.7-0.1,1.1c-3.7-1.5-4.7-3.3-0.6-5.6c1-0.6,1.8-1,1.8-2.2c0.4-0.1,0.8-0.1,1.2-0.2
	c1.7,2,1.2,3.1-1.4,3.5C467.9,328,468.1,329.3,469.5,330.9z"/>
<path fill="#D4F6F0" d="M467.3,201.9c1.3-2.7-0.3-3.1-2.4-3.2c-3.7-0.2-3.7-2.1-2.1-4.6c-0.2,3.4,2.1,3.6,4.6,3.5
	c1.3,0,2.7,0.4,2.8,2C470.3,201.5,468.8,201.9,467.3,201.9z"/>
<path fill="#A7ECE1" d="M45.6,257c0.6,5.1-0.9,8.4-6.6,8.8c3-2.2,5.3-4.9,5.5-8.9C44.8,256.9,45.2,257,45.6,257z"/>
<path fill="#C1F2EA" d="M421.1,116c-2.4,0-2.2-1.7-2.3-3.3c-0.9-2.7-3-5.1-1.8-8.2c0.3-0.6,0.7-0.9,1.3-1.1c0.6-0.1,1.2,0.1,1.6,0.5
	C419.2,108.1,420.5,112,421.1,116z"/>
<path fill="#85E6D6" d="M420,104c-0.4,0-0.8,0-1.1,0c-0.8-1.2-2.4-1.3-3.3-2.3c0-0.4-0.1-0.7-0.1-1.1c0.3-0.2,0.6-0.6,0.9-0.6
	c1.9,0.1,3.4-3.2,5.1-1.3C423,100.4,420.7,102.2,420,104z"/>
<path fill="#E1F8F5" d="M186.6,458.6c1.1-0.2,1.9-1.5,3.2-1.1c-2.9,2.3-2.1,7.6-6.6,8.7c-0.2-2.2,2.6-3.2,2.2-5.5
	C185.9,460,186.2,459.3,186.6,458.6z"/>
<path fill="#52DCC5" d="M306.6,470.5c0,0.8-0.1,1.6-0.1,2.4c-0.7-1.1-1.4-2.3-2.1-3.4c-0.8-1.7-1.5-0.9-2.3,0c-0.3,0-0.6,0-0.9,0
	c0-1.8-0.1-4.1,2.3-3.9C305.9,465.9,306.1,468.5,306.6,470.5z"/>
<path fill="#C4F2EA" d="M83,400.2c0.4,0,0.8,0,1.2,0c0.8,0.7,1.5,1.4,2.3,2.2c-0.7,0.3-1.5,0.4-1.9,0.8c-1.3,1.3-3,2.3-4.1,0.7
	C78.8,401.4,81.6,401.1,83,400.2z"/>
<path fill="#D4F6F0" d="M465.3,186.8c0.7-0.5,1.3-1,2-1.5c0,1.2-0.6,2.7-0.1,3.6c2.2,4.2-0.6,4-3.3,4.1
	C465.8,191.3,465.2,189,465.3,186.8z"/>
<path fill="#A1EBDF" d="M56.5,341.8c-0.3,0-0.6-0.1-0.9-0.1c-1.2-1.5-3-1-4.5-1c-4,0-3.6-1.9-2-4.4c0.4,0,0.8,0,1.2,0
	c-0.1,5,5.1,1.7,6.5,4.3C57.1,341.2,57.1,341.6,56.5,341.8z"/>
<path fill="#C1F2E9" d="M71,374.8c5.3-3.2,5.7,3.2,8.7,4.5c-2.1,0.4-4.5,1.1-4.8-2.1C74.6,374.4,72.6,375.1,71,374.8z"/>
<path fill="#96E9DB" d="M69.9,364.9c0.2,3-2.5,5.6-1.1,8.7C64.7,370.2,65.3,367.3,69.9,364.9z"/>
<path fill="#B2EFE4" d="M329.9,55.7c-3.6-1.2-2.8-3.3-1.2-5.6c1.4,0.7-0.9,3.8,2.2,3.3c1.8,1.5,3.7,0,5.5,0c0,0.4,0,0.8,0,1.2
	C334.4,56.5,332,55,329.9,55.7z"/>
<path fill="#B9F0E7" d="M458.5,178.8c-2.8-0.8-5.6-1.6-8.6-1.2c-1.1,0.1-2.3-0.2-2.2-1.7c0-1.2,1-1.4,1.9-1.5
	c-0.9,2.4,0.7,2.2,2.2,2.2C454.3,176.7,457.1,175.8,458.5,178.8z"/>
<path fill="#B7F0E7" d="M456.1,344.1c0.1-0.4,0.2-0.9,0.3-1.3c2.5,0.5,4.2,2.1,4.9,4.3c0.5,1.7-1.2,2.3-2.7,2.5
	c-0.2-0.2-0.3-0.4-0.5-0.5c0.1-1.4,0.6-2.9-0.9-3.9C456.9,344.9,456.5,344.5,456.1,344.1z"/>
<path fill="#83E5D5" d="M131.4,444.1c0.1,1.6,0,3.3,2.3,3.4c-0.9,1.5-2.3,3.1-3.7,1.5C128.4,447.2,129.4,445.3,131.4,444.1z"/>
<path fill="#D7F6F1" d="M158,461.8c0-0.4-0.1-0.9-0.1-1.3c-0.4-3,3.3-3.7,3.5-6.4c0.2-0.3,0.5-0.5,0.8-0.7c0.4,0.2,0.8,0.5,1.3,0.7
	C162.2,457.2,161.2,460.3,158,461.8z"/>
<path fill="#7FE5D4" d="M278,50c-0.4,0-0.8,0-1.2,0c1.1-3.7,2.2-7.4,3.3-11.1c1.6,3.2,0.2,6-1,8.9C278.7,48.5,278.3,49.3,278,50z"/>
<path fill="#B7F0E7" d="M451.8,355c-0.3-1.8-0.7-3.5-1-5.3c2.4-1.3,5-0.6,7.5-0.4c0,0,0.3,0.4,0.3,0.4
	C455.5,350.3,452.6,351.3,451.8,355z"/>
<path fill="#EFFBF9" d="M422.2,415.5c2.4,0.2,1.9-2.4,3.2-3.2c-0.1,1.7,2.2,3.7-0.5,5.1C423.2,418.2,422.3,417.3,422.2,415.5z"/>
<path fill="#BBF1E8" d="M97.3,419.9c1,4.3,3.6,0.9,5.4,1.1c-1,2.2-2.8,3.5-5,2.7C96,423.1,95.7,421.4,97.3,419.9z"/>
<path fill="#B3EFE5" d="M236.1,37.9c0,1.5,0.1,3.2-2,3.2c-2.8,0-4.3-1.5-4.6-4.3C231.7,37.5,233.1,42.2,236.1,37.9z"/>
<path fill="#EAFAF7" d="M483.8,257c0.3-3.2-2.9-2.9-4.4-4.3c1.8-0.1,3.6-0.2,5.1,0.9C486.7,255.2,486.5,256.4,483.8,257z"/>
<path fill="#2CD4B8" d="M438.7,364.9c0.8,0,1.6-0.1,2.4-0.1c1.7,1.2,3.4,2.3,5.1,3.5c0.1,0.7,0.2,1.4,0.2,2.1
	C443.9,368.6,441.3,366.8,438.7,364.9z"/>
<path fill="#F1FBFA" d="M31.3,244.9c0,0.3,0.1,0.7,0.2,1c-2.2,0-4.5,0-5.3-2.5c-0.5-1.3,0.8-1.7,1.9-1.9
	C29.2,242.7,29.8,244.2,31.3,244.9z"/>
<path fill="#F3FCFA" d="M235,28.1c2.1-1.4,3.5-1.5,5.2-0.1C238.6,29.4,237.2,29.4,235,28.1z"/>
<path fill="#58DDC7" d="M279,47.8c0.1-3,1.9-5.8,1-8.9c-0.1-0.3,0-0.6,0.1-1c0.3,0,0.7,0,1,0C281.1,41.3,282.3,45,279,47.8z"/>
<path fill="#BBF1E8" d="M104,419.9c0-0.4-0.1-0.9-0.1-1.3c1.6-1.8,3-3.8,5.7-4.1C108.5,417.2,106.3,418.6,104,419.9z"/>
<path fill="#95E9DB" d="M114.9,420.1c1.1,0.7,2.2,1.4,3.4,2.1c0,1.4,0,2.8,0,4.3c-0.7,0.4-1.5,0.7-2.2,1.1
	C118.1,424.7,115.7,422.5,114.9,420.1z"/>
<path fill="#EDFBF8" d="M464,166.7c1-1.7,3-3.2,1.1-5.5c1.6,0.1,3.2,0.5,2.9,2.4C467.7,165.6,466.1,166.6,464,166.7z"/>
<path fill="#BFF1E9" d="M473.9,211.8c0.9-1.3,1.4-2.7,1.1-4.3c1.4,0.1,2.4,0.7,2,2.2C476.6,211.3,475.4,211.9,473.9,211.8z"/>
<path fill="#BDF1E8" d="M262.6,36.8c0,0.4,0,0.7,0,1.1c-2.1-0.4-3.2,1-4.3,2.3C258.1,37.1,258.7,35,262.6,36.8z"/>
<path fill="#D5F6F0" d="M31.3,244.9c-2.1-0.1-3.2-1.3-3.2-3.3c0.7-0.4,1.5-0.7,2.2-1.1C30.1,242.1,30.6,243.5,31.3,244.9z"/>
<path fill="#B8F0E7" d="M475,287.8c0.7-1.1,0.7-2.2,0-3.3c1.3,0.1,2.8,0.1,2.6,1.9C477.4,287.7,476.1,287.8,475,287.8z"/>
<path fill="#D5F6F0" d="M39.1,237.3c-2,1.6-4.4,0.8-6.7,1C34.4,236.4,36.9,237.5,39.1,237.3z"/>
<path fill="#DEF8F3" d="M108.3,88.5c0.1,2.2,0.1,4.4,0.2,6.6C106.6,93,106.9,90.8,108.3,88.5z"/>
<path fill="#A4ECE0" d="M159.9,52c1.6-2.3,3.2-2.3,4.8,0c-0.2,0.2-0.3,0.3-0.5,0.5c-1.3,0.4-2.5,0.4-3.8,0
	C160.3,52.3,160.1,52.2,159.9,52z"/>
<path fill="#66E0CC" d="M65.5,144.7c0.7,0,1.4,0.1,2.1,0.1c0.8,1.3,2.3,1,3.5,1.3C68.6,148.1,66.9,147.1,65.5,144.7z"/>
<path fill="#A9EDE2" d="M472.8,260.3c1.6-1.7,3.7-0.8,5.5-1C476.8,261,474.7,260.2,472.8,260.3z"/>
<path fill="#DEF8F3" d="M330.8,53.4c-3.7,0.8-1.7-2.1-2.2-3.3c0,0,0,0,0,0c0.3-0.5,0.7-0.5,1-0.1c0,0,0.1,0.1,0.1,0.1
	C329.7,51.3,329.5,52.6,330.8,53.4z"/>
<path fill="#A6ECE1" d="M239.4,475c1.8,1.5,1,3.6,1.1,5.5C238.8,479,239.5,476.9,239.4,475z"/>
<path fill="#C6F3EB" d="M261.3,477.3c1.1,0,2.3-0.1,3.4-0.1C263.7,480.6,262.5,478.8,261.3,477.3z"/>
<path fill="#2DD4B8" d="M415.5,101.7c2.4-1.2,3.8-0.9,3.3,2.3c-0.2,0.1-0.4,0.2-0.6,0.2c-1.9,0.2,0.2,3.7-2.6,3.2
	c-3.1-2.8-4.2-6.1-5.1-10.3c-0.5-2.2-5.9-4.8-10.3-2.9c0-0.6,0-1.2,0-1.8c1.7-1,3.4-1.9,5.4-3c0.5,3.3,0.1,7.2,5,3.5
	c1.9-1.5,2.8,0.6,2.6,2.5c-0.2,1.8-0.8,3.6-0.8,5.4C412.5,102.9,413.7,103.6,415.5,101.7z"/>
<path fill="#2CD4B8" d="M448.5,371.7c1.7,0.5,2,1.8,1.8,3.7c-3.9-1.1-8-1.8-11.5-3.4c-4.2-1.9-4.8-0.1-4.7,3.4c0.1,2,0.1,4,0.2,6
	c-0.2,3.3,3.5,4,4.4,6.6c-4-0.9-5.7-3.5-5.6-7.5c0.1-2,0-4,0-6c0.1-5.5,1.5-6.3,6.8-4C442.6,371.6,445.2,374,448.5,371.7z"/>
<path fill="#5BDDC8" d="M47.9,255.9c-0.4,0-0.8,0-1.2-0.1c-0.1-3-2.3-3-4.5-3.5c-3.4-0.7-6.1-2.2-5.3-6.4c-0.1-0.9-0.4-1.7-1.4-2
	c-1.4-0.4-3.1-0.8-2.6-2.7c0.5-1.9,2.3-2,3.9-1.9c2.1,3.5-0.6,9.5,5.5,11c1.6,1.3,4.4-0.4,5.5,2.2C47.8,253.7,47.9,254.8,47.9,255.9
	z"/>
<path fill="#3ED8BE" d="M56.5,341.8c0.1-0.4,0.2-0.8,0.3-1.2c1.5,2.1,2.7,3.5,6,2.2c2.9-1.2,5.3,2,6.6,4.2c1.3,2.2,0.4,4.9-2.8,5.8
	c0.4-1.1,0.7-2.2,1.1-3.3c-0.1-3.9-2.2-5.2-5.9-4.5C59.2,345.5,56.7,345.6,56.5,341.8z"/>
<path fill="#54DCC5" d="M363.9,73.2c4.9,2.1,5.2,6.8,6.6,11c0.9,2.7,3.4,2.1,5.6,2.3c-2.6,3.5-5.1,2.3-6.6-0.7
	c-1.8-3.7-1.5-8.5-6.4-10.4C362.4,75.1,363,73.7,363.9,73.2z"/>
<path fill="#66E0CC" d="M61.2,159.1c0-4.2-2.6-8.3-0.3-12.6c1.2-2.2,2-4,4.6-1.8c-2.8,2.7-6.2,5.2-3,9.8
	C63.6,156.3,64.3,158.3,61.2,159.1z"/>
<path fill="#65DFCB" d="M307.8,49.9c4.3,0.9,8-0.2,11.2-3.2c0.6,0,1.2,0,1.9,0c0.1,2.1-0.7,4.8-2.9,4.1
	C314.6,49.8,310.6,55.2,307.8,49.9z"/>
<path fill="#30D5B9" d="M463.1,308.9c-1.3,5.2,0.1,9.6,4.1,13.2c-5.2,0.6-5.2-3.5-5.8-6.7C461,313.1,458.6,310,463.1,308.9z"/>
<path fill="#52DCC5" d="M161.4,454.2c0.3,2.9-2.3,4.2-3.5,6.4c-2.3,0.4-3.7-0.3-2.6-2.8c0.7-1.6,1.7-3.1,1.9-4.9
	C158.1,455.1,159,457,161.4,454.2z"/>
<path fill="#2BD4B8" d="M196.6,49.1c3.7-0.8,2.4-5.5,5.4-6.8c-1.1,4-0.1,9.4-6.5,10c0.3-0.8,0.7-1.6,1-2.4
	C196.5,49.6,196.5,49.4,196.6,49.1z"/>
<path fill="#24D3B5" d="M160.5,52.5c1.3-0.6,2.5-0.6,3.8,0c0.1,0.6,0.3,1.2,0.4,1.8c-1.7-0.5-3.8-1.9-2.6,1.9
	c0.9,3.1,0.3,5.7-3.3,6.8C161.7,60,160.4,56.1,160.5,52.5z"/>
<path fill="#5ADDC8" d="M96.2,404.7c-1.8-0.2-3.6-0.6-5.2,0.5c-4.1,2.8-3.4-0.6-3.6-2.8C89.6,405.7,93.9,401.3,96.2,404.7z"/>
<path fill="#57DDC6" d="M458.3,349.2c-2.5,0.1-5,0.3-7.5,0.4c0.7-1.6,2.3-1.1,3.5-1.4c2.3,0.3,3.4-0.5,2.9-3
	C459.8,346,459.9,347.4,458.3,349.2z"/>
<path fill="#42D8BF" d="M122.7,79.1c2.8-1.6,5.5-3.4,7.9,0.6c0,0.4-0.1,0.8-0.1,1.2c-2.2-2.8-5.1-1.2-7.7-1.1
	C122.7,79.6,122.7,79.3,122.7,79.1z"/>
<path fill="#7BE4D2" d="M430.8,129.4c0.3,3.5,2.8,2.3,4.7,2.2c-4.6,5.8-5.1,0.2-6.7-2.4C429.5,129.3,430.2,129.4,430.8,129.4z"/>
<path fill="#52DBC5" d="M221.7,472.7c-0.1,1.6,0.3,3.5-0.4,4.8c-1.1,2-3,3.3-3.7-0.5C221.3,477.9,220.3,474.1,221.7,472.7z"/>
<path fill="#37D6BC" d="M415.6,107.3c1.4-0.6,0.8-2.9,2.6-3.2c-1.6,3,0.9,5.7,0.7,8.7c-0.3,0.1-0.6,0.1-0.9,0.2
	C417.1,111.1,416.4,109.2,415.6,107.3z"/>
<path fill="#1ED2B3" d="M71.9,369.2c-0.6-1.4-1.2-2.7-0.9-4.2c1.4-1.3,1-2.8,0.5-4.3C75,363.4,72.4,366.4,71.9,369.2z"/>
<path fill="#3BD7BD" d="M150.3,79.8c1.3-1.2,2.8-2.3,2.3-4.5c1.1,0.7,2.3,1.5,1.6,3C153.3,79.9,151.8,79.9,150.3,79.8z"/>
<path fill="#3BD7BD" d="M145.8,83.1c-1.5-1.5-1.7-3.3-0.4-4.9c0.8-1,1.9-0.6,2.5,0.6C144.8,79,146.3,81.5,145.8,83.1z"/>
<path fill="#2DD4B8" d="M47.8,252.6c-1.8-0.7-3.7-1.5-5.5-2.2C44.3,250.8,47.2,249,47.8,252.6z"/>
<path fill="#33D5BA" d="M42.4,298.9c-1.5,1.4-3.2,1.4-4.8,0.5c-0.7-0.4-0.1-1.2,0.6-1.5C39.2,299.5,40.9,298.6,42.4,298.9z"/>
<path fill="#B2EFE4" d="M329.7,50c-0.3,0-0.7,0-1,0.1c0-1.8-0.1-3.7-0.1-5.5C330.5,46,329.4,48.2,329.7,50z"/>
</svg>
