<?xml version="1.0" encoding="utf-8"?>
<!-- Generator: Adobe Illustrator 21.1.0, SVG Export Plug-In . SVG Version: 6.00 Build 0)  -->
<svg version="1.1" id="图层_1" xmlns="http://www.w3.org/2000/svg" xmlns:xlink="http://www.w3.org/1999/xlink" x="0px" y="0px"
	 viewBox="0 0 1024 1024" enable-background="new 0 0 1024 1024" xml:space="preserve">
<path fill="#4EFE00" d="M972.5,549.5c-2.9,64.8-22.3,125-52.7,181.7c-39,72.8-94.1,131-164.3,174.6c-2.6,1.6-5.6,2.8-8.4,4.2
	c-9.9,3.1-11.1-6-14-11c-24.5-41.6-48.5-83.6-73-125.2c-40.4-68.9-79.4-138.7-120.6-207.2c-1.7-2.8-3.9-5-6.2-7.1
	c-1.9-1.9-3.2-4.1-3.8-6.7c-0.8-7.8-5.5-13.6-10.3-19.3c-2.7-3.9-6.8-6.9-8.3-11.6c-0.6-4.1-0.3-7.9,3.8-10.4
	c5.2-2.3,10.7-2,16.1-1.7c40.1,2.3,80.2,4.2,120.3,6.6c34.7,2.1,69.3,5.8,104.2,6.7c42,1.1,83.8,6.3,125.8,8.9
	c25.7,1.6,51.4,3.8,77.1,4.6C965.9,536.8,976.4,535.7,972.5,549.5z"/>
<path fill="#FEA800" d="M106.1,290.9c8.1-17.6,18.5-33.8,30.6-48.8c7.3-1.7,11.9,3.4,16.9,7c105.4,77.3,212.3,152.3,317.7,229.5
	c4,2.9,8.1,5.7,12.8,7.6c7.9,5.5,16.2,10.4,21.5,18.8c0,6-4.4,5.3-8.2,5.4c-1.2-0.2-2.4-0.7-3.5-1.3c-1-0.7-1.9-1.5-2.8-2.3
	c-5.4-5.1-13.3-5.9-18.8-10.7c-47.7-27.5-96.8-52.6-145.3-78.7c-70.4-37.8-141.1-75.1-211.5-112.9
	C110.3,301.7,102.4,299.9,106.1,290.9z"/>
<path fill="#54FE00" d="M972.5,549.5c0.3-7.2-3.4-8.8-10.1-9.1c-35.5-1.5-71-2.7-106.4-5.5c-43-3.4-85.9-6.9-129-8.5
	c-39-1.5-77.8-6.1-116.9-8c-32.3-1.6-64.5-5.4-96.9-5c-1.2,0.8-2.2,0.7-3.2-0.3c0-1.4,0.5-2.5,1.4-3.5c1.1-0.8,2.4-1.3,3.7-1.7
	c1.4-0.4,2.8-0.5,4.2-0.6c5.3-0.2,10.5-0.3,15.8-0.4c26.3,0.9,52.2-2.3,78.4-4.2c16.5-1.2,33.3-0.3,50-1.1
	c43.3-1.9,86.7-3.7,130-6.4c53.2-3.4,106.6-2.4,159.7-7.4c16.9-1.6,19.2,0.7,21.1,17.3C974.9,520,976.1,534.8,972.5,549.5z"/>
<path fill="#FEFD00" d="M573.1,54.2c16.8,0,32.9,4,48.9,8.8c3.8,5.4,0.6,10.5-0.7,15.6C589.9,201.7,563,325.9,531.2,449
	c-0.5,1.8-0.4,3.6-0.6,5.4c-0.6,5.6-2.6,10.9-3.5,16.5c-0.3,1.4-0.7,2.7-1.2,4.1c-1.7,4.6-2.7,9.5-5,13.8c-2,3.8-4.4,4-6.8,0.2
	c-4.4-12.7,0.3-25.2,1.9-37.5c16.8-126.7,34.2-253.3,50.6-380C567.3,65.2,567.7,58.8,573.1,54.2z"/>
<path fill="#FDAC00" d="M106.1,290.9c0,4.9,3.3,6.9,7.1,8.9c41.4,22,82.8,44.1,124.2,66.2c78.4,41.9,156.7,83.8,235,125.7
	c1.1,0.6,2,1.8,2.9,2.7c-2.8,2.8-6.1,3-9.7,2.2c-1.4-0.3-2.6-0.9-3.9-1.5c-71.1-31.3-142.9-60.9-214.3-91.2
	c-50.3-21.4-100.6-42.6-150.8-64.3c-4.1-1.8-8.5-3.3-10.1-8.3C90.5,316.6,98.2,303.7,106.1,290.9z"/>
<path fill="#59FE00" d="M974.4,505.2c-4.5-14.3-8.2-16.7-25.8-12.9c-8.6,1.9-17,1.8-25.5,2.1c-50.9,1.8-101.8,2.8-152.7,5.7
	c-36,2.1-71.9,4.4-107.9,5.3c-43.4,1-86.8,5.5-130.3,5.3c-0.8-1.7-0.5-3,1-4.2c1.4-0.9,2.9-1.5,4.5-1.8
	c61.9-7.3,123.6-15.8,185.4-23.6c77.1-9.8,154.3-19.5,231.4-29.9c8.7-1.2,16.7-1.5,17.2,10.5C973.7,476.1,975.6,490.6,974.4,505.2z"
	/>
<path fill="#FDB000" d="M86.6,331.3c57.2,24.4,114.4,48.8,171.7,73.2c41.5,17.7,82.9,35.4,124.4,53c24,10.2,48,20.4,72.1,30.5
	c3.7,1.6,8,1.9,9.7,6.4c-10.6,4.9-20.5,0.3-29.8-3.2c-65.8-24.2-133.1-43.5-199.4-66c-49.2-16.7-98.8-32.1-148-48.8
	c-5.2-1.8-13.4-0.9-13.9-9.9C75.6,354,80.8,342.5,86.6,331.3z"/>
<path fill="#53FE00" d="M535.1,556.8c13.3,12,19.6,28.7,28.4,43.6c58.7,100.4,117,201.1,175.4,301.6c2,3.4,3.1,7.8,8.3,7.9
	c-10.4,9-23.6,12.8-35.6,19c-13.5-16.7-20.6-36.8-29.7-55.8c-16.1-33.3-31.8-66.8-48.3-99.9c-22.7-45.6-44.9-91.5-66.1-137.9
	c-9.9-21.7-23-42-30.8-64.7C535,566.2,531.2,561.9,535.1,556.8z"/>
<path fill="#FEF900" d="M573.1,54.2c-7.3,56-14.2,112.1-21.9,168c-7.6,55.5-16.6,110.8-23.6,166.4c-4.3,34.3-10.5,68.3-11.6,103
	c-0.8,0.2-1.6,0.3-2.4,0.5c-1.3-1-2.3-2.3-2.9-3.9c-3.8-17.7,2.1-35,2-52.5c-0.2-21,3.3-41.9,2.3-62.9c-0.6-13.6,2-27,2.8-40.5
	c4.1-66.7,8.2-133.4,10.9-200.2c0.8-20.2,0.6-40.7,4.1-60.8c1.5-8.6-3-14.6-5.7-21.5C542.6,49.3,558,50.6,573.1,54.2z"/>
<path fill="#FEF500" d="M527.1,49.7c10.2,1.9,12.9,8.8,10.5,17.6c-5.4,19.9-3.2,40.4-4.3,60.5c-1.6,29.2-2.2,58.7-4.2,87.8
	c-3.3,48.4-5.2,96.9-9.1,145.4c-1.6,20.3-3.6,41.2-2.3,62.3c1.4,22.5-5.5,45.4-4.3,68.5c3.3,3.7,3.7,8,3.1,12.6
	c-0.4,2.3-1.6,4.2-3.3,5.7c-0.7,0.4-1.4,0.6-2.2,0.8c-0.5-0.5-1.1-0.9-1.6-1.4c-0.8-1.2-1.2-2.6-1.4-4c-0.5-2.2-0.8-4.3-0.8-6.5
	c-0.2-7.7-0.2-15.5-0.3-23.2c1.2-80.9-3.2-161.8-4.1-242.7c-0.6-48.8-0.8-97.6-1.8-146.4c-0.1-4.5-0.2-9-0.5-13.6
	c-0.7-10.1-4-17.5-16-17.4c-3.6,0-7.2-1-9.6-4.2C492.1,47.7,509.6,49.1,527.1,49.7z"/>
<path fill="#5EFE00" d="M971.7,461.7c-2.7-6.7-6.9-8.6-14.6-7.4c-38.5,5.7-77.1,10.6-115.7,15.7c-39.5,5.2-78.9,10.6-118.4,15.6
	c-31.5,4-63.1,7.6-94.6,11.6c-25.3,3.2-50.5,6.8-75.8,9.9c-5.8,0.7-11.7,0.6-17.5,0.9c7.5-10.5,19.8-8.6,30.1-11.8
	c27.3-3.8,54-10.5,81-15.8c82.5-16.4,164.7-33.6,247.2-49.9c19.5-3.9,38.7-9.1,58.5-11.7c6.8-0.9,12.8-0.9,14.5,7.7
	C969.6,438,971.3,449.8,971.7,461.7z"/>
<path fill="#FCDD00" d="M76,665.5c-5.4-10.3-8.3-21.3-10.4-32.6c3.6-4.7,9.2-5.5,14.3-6.9c108.9-29.6,217.5-59.9,326.5-89.1
	c14.4-3.8,28.9-7.2,43-12.1c4.2-1.2,8.4-2.6,12.7-3.5c3.7-0.4,7.4-0.3,10.5,2.3c-1.4,10.1-10.8,9.7-17.3,12
	c-31.9,11.4-63.7,22.9-95.7,34c-89.5,31.2-178.6,63.7-268.3,94.2C86.5,665.5,81.6,669.3,76,665.5z"/>
<path fill="#FDCF00" d="M55,584c-1.7-9.9-4.3-19.7-3.2-29.9c7.1-5.9,15.8-6,24.3-6.7c57-4.9,114-10.5,171.1-15.4
	c53.9-4.6,107.7-10.7,161.6-14.8c15.2-1.1,30.5-1.3,45.6-4.2c8.2-1.6,17.1-2.4,25.2,1.7c3,4.8-0.9,6.2-4.1,6.5
	c-4.7,0.5-9.3,1.5-14.1,1.6c-129.4,21.9-259,42.4-388.5,63C67,586.8,60.6,589,55,584z"/>
<path fill="#FBE400" d="M76,665.5c114.6-40.5,229.2-81,343.7-121.5c17.7-6.3,36.4-10.2,52.9-19.8c5.1-3.2,9.6-8.3,16.6-5.9
	c2.8,5.8-1.3,8.4-5.4,10.2c-7.3,3.3-13.9,8.1-21.3,11.1c-5.8,1.8-11.2,4.6-17.1,6.3c-14.7,2.5-27.4,10.3-40.9,15.9
	c-68.3,29-136.7,57.6-204.6,87.6c-33.1,14.6-66.5,28.5-99.7,43c-4.6,2-9.3,3.9-14.1,0.5C81.8,684.2,77.9,675.2,76,665.5z"/>
<path fill="#FECB00" d="M480.8,516.1c-41.8,0.7-83.2,6.3-124.8,9.6c-34,2.7-67.9,6.2-101.8,9.5c-34.4,3.4-68.7,7.2-103,10.5
	c-24.1,2.3-48.3,3.8-72.5,5.8c-8.9,0.7-17.8,1.8-26.8,2.7c-2.8-12.5-3.1-25.2-2.3-37.9c9.2,2.9,18.5,3.3,27.9,1.5
	c2.6-0.5,5.4-0.5,8.1-0.4c65.9,1.7,131.7-4.3,197.6-2.8c23.1,0.5,46-0.4,68.8-4.2c12.5-2.1,25.2-1.5,37.7,0.7
	c10.3,1.8,20.6,1.3,30.9-0.1c22.5-2.9,45.1-1.2,67.6-1c3.5,0,7.3,0.8,8.9,4.9C492.2,520.7,486.4,517.3,480.8,516.1z"/>
<path fill="#F2F700" d="M163,815c-8.8-7.9-15.6-17.4-22.1-27.1c1.1-5.4,5.5-8,9.5-11c102.5-75.9,204.8-152,307-228.4
	c6.5-4.9,12.7-10.2,19-15.3c3.7-2.6,7-6.4,12.3-4.3c2.6,8.1-4.4,10.8-8.6,14.6c-8.2,7.4-18,13-24.7,22c-1.2,1.5-2.7,2.8-4.4,3.8
	c-8.1,2.7-13.2,9.4-19.2,14.7c-67.9,60-138.2,117.2-206.5,176.8C204.6,779,183.1,796.3,163,815z"/>
<path fill="#FEC700" d="M247.1,133.2c7.5-6.5,15.7-12,24.8-16.1c9.6-2.9,11,5.8,14.1,10.8c20.2,33.1,39.6,66.7,59.7,99.9
	c46.7,77.2,91.5,155.5,139.2,232.1c2.4,3.9,5,7.7,2.2,12.5c-8.8,1.1-10.8-6.7-14.3-11.6c-17.8-24.3-34.4-49.6-51.7-74.3
	c-56.5-80.6-111.9-162-168.6-242.5C250.1,140.6,247.4,137.5,247.1,133.2z"/>
<path fill="#FEF100" d="M474.7,51.5c1.8,0.1,3.6,0.2,5.4,0.2c23.9,0.3,25.3,0.9,24.9,24.6c-1.6,90.7,2.9,181.3,3.6,272
	c0.3,43.2,1.4,86.5,2,129.7c-6.4-0.7-6-5.9-6.2-10.1c-1.4-28.3-3.8-56.5-6.6-84.6c-3.5-33.6-5.5-67.2-8.7-100.8
	c-5.4-56.1-10.6-112.2-15.2-168.4c-1.3-15.3-2.3-30.6-4-45.8c-0.7-5.9-1.5-11.7,2.8-16.7C473.3,51.1,474,51,474.7,51.5z"/>
<path fill="#FEC600" d="M497.1,516.1c-3.1-3.7-7.5-2.7-11.4-2.6c-23.9,0.9-47.8-1.9-71.6,2.3c-9.5,1.7-19.6,0.1-29.5-1.7
	c-17-3.1-34.2,0.3-51.1,3c-5.8,0.9-11.5,1.9-17.4,1.8c-78.2-1.9-156.3,4.2-234.5,2.9c-5.3-0.1-10.6,1.6-15.9,2.5
	c-7.2,1.2-13.4,0.2-16.1-7.9c-0.3-13-1.8-26.1,1.8-38.9c5.1,10.9,14.1,12.6,25.4,13.1c73.5,3.2,147,7.5,220.6,8.5
	c45,0.6,90.1,3.5,135.2,5.8c20.2,1,40.5,0.4,60.6,3.8c5.5,2.6,11.8-1.4,17.3,2c0,0,0.6,0.3,0.6,0.3c-0.2,0.8-0.4,1.7-0.5,2.6
	c-0.2,1.8-1.2,3.1-2.6,4c-1,0.5-2.1,0.8-3.2,1c-2.3,0.3-4.5,0.1-6.5-1.1C497.8,516.9,497.4,516.5,497.1,516.1z"/>
<path fill="#FDB500" d="M73.3,366.5c6.9,5.4,15.6,6.6,23.6,9.3C170,400,243.1,424.5,316.4,448c38.6,12.4,77.3,24.5,115.3,38.6
	c10.6,3.9,21.6,6.1,32.7,7.8c5.2,3.5,13.8,0.3,16.6,8.5c-3.7,3.3-8,2.9-12.4,2.4c-1.5-0.2-2.9-0.6-4.2-1.2
	c-48.4-14.7-97.8-25.5-146.6-38.4c-79.1-20.9-158.3-41.1-237.5-61.5c-5.9-1.5-14.2-0.9-15.1-10.3C66.3,384.2,68.9,375.1,73.3,366.5z
	"/>
<path fill="#65FE00" d="M564.9,499.8c-10,2.7-19.9,5.4-29.9,8.1c-0.9,0-1.8,0-2.7,0c-3.3,2-6.4,2.4-8.8-1.3
	c0.8-6.3,5.1-9.2,10.6-10.9c5.1,0.3,10.1,0.1,15-1.6c3.9-0.7,7.7-2.1,11.6-2.9c16.8-3.4,32.8-9.9,49-15.2
	c53.2-17.3,106.4-34.6,159.4-52.7c54.7-18.6,109.7-36.2,164.6-54.2c6.6-2.2,14-5.8,19.2,3c2.9,7,5.9,14,5.7,21.8
	c-3.3,6.7-10.2,7-16.1,8.6c-93.9,25.1-188.1,49.1-281.9,74.4C628.8,485.5,596.5,491,564.9,499.8z"/>
<path fill="#E8FE00" d="M214.7,866.1c-8.2-5.3-15.1-12-21.6-19.2c-1.3-4.2,1.5-7,4-9.4c12.3-11.4,22.1-25,33.8-37
	c55-56.1,109.2-113,163.8-169.5c21.3-22,40.6-45.9,62.6-67.3c8.2-5.6,11.9-17.3,23.9-17.7c2.6,5.2-1,8.5-3.8,12
	c-32.4,39.5-65.7,78.1-98.4,117.3c-38.2,45.8-77.2,90.9-116,136.2C247.3,829.9,233,849.7,214.7,866.1z"/>
<path fill="#FED600" d="M318,92.6c8.1-5.2,16.9-9,26.3-11.3c8.2-0.9,9.1,5.8,11.1,11C388.7,179,421.6,266,455,352.7
	c13.6,35.3,25.9,71.1,40.9,105.9c1.3,3.5,1.6,7-0.3,10.4c-4.8,3.9-5.7-1.1-7.8-3.5c-1.5-2.3-3.4-4.4-4.4-7
	c-19.7-44-39.2-88.1-59.1-132C389,248.5,352.6,171,318,92.6z"/>
<path fill="#FEC200" d="M494.3,510.7c-36.1,1.4-72-2-108-3.3c-54.8-2-109.7-3.3-164.5-5.3c-53.8-2-107.7-5.4-161.5-7.6
	c-13.6-0.6-6.6-11.1-8.9-17.1c0.2-3.4,0.4-6.7,0.6-10.1c5.8-5,12.7-4.2,19.4-3.5c80.8,8.4,161.7,15.8,242.4,24.4
	c51,5.4,102.2,8.9,152.9,16.7c4.5,0.7,9,0.3,13.5,0.2c5.1-0.8,10-0.6,14.2,2.8c0.9,0.6,1.2,1.2,0.9,1.8
	C494.9,510.4,494.6,510.7,494.3,510.7z"/>
<path fill="#FEAD00" d="M483.5,489c-20.8-9.2-36.9-25.3-55.2-38.1c-51.6-36-102.5-73.1-153.5-109.9c-40.5-29.2-80.7-58.7-121.1-87.9
	c-5.5-4-11.3-7.3-17-11c4.7-8.3,10.5-15.7,17.3-22.4c5.5-2.3,8.3,2.2,11.6,4.9C224.9,273.1,284,322,343.7,370.1
	c39.3,31.7,78.3,63.8,117.4,95.8c2.1,1.7,4.5,3,7,4.1C474.7,475.1,483.5,478.4,483.5,489z"/>
<path fill="#FEC100" d="M247.1,133.2c13.4,11.8,21.5,27.7,31.5,41.9c43.8,62.3,86.1,125.6,130.1,187.8
	c25.8,36.6,49.5,74.7,77.6,109.8c1.9,0.2,3.5,1.2,4.8,2.6c1.7,2,2.8,4.2,3.1,6.8c0.2,2.7-0.1,5.2-2.1,7.3c-5.7,0.8-7.4-4.1-10.4-7.3
	c-2.7-6.5-9-10.6-11.8-17c-14.9-22.6-32.2-43.5-49-64.7c-41.9-52.6-83.9-105.3-125.2-158.4c-20.2-26-40.9-51.7-61.1-77.8
	c-3.5-4.6-7.9-8.8-9.3-14.8C231.7,142.9,238.9,137.5,247.1,133.2z"/>
<path fill="#F4F400" d="M478,535.1c-29.7,26.7-62.9,49.1-94.8,73c-66.9,50.1-134.5,99-201.4,149.2c-13.6,10.2-27.5,20.2-41,30.6
	c-6.6-7.5-12.3-15.5-16.8-24.3c26-19.5,53.5-36.8,80.8-54.5c55.1-35.6,109.9-71.4,164.4-107.9c23.3-15.6,47.5-29.8,70.7-45.5
	c5.2-3.5,10.5-7.1,15-11.6C462.8,541.5,467.9,531.9,478,535.1z"/>
<path fill="#FEB400" d="M483.5,480.8c1.8,3.7,4.5,6.4,8.2,8.1c4.5,0.8,7.5,4.3,11.2,6.5c2.5,2.2,4.4,4.7,3.5,8.3
	c-0.4,0.5-0.8,1-1.2,1.5c-7.2-5.4-14.5-10.9-21.7-16.3c-4.4-6.5-9.8-11.9-16.3-16.3c-28.1-24.7-56.1-49.4-84.1-74.2
	c-30.7-27.2-60-55.8-91.1-82.6c-23.6-20.3-46-41.9-69-62.8c-18.3-16.6-36.5-33.3-55.2-49.5c5.9-7.9,12.3-15.3,20.2-21.3
	c6.6-1.2,9.6,4.2,13.3,7.7c67.7,65.9,132.4,134.7,198.5,202.2C428.2,421.2,458.3,448.7,483.5,480.8z"/>
<path fill="#FEB900" d="M483.5,480.8c-27.9-26.3-55.3-53.1-81-81.7c-20.2-22.5-42.7-43-63.9-64.6c-46.6-47.3-93-94.8-139.6-142.2
	c-3.5-3.5-7.3-6.7-11-10c4.9-6.7,11.3-11.9,18-16.7c9.3-3.8,13.3,4.1,17.7,9c19.5,22,38.7,44.2,57.7,66.6
	c28.4,33.4,57.9,65.9,86.5,99.1c27.4,31.8,56,62.6,81.5,96c7.4,9.6,15.4,18.8,23.3,28.1C475.1,470.7,483.3,473.1,483.5,480.8z"/>
<path fill="#FEDB00" d="M494.3,459.1c-8.5-5.9-9.6-16.3-12.7-24.6c-41-112.2-84.8-223.3-127.6-334.8c-2.5-6.5-1.8-14.8-9.7-18.4
	c6.8-4.1,14.2-6.9,22.1-7.9c9.7-4.2,11.8,3.2,14,9.6c8.4,24.4,15.9,49,23.5,73.6c25,80.3,50.5,160.4,75.8,240.5
	c4.6,14.6,8.2,29.6,14,43.9c1.8,5.4,4.8,10.6,2.1,16.5C495.3,458.1,494.8,458.6,494.3,459.1z"/>
<path fill="#59FE00" d="M535.1,556.8c4.7,14.1,10.9,27.4,17.4,40.8c26.6,54.7,51.5,110.3,79,164.6c15.7,30.9,30.2,62.4,45.8,93.3
	c12.2,24.1,22.9,48.9,34.2,73.4c-7.6,4.9-15.6,8.7-24.4,10.8c-6-2.2-6.9-8.1-8.9-12.9c-35.3-86.5-70.4-173-106.1-259.3
	c-7.9-19.1-14.4-38.9-24.5-57.1c-4-9.8-8-19.6-12.9-29c-0.6-1-1.1-2.1-1.6-3.2c-1.3-4.9-1.7-10.3-6-13.9c-0.9-0.9-1.5-1.9-2.1-3
	c-0.7-1.8-1.1-3.7-1.2-5.6c-0.1-3.4,0.1-6.7,2.3-9.5c5.8-2.6,3.9,3.8,6.2,5.2C532.4,553.6,532.9,555.7,535.1,556.8z"/>
<path fill="#FDD400" d="M55,584c31.9-4.8,63.9-9.4,95.8-14.5c48.3-7.7,96.5-15.7,144.7-23.5c31.4-5.1,62.7-11.4,94.3-15
	c24.1-2.7,47.6-9.7,72-9.4c0.9,0.6,1.2,1.2,0.9,1.8c-0.3,0.6-0.6,0.9-0.9,0.9c-3.4,1.9-6.9,3.1-10.9,2.7
	c-123.7,31.6-249.1,56-373.7,83.8c-5.5,1.2-11.2,4.3-16.9,0.4C56.4,602.5,56.2,593.1,55,584z"/>
<path fill="#FEEC00" d="M472.6,51.7c3.5,38,7,76,10.3,114c2.1,23.3,3.9,46.6,6,69.8c3.4,37.5,8.6,75,9.9,112.6
	c1,28.5,5.8,56.6,6.6,85c0.4,15,0.7,30.3,5.2,44.9c0,8.2,0,16.3,0,24.5c-4.7,0.7-4-3.5-5.3-5.9c-1.2-8.3-3.8-16.4-3.9-25
	c-1.9-31.1-7.3-61.7-11.5-92.5c-7.2-53.1-15.8-106.1-23.6-159.1c-7.1-47.8-14.1-95.7-20.8-143.6c-1.1-7.6-2.9-15.3,2.6-22.1
	C456,51,464.3,51.6,472.6,51.7z"/>
<path fill="#FED100" d="M318,92.6c9.6,5.4,10.5,16.1,14.5,24.6c23.7,50.5,47,101.3,69.6,152.3c24.6,55.6,52.1,109.8,74,166.5
	c3,7.9,11.1,13.5,10.1,23.1c-10.4-2.4-11.7-12.7-15.5-19.9c-44.1-82.8-87.7-165.9-131.2-249c-12.7-24.4-24.3-49.4-38.6-73
	c-2.6-4.2-5.1-8.6-4.7-13.9C302.8,98.5,309.9,94.6,318,92.6z"/>
<path fill="#FECC00" d="M296.1,103.4c5.7,9.6,11.9,19,17.1,28.9c35.7,68.3,71.2,136.7,106.8,205.1c19.8,37.9,39.7,75.7,59.5,113.6
	c1.7,3.2,3,6.6,6.8,8.1c0.9,1.8,1.8,3.6,2.7,5.4c1.8,3.6,2.9,7.2,0,10.9c-0.9-0.9-1.8-1.8-2.7-2.7c-2.9-14.1-12.8-24.4-19.8-36.1
	C415.7,351,364.3,266,313.2,180.7c-10.2-17-19.8-34.3-30-51.3c-2.9-4.8-4.6-11-11.3-12.4C278.9,110.6,287.7,107.3,296.1,103.4z"/>
<path fill="#62FE00" d="M564.9,499.8c21.6-8.3,44.3-12.6,66.6-18.4c104.8-27.5,209.4-55.7,314.1-83.7c4.3-1.2,8.6-2.5,12.9-3.8
	c1.7,11.1,8.5,20.9,7.9,32.5c-3.3-4.2-6.8-5.7-12.8-4.4c-71.9,15-143.9,29.8-216,44.2c-54,10.8-108.3,20.6-162,33.1
	C572.3,500.1,568.5,499.7,564.9,499.8z"/>
<path fill="#F7F000" d="M456.3,546c-5.7,9.3-15.8,13.2-24.3,18.8c-98.1,64.4-196.3,128.6-294.5,192.9c-4.2,2.8-8.3,5.3-13.5,5.9
	c-5.1-5.8-9-12.3-12-19.5c1.7-5.9,6.9-8.1,11.5-10.8c81.2-46.8,162.1-94.2,243.4-140.8c6.3-3.6,12.4-7.4,18.3-11.4
	c1-0.7,2.2-1.3,3.3-1.9c10.1-4.6,20-9.4,28.8-16.4c11.2-7.5,21.7-16.2,35.5-18.8C454.3,544.3,455.4,545,456.3,546z"/>
<path fill="#EEFB00" d="M163,815c6.3-16.8,22.8-23.7,34.7-34.8c21.4-19.9,44.3-38.2,66.6-57.1c27.1-23,54.3-45.8,81.4-68.9
	c15.8-13.4,31.4-27,47-40.6c16.2-14.1,32.2-28.4,48.2-42.7c3-2.7,6.3-3.3,10-3.2c1.1,2.6-0.4,4.3-2,5.9
	c-34.7,36.2-71.2,70.6-107.5,105.1c-26.8,25.5-54.6,50.2-80.3,76.8c-22.6,23.4-47,45-70.5,67.5c-4.1,3.9-7.9,9.4-15.1,5.7
	C170.4,825,166.2,820.4,163,815z"/>
<path fill="#FEB000" d="M167.8,203.6c5.6,0.7,10.2,3.3,14.3,7c35.4,32.7,70,66.3,106.5,97.8c31.4,27,59.5,57.4,92.3,83
	c20.4,15.9,36.7,37,57.1,53.5c10.5,8.5,21.5,16.5,29.2,27.8c-15.2-6.5-25.8-19.2-38.3-29.1c-42.2-33.5-84-67.7-125.7-101.8
	c-38.3-31.3-76.2-63-114.4-94.4c-11.4-9.4-23.2-18.4-34.9-27.6C157.5,213.4,162.2,208.2,167.8,203.6z"/>
<path fill="#FDBE00" d="M480.8,508c-28.3-0.9-56.4-4.5-84.4-8c-19.5-2.4-39.2-3.6-58.7-5.6c-33.9-3.4-67.8-7.1-101.8-10.4
	c-31.3-3-62.6-5.7-93.9-8.6c-30-2.8-59.7-7.5-89.9-8.1c-0.3-12.2,1.6-24.1,5-35.8c5.8,7,13.4,9.8,22.3,11.1
	c69.3,10.1,138.6,20.8,207.8,31.7c33.4,5.3,66.6,11.7,100.3,15.3c1.5-0.1,3.1,0,4.6,0.2c21.1,5.6,42.8,7,64.3,10.3
	c3.5,1.5,7.6,0.3,11,2.5C470.6,507.1,479,499.3,480.8,508z"/>
<path fill="#6BFE00" d="M952.8,372.1c-6.6-5-13.1-1.4-19.3,0.7c-65.9,21.9-131.8,44.1-197.7,66c-55.6,18.4-111.2,36.6-166.9,54.7
	c-2.9,0.9-6.2,0.6-9.4,0.9c-0.6-0.7-0.9-1.4-0.8-2.1c0.1-0.8,0.2-1.2,0.4-1.2c0.9-0.9,1.9-1.5,3.1-2.1c3.5-1.3,6.9-2.8,10.2-4.5
	c1.2-0.6,2.4-1,3.7-1.3c32-11.9,63.4-25,95.2-37.3c41.7-13.5,81.5-31.5,122.5-46.8c44.4-16.6,88.4-34.1,132.7-50.9
	c5.8-2.2,11.8-5.2,17.9-0.4C945.3,356.5,952.6,363.1,952.8,372.1z"/>
<path fill="#FDD900" d="M60.3,611.1c74.5-16.3,149-32.6,223.5-48.9c50.8-11.1,101.7-22.3,152.4-33.7c4.9-1.1,9.7-1.5,14.7-1.6
	c-20.6,9.2-42.8,12.9-64.3,18.8c-100.4,27.7-200.9,55.1-301.4,82.6c-6.5,1.8-13.1,3-19.6,4.5C62.7,625.9,60.9,618.7,60.3,611.1z"/>
<path fill="#FEBD00" d="M472.6,464.5c-16.7-13.3-27.8-31.6-42.1-47.1c-22.5-24.4-43.6-50.2-65.4-75.3
	c-28.8-33.3-57.7-66.5-86.6-99.7c-19.8-22.7-39.5-45.4-59.5-68c-3.5-4-6.8-8.7-13.1-8.8c5.4-6.6,12-11.7,19.2-16.2
	c15,13.7,25.8,30.9,38.3,46.6c42.3,53,84.1,106.4,126,159.6c27.2,34.6,54.4,69.1,81.5,103.8C472.1,460.7,472.1,462.8,472.6,464.5z"
	/>
<path fill="#6EFE00" d="M526.9,556.8c0,1.8,0,3.6,0,5.4c5.2,8.3,5.1,18.3,8.5,27.2c6.1,30.5,14.4,60.5,22,90.7
	c21.5,85.9,41.8,172.1,63.3,258.1c1.9,7.6,4.3,14.7,9.6,20.5c-7.6,3.5-15.5,5.4-23.9,5.6c-12.1,2.4-10.6-7.9-11.7-13.8
	c-7.1-39.6-16.5-78.8-24.1-118.4c-16.8-87.9-34.1-175.7-51.4-263.4c-1.1-4.6-1.6-9.1,0.7-13.5C523.2,551.5,525,554.4,526.9,556.8z"
	/>
<path fill="#CDFE00" d="M317.8,931.5c-8-2.1-15.1-5.9-21.7-10.8c-3.3-4.1-0.9-7.8,1-11.3c22.9-42.1,45.3-84.4,67.6-126.8
	c15.2-28.8,29.8-57.9,45.5-86.3c14.2-25.7,25.9-52.7,42.1-77.3c4.3-6.5,6.8-13.8,8.6-21.3c3.9-13.6,15.7-23,19.9-36.5
	c0.5-1.2,1-2.3,1.7-3.4c4.4-3.7,3.9-12.7,12.6-11.7c4.3,10-4.8,16.7-6.2,25.3c-0.4,1.2-0.9,2.4-1.5,3.6c-8.7,13.5-12,29.6-21.1,43
	c-33.8,68-65.3,137-97.9,205.5c-12.2,25.7-23.9,51.6-36.7,77.1C326.6,910.7,321.4,920.7,317.8,931.5z"/>
<path fill="#E3FE00" d="M214.7,866.1c8.9-17.4,23.8-30.2,36-45c34.1-41.3,69.1-81.8,103.7-122.7c26.5-31.2,53.5-62,79.4-93.7
	c15.9-19.4,34.7-36.4,46.8-58.8c0-7.2,5.5-9.6,10.7-12.4c1.4,0.1,2.6,0.6,3.6,1.5c2.3,9.5-8.4,12.5-10,20
	c-12.7,12.5-19.2,29.8-32.7,41.7c-27.7,33.4-53.1,68.6-79.9,102.6c-43.9,55.7-86.9,112.2-129.8,168.6c-3.3,4.3-6.6,8.7-11.6,11.2
	C224.8,875.8,219.4,871.3,214.7,866.1z"/>
<path fill="#ECFC01" d="M175.5,828.8c5-0.1,8.1-3.4,11.4-6.5c25.6-24.8,51.3-49.5,77-74.3c24.4-23.5,48.4-47.4,73.3-70.3
	c36.5-33.7,72.8-67.4,107.8-102.6c2.2-2.2,4-4.8,6-7.3c0.9-0.9,1.8-1.8,2.7-2.7c1.8-1.6,3.6-1.4,5.4,0
	c-8.8,14.3-23.5,23.1-33.4,36.8c-10.2,14.1-23.3,26.2-35.5,38.8C351.8,680,313,719.1,274.9,758.8c-27.7,28.9-54.5,58.7-81.8,88.1
	C186.1,841.9,180.4,835.8,175.5,828.8z"/>
<path fill="#D8FE00" d="M483.5,559.6c0.3,10.5-7.8,16.9-12.2,25c-2.3,4.3-6.8,7.5-6.8,13C427.6,662.1,389.6,726,351.6,790
	c-21,35.3-41.4,70.9-62.6,106c-3.2,5.3-5.4,11.6-12,14.1c-6.3-2.1-11.7-5.8-16.6-10.1c-2.4-5.6,1.4-9.5,4-13.5
	c41.4-64.2,83.2-128,124.7-192.1c27.5-42.4,55.7-84.3,84-126.1C475.7,564.3,476.9,558.7,483.5,559.6z"/>
<path fill="#F9FE00" d="M526.9,456.4c4.8-31.2,14.4-61.2,21.7-91.8c22.5-94.1,45.2-188,67.8-282.1c1.6-6.6,3.6-13,5.5-19.5
	c6.7,0.3,13,2.1,19,5.2c3.8,4.6,1.9,9.4,0.5,14.1c-32.6,111.2-65.2,222.4-97.6,333.7c-2.9,9.9-5.6,20-8.6,29.9
	C533.9,450.1,533.9,456.2,526.9,456.4z"/>
<path fill="#A0FE00" d="M461.7,971.8c-7.2-0.9-14.4-1.9-21.6-2.8c-4.7-5-3.5-10.9-2.5-16.7c13.7-84.3,27.4-168.7,40.9-253
	c7.3-45.4,16.2-90.6,20.6-136.4c3-7.6-0.7-17.7,8.6-22.9c4.9,4.2,3.7,9.8,3.7,15.2c-0.1,1.5-0.4,3-0.7,4.4c-2.7,7-1.2,14.5-2.2,21.7
	c-0.1,1.5-0.4,3-0.8,4.4c-4.3,43.4-10.8,86.5-15,130c-5.6,57.8-13.2,115.4-20.4,173.1C468.6,916.4,467.1,944.3,461.7,971.8z"/>
<path fill="#74FE00" d="M521.5,567.7c9,28.2,12.6,57.5,18.7,86.3c10.2,48.6,19.1,97.6,28.6,146.4c9.7,49.7,19.2,99.4,29.4,149
	c1.1,5.2-0.8,13.6,8.3,15.1c-4.2,3-9,2.7-13.7,2.6c-13.2,1.4-14.8,0.3-17.4-15.2c-6.7-40.5-13.5-81-19.7-121.6
	c-7.9-52.1-15.7-104.2-23.2-156.4c-4.1-28.5-9.4-56.8-12.3-85.5c-0.5-1.4-0.8-2.9-1.1-4.3c-0.7-5-1.4-10.1,1-14.9
	C520.5,568.7,521,568.2,521.5,567.7z"/>
<path fill="#FEE000" d="M491.6,442.8c-11.6-24.5-17.1-51-25.7-76.5c-15.6-46.5-29.7-93.4-44.4-140.2
	c-14.8-47.2-29.5-94.5-44.3-141.6c-1.7-5.3-2.2-12.2-10.8-11.1c7.7-4.3,16.2-6.2,24.8-7.7c8.3,4.5,8.9,13.3,10.9,20.8
	c15.2,56.1,29.7,112.5,45,168.6c12.7,46.9,24.4,94.1,38.7,140.6c0.5,1.4,0.8,2.9,1,4.3c-0.5,9.3,4.8,17.3,6.4,26.2
	C494.2,432,496.5,437.7,491.6,442.8z"/>
<path fill="#D3FE00" d="M277,910.1c30.7-52,61.5-104,92.1-156.1c25.9-43.9,51.4-88,77.7-131.6c5.2-8.6,8.5-18.9,17.6-24.8
	c-2.2,10.3-7.3,19.1-12.4,28.3c-18.1,32.6-35.4,65.7-52.9,98.7c-25.4,47.7-50.7,95.5-75.9,143.3c-9.2,17.5-18.1,35.2-27.1,52.8
	C289,918.5,282.7,914.9,277,910.1z"/>
<path fill="#E2FE00" d="M708.8,95.6c7.9-1.2,13.2,4,19,7.7c-3.5,17.1-13.2,31.5-21.2,46.5c-22.8,42.6-44.7,85.6-67.7,128.1
	c-17,31.3-32.1,63.7-50.6,94.1c-4.7,7.7-7,16.6-10.6,24.9c-12.2,25.5-27.5,49.4-40,74.8c-2.2,4.5-3.9,10.7-11.3,9.1
	c-2.8-6.3,1.3-11.3,3.5-16.5c11.9-27.6,24.3-55,38.5-81.6c17.4-27.5,28.6-58.1,42.6-87.3c11.1-23.1,22.4-46.2,33.2-69.5
	c17.9-38.8,37-77.2,54.9-116.1C701.5,104.7,703.4,98.9,708.8,95.6z"/>
<path fill="#FDB700" d="M467.2,502.5c-3.6,0-7.2,0-10.9,0c-12-2.1-23.8-5.3-36-6.4c-110.5-22.9-220.5-48.3-331.1-71.1
	c-10-2.1-20.8-2.5-29.3-9.5c-1-7.9,2.1-14.9,5.3-21.9c12.3,9.4,27.8,9.5,41.8,13.2c82,21.8,164.1,43,246.3,64.3
	c30.4,7.9,60.9,15.3,91.4,23C452.5,496.2,460.4,497.9,467.2,502.5z"/>
<path fill="#B9FE00" d="M380.3,955.4c-5.5-1.8-10.9-3.5-16.4-5.3c-7.1-4.7-3-10.7-1.3-15.7c15.1-44.5,30.2-89,46.2-133.2
	c14.7-40.8,27.9-82.1,41.9-123.1c11.9-35,24.2-69.9,36.7-104.7c4-8.4,4-18.8,13-24.6c4,7.3-0.1,14.5-1.6,20.9
	c-3.5,14.8-5.6,30.3-12.7,44.1c-6.2,20.6-12.9,41.1-19,61.8c-9.4,31.9-18.8,63.8-28.5,95.7c-16.8,55.7-34.1,111.3-50.3,167.2
	C386.6,944.6,385.4,951,380.3,955.4z"/>
<path fill="#F6FE00" d="M526.9,456.4c10.9-25.2,16.3-52.2,24.2-78.4c18.4-60.7,35.7-121.8,53.4-182.7
	c12.3-42.3,24.3-84.7,36.5-127.1c8.7,1.3,17,3.6,24.7,8c-5.6,8.3-9.1,17.5-12.2,27c-31.3,96.6-65.7,192.1-97.1,288.7
	c-3.5,10.7-7.2,21.3-9.7,32.3c-4.6,13.6-9.4,27.2-15.4,40.3c-1.5,3.2-1.2,8.5-7,8.3C523.2,466.9,526,461.8,526.9,456.4z"/>
<path fill="#DDFE00" d="M483.5,559.6c-9.3,5.7-13.2,15.8-18.8,24.3c-52,79.3-103.8,158.8-155.4,238.4
	c-16.7,25.7-32.6,51.8-48.9,77.7c-6-2.8-11.6-6.3-16.2-11.1c-2.4-6.3,2.2-10.2,5.2-14.4c66.9-93.4,132.7-187.6,201.5-279.6
	c12.6-12.2,17.9-30.2,32.6-40.7C485.2,555.9,485,557.7,483.5,559.6z"/>
<path fill="#DBFE00" d="M575.8,396.6c0.3-9.3,4.4-17.7,8.9-25.2c28.3-48.2,52.6-98.5,78.9-147.7c21.5-40.1,42.8-80.2,64.3-120.3
	c7.2,2.2,13.6,5.9,19.3,10.7c-13.9,27.9-30.7,54.2-46.5,81.1c-31.9,54.1-62.1,109.3-94.7,163.1c-3.6,4-7.5,7.8-9.1,13.2
	c-0.5,1.1-1.1,2.2-1.8,3.2c-3.6,3.9-5.3,8.9-7.9,13.5C584.8,392.5,582.7,398.1,575.8,396.6z"/>
<path fill="#BFFE00" d="M488.9,573.1c0.5,11.2-4.8,21-8.3,31.2c-20.4,60-41.1,119.9-61.8,179.8c-17.6,50.7-35.4,101.2-53,151.9
	c-1.6,4.5-4.6,9-1.9,14.2c-6.4-2.3-12.9-4.5-19.3-6.8c-3.2-5.1-0.4-9.7,1.4-14.2c20.4-50.2,38.4-101.3,58.5-151.7
	c10.5-26.3,22.3-52.4,29.9-79.8c17.8-41.3,33.3-83.5,51.7-124.6l0,0C487.1,571.9,488,571.8,488.9,573.1z"/>
<path fill="#A6FE00" d="M502.5,562.3c-1.7,34.6-10,68.3-14.9,102.5c-7.1,49.7-15.2,99.3-23.2,148.8c-5.6,35-12.3,69.8-17.5,104.8
	c-2.5,16.8-7.1,33.4-6.9,50.6c-4.6-0.8-9.1-1.7-13.7-2.5c-9.3-5.7-6-14.3-4.5-21.9c10-49.5,19.2-99.2,29.1-148.7
	c10.9-54.3,22.7-108.4,32-162.9c3.6-22.6,11.3-44.3,15.5-66.9C498.9,563.7,499.4,561.7,502.5,562.3z"/>
<path fill="#7FFE00" d="M573.9,970c-7.9,3.4-16.3,2.6-24.6,2.6c-1.5,1-3,0.9-4.4-0.1c-4.3-2.8-5.3-7.3-5.3-11.9
	c-0.1-29.3-4-58.5-5.6-87.7c-0.9-16.7-2.1-34-3.6-50.8c-1.4-16.7-3.8-33.8-3.1-50.9c0.7-15.7-2.4-31.3-3.5-47
	c-3-42.6-6.4-85.3-8.9-128c-0.7-12-5.9-23.9,0-35.9c7.8-2.9,4,3.8,5.2,6.3c0.7,5.8-1.4,11.8,1.4,17.4c5.7,46.8,12.1,93.6,17.9,140.5
	c9.2,74,16.9,148.1,25.4,222.2C565.8,955.3,567.1,963.7,573.9,970z"/>
<path fill="#CFFE00" d="M764.2,124.7c6.2,2.4,11.5,6.1,16,10.9c-21.4,22.8-36.8,50.1-54.8,75.4c-40.3,56.6-79.3,114.1-119.2,171
	c-11.1,15.9-22.8,31.4-32.6,48.2c-0.6,1.1-1.3,2.2-2,3.2c-2.3,2.8-4.8,5.6-6.7,8.8c-0.7,1.1-1.4,2.1-2.2,3
	c-5.3,2.9-5.1,14.1-15.1,10.1c2-12.9,11.1-22.4,17.2-33.1c8.8-15.6,19.8-29.9,28.6-45.7c10.6-12.4,18.4-26.7,27.2-40.4
	c33.6-52.1,67-104.3,100.1-156.7c9.2-14.5,18.1-29.2,27.4-43.6C751.5,130.3,754.2,121.6,764.2,124.7z"/>
<path fill="#C8FE00" d="M570.4,431.9c8.2-20.7,23.7-36.9,35.5-55.4c14.5-22.7,30.5-44.4,45.9-66.5c26.5-38,53.1-75.9,79.7-113.8
	c11.9-17,23.6-34.1,35.4-51c3.3-4.7,6-10.4,13.4-9.5c4.3,1.4,7.7,4.2,10.5,7.6c1.8,8.1-4.9,12.1-8.7,17.2
	c-56.3,75-113.3,149.5-169.5,224.6c-10,13.3-19.9,26.8-30.6,39.5C578.9,428.2,576.7,433.4,570.4,431.9z"/>
<path fill="#5EFE00" d="M548.6,608.4c7.5,3.7,7.7,11.8,10.4,18.2c41.6,101,82.9,202,124.3,303c1.4,3.3,2.5,6.7,3.8,10.1
	c-4,3.2-8.6,4.9-13.6,5.4c-8.2,3.1-8.8-4-10.5-8.4c-17.6-46.9-34.5-94.1-51.7-141.2c-20.6-56.4-40.9-112.9-61.5-169.3
	C547.7,620.6,543.7,614.7,548.6,608.4z"/>
<path fill="#8BFE00" d="M545.8,971.8c1.2,0.2,2.4,0.5,3.5,0.7c-14.6,3.7-29.4,2.3-44.1,1.9c-1.2-1.3-2-2.9-2.3-4.7
	c1.4-34.8,0.3-69.6,0.8-104.3c0.7-47.9,3.9-95.7,3-143.6c-0.9-50.9-0.1-101.9,1.3-152.8c0.1-3.2,0-6.3,1.1-9.4c0-8.4,2-17-2.7-24.9
	c-0.6-1.4-1-2.8-1.3-4.3c-0.5-2.9-0.6-5.8-0.2-8.8c0.3-2.2,1.4-4.1,2.7-5.8c1-0.9,1.9-1.8,2.9-2.6c0.9,0,1.9,0,2.8,0.1
	c0.1,3.6,0.1,7.2,0.2,10.8c2.7,3.6,3.5,7.7,3.6,12.1c-5.9,55.4,2.4,110.5,3.6,165.7c1.6,68.5,4.5,137,5.2,205.5
	c0.2,15.8,3.6,31.4,2.5,47.3C527.6,967.6,538.3,967.9,545.8,971.8z"/>
<path fill="#A5FE00" d="M848.4,195.2c3.9,3.2,8.2,6,9.4,11.4c-1.3,7.1-5.6,12.2-11,16.6c-45.5,36.9-88,77.2-131.9,116
	c-16.1,14.3-33.3,27.4-48.6,42.7c-26.7,22.2-52.3,45.6-78.5,68.3c-4.2,3.6-7.5,9.7-14.8,6.8c-2.2-6.1,2.7-9.1,6-12.4
	c34.2-34,69.1-67.2,105-99.4c18.4-16.5,35.4-34.6,53.4-51.6c32.7-30.9,65.5-61.9,98.6-92.4C839.5,198,842.2,192.8,848.4,195.2z"/>
<path fill="#ECFE00" d="M524.2,472.7c10.3-14.7,12.7-32.6,19-48.9c9.4-19.4,15-40.3,22.7-60.4c16.2-38.7,30.8-78,45.9-117.1
	c20-51.8,39.8-103.8,60.8-155.2c1.5-3.7,2.6-7.8,6.5-10c5.9,0.9,11.1,3.2,16,6.4c-5,23.9-16.7,45.3-26.1,67.5
	c-20.4,48-41.1,95.9-61.2,144.1c-12.7,27.9-24.7,56.1-37.5,84c-2.5,14.8-12.3,26.5-18,40c-8.2,19.3-17.7,38.2-25.4,57.8
	c0.1,3-1,3.8-3.6,2.1C522.7,479.4,522.1,475.9,524.2,472.7z"/>
<path fill="#79FE00" d="M573.9,970c-6.8,0-11.2-0.9-12-10.2c-3.6-37.9-8.7-75.7-12.9-113.6c-4-35.7-7.3-71.4-11.3-107
	c-4.1-36.5-9.4-72.9-12.8-109.5c-1.4-15.2-5-30.3-3.4-45.7c6.6,19.6,7.2,40.3,10.6,60.4c6.8,40.6,12.2,81.5,18.2,122.3
	c6.6,44.4,13.3,88.9,20.1,133.3c2.9,19,6.8,37.9,9.7,57c1.2,7.8,4.8,11.1,12.5,10.1C586.8,970.3,580.3,969.8,573.9,970z"/>
<path fill="#B7FE00" d="M815,163c4.7,2.6,8.5,6.1,11.6,10.5c-5.2,10.7-14.3,18.6-22.2,26.9c-28.1,29.3-55.2,59.5-82.8,89.3
	c-46.9,50.6-93.3,101.6-140.6,151.7c-1.2,1.3-2.1,2.9-3,4.5c-4.8,5.8-8.6,12.5-14.1,17.7c-9.1,6.3-13.4,18.9-26.3,20.4
	c-3.1-5,0.5-8.4,2.8-12.2c1.1-1.5,2.4-2.8,3.9-4c3.5-2.5,6-5.7,7.8-9.6c1-1.6,2.3-2.9,3.7-4c13.2-13.9,25.1-28.8,37.8-43.1
	c28.6-30.1,54.8-62.4,81.8-93.8c36.5-42.4,73.3-84.6,109.6-127.2c5.9-6.9,10.8-14.5,17.7-20.5C806.1,166.3,808.8,161.2,815,163z"/>
<path fill="#99FE00" d="M461.7,971.8c-6.1-10.1-0.2-20.4,0.6-30.2c3.4-37.3,9.2-74.3,13.6-111.5c3.8-31.6,6.7-63.3,10.3-94.8
	c4-34.7,8.4-69.3,12.7-103.9c1.9-15.8,1.4-32,6.3-47.4c3.9,4.2,2.7,9.4,2.6,14.2c-0.8,29.3-3.9,58.5-6,87.7
	c-2.2,30.1-3.9,60.4-6.2,90.5c-3.1,41.9-6.2,83.8-9.5,125.6c-1.4,17.6-3,35.1-3.9,52.7c-0.3,6.6,0.7,13.9-6.9,17.8
	C470.7,972.3,466.2,972.1,461.7,971.8z"/>
<path fill="#61FE00" d="M548.6,608.4c5.8,26.1,17,50.3,25.8,75.3c19.8,56.6,40.8,112.7,61.4,169c10.5,28.8,21.2,57.5,31.7,86.3
	c1.1,3.2,2,6,6,6.1c-5.7,3.8-12,5.8-18.9,5.8c-5.6-3.5-6.5-9.6-8.4-15C609.2,826.7,574.7,716.7,539,607c-2.9-9-7.5-18.3-4-28.4
	C542.9,587,546.6,597.3,548.6,608.4z"/>
<path fill="#F8EC00" d="M453.6,546c-13.1,3.8-23.3,13-35.3,19c-9.8,5.7-20,10.7-29.9,16.3C309.8,625.6,230.1,668,151,711.5
	c-14.5,8-28.8,16.8-44.9,21.7c-2.9-5.3-5.8-10.7-8.7-16c3.4-5.3,9.4-6.9,14.5-9.5c100.5-50.1,200.6-101.1,301.6-150.3
	c10.5-5.1,20.9-10.4,32-14.1c5.3-2.3,10-6.1,16.3-5.4C462.3,543.9,455.7,542.7,453.6,546z"/>
<path fill="#D5FE00" d="M764.2,124.7c-8,1.7-11,8.8-14.8,14.6c-35,54.9-69.8,110-104.7,165c-13.5,21.2-27.3,42.3-40.8,63.5
	c-2.5,3.9-4.8,7.7-9.1,9.7c-1.7-1.8-1.5-3.6,0-5.4v0c2.8-4.5,4.7-9.5,8.1-13.6c32.5-56.5,65-112.9,97.5-169.3
	c11.4-19.8,22.9-39.7,34.6-59.4c3.4-5.7,5.9-12.2,12.1-15.8C752.8,117.7,759.7,119.2,764.2,124.7z"/>
<path fill="#69FE00" d="M630.3,958.8c-6.1,0.1-9.6-1.7-11.2-8.7c-16.9-71.6-34-143.1-51.6-214.5c-11-44.8-22.9-89.4-34.3-134.1
	c-1-3.9-0.6-8-0.9-12.1c6.4-0.2,5,5.9,5.9,8.8c12.7,44.3,27.1,88.2,40.1,132.4c17.4,66.4,37.5,132.1,55.8,198.3
	c2.5,9,7.2,17.7,4.3,27.6C636.2,958.9,633.3,958.9,630.3,958.8z"/>
<path fill="#95FE00" d="M475.2,972.6c6.5-14,2.7-29.3,4.8-43.9c4.1-29.2,4-59,6.3-88.6c3.2-40.6,8-81.2,10.2-121.9
	c1.4-26.5,4.5-52.8,5.7-79.2c0.9-18.4,4.9-36.6,3-55.1c0-0.9,0-1.8,0-2.7c1.8-0.9,3.1-0.5,3.8,1.4c-0.6,66.7-1.2,133.5-5,200.1
	c-1.3,23-1.4,46-2.2,69c-1.2,34.3-4.4,68.5-3.9,102.9c0.1,7.4,1.1,13.3,7.3,17.7c0,0.7,0,1.5,0,2.2
	C495.1,974.8,485,975.8,475.2,972.6z"/>
<path fill="#B4FE00" d="M380.3,955.4c8.6-29.7,17.2-59.5,25.9-89.2c10.5-36.1,21.3-72.1,32.3-108c5.3-17.3,11.4-34.7,15.8-52.1
	c7.2-28,18.8-54.6,24-83.1c0.7-3.6,2.1-6.9,5.2-9.2c4.1,4.8,2.5,10,1.2,15.3c-25,100.7-50.6,201.3-77.9,301.4
	c-2.7,10-4.1,20.3-7.6,30.2C392.9,959,386.6,957.2,380.3,955.4z"/>
<path fill="#C1FE00" d="M594.8,412.9c-12.3,14.8-23.5,30.6-38,43.4c-3.5-6.7,3.9-8.9,5.4-13.6c2.5-3.8,5.8-7,8.1-10.9
	c18.6-17.8,32.2-39.5,47.6-59.9c57.7-76.2,115.2-152.5,172.7-228.8c5.6,2.6,10.2,6.5,14.1,11.2c-17.7,26.8-39.5,50.5-59.6,75.3
	c-29.6,36.5-59,73.2-89,109.4C635.9,363.8,615,388.1,594.8,412.9z"/>
<path fill="#E1FE00" d="M450.9,594.9c-8.7,19.5-23.1,35.1-35.2,52.3c-38.9,55.5-78.9,110.3-118.3,165.6
	c-18,25.2-35.5,50.8-53.2,76.2c-5.2-2.2-9.3-5.7-13.2-9.7c16.6-22.3,33-44.7,49.9-66.7c44.2-57.8,88.3-115.8,133.3-173.1
	C426,624.3,436.4,607.9,450.9,594.9z"/>
<path fill="#FEE800" d="M448.2,54.4c1.6,38.2,9.6,75.7,14.8,113.4c5.6,40.9,11.9,81.7,17.8,122.5c3,20.4,6.4,40.8,8.8,61.3
	c3.8,32.4,10.8,64.4,13,97c0.5,8,3.8,15.8,2.6,24.1c-4.2,0.4-5.4-2.8-5.8-5.7c-1.6-10.8-5.4-21.3-5-32.5
	c-8.7-50.1-17.8-100.1-26.4-150.2c-12-70.6-24.7-141.1-37-211.6c-0.9-5.2-2.7-10.7,0.8-15.7C436.9,53.8,442.6,54.3,448.2,54.4z"/>
<path fill="#B0FE00" d="M575.8,445.5c0-3.4,1.9-5.8,4.1-8.2c28.1-29.8,56.2-59.5,84.1-89.6c46.4-50.1,91.8-101.1,139.2-150.4
	c7.7-8,13.7-17.8,23.4-23.9c5,2.9,9,6.7,12.1,11.5c-3.8,6.3-9.8,10.5-14.9,15.7C769.1,255.9,716,312.7,660.2,366.8
	c-25,24.2-50.3,48.1-74.7,72.9C582.9,442.3,581,447,575.8,445.5z"/>
<path fill="#86FE00" d="M901.7,263.5c3.6,4,7.2,7.9,7.7,13.6c-4.7,7.1-12.2,10.5-19.1,14.7c-77.2,46.6-155.1,92.1-232.7,138
	c-7.4,4.4-14.1,9.7-21.8,13.5c-1.1,0.8-2.2,1.4-3.3,2.1c-8.8,3-15.5,13-26.7,8.3c-1.4-9.1,6.9-10.6,11.8-14.5
	c4.6-3.6,9.6-6.9,15-9.3c16.4-7.6,31-18.4,46.1-28.1c69.4-44.6,138.9-88.9,208.3-133.4C891.3,265.5,895.6,261.4,901.7,263.5z"/>
<path fill="#95FE00" d="M876.9,228.4c4.4,3.8,7.8,8.3,10.3,13.5c-17.6,17.1-38.3,30.1-57.7,44.7c-36.5,27.4-74.1,53.2-110.8,80.3
	c-35.8,26.5-72.1,52.6-108.8,77.9c-9.7,6.7-18.2,14.8-28,21.3c-3.6,1.9-7.1,4-11.4,1.8c-1.7-2.9-0.5-5.7,1.7-7.1
	c16.5-10.8,30.1-25.2,46-36.8c24.5-14.8,45.4-34.3,68-51.5c57.5-43.9,114.2-88.9,172-132.4C863.8,235.7,867.8,227.7,876.9,228.4z"/>
<path fill="#77FE00" d="M562.2,491.7c-0.9,0-1.8,0-2.7,0c-3,3.1-7.4,3.2-10.9,5.4c-4.5,1.9-9.1,5.2-13.6,0c-1.1-5.4,2.8-6.7,6.6-8.1
	c7.1-0.4,12.6-3.7,17.3-8.9c1.2-0.5,2.4-0.8,3.7-0.9c14.7-0.5,24.5-11.8,37.1-17.2c6.5-2.7,12.6-6.6,19.3-9.1
	c6.3-1.3,11.7-4.7,17.3-7.5c90.1-45.5,180.4-90.8,270.5-136.3c5.6-2.8,11.7-10.3,19-2.1c2,3.6,5.9,6.2,5.7,10.9
	c-26.1,16.3-54.9,27.3-82.6,40.4c-41.2,19.5-82.5,38.9-123.9,58.1c-31.5,14.6-63.2,28.9-94.1,44.6c-19,8.8-38,17.8-57.7,25.2
	C569.5,488.1,565.2,488.6,562.2,491.7z"/>
<path fill="#AEFE00" d="M399.2,960.7c-5.5-11.2,1.6-21.1,4.2-31c15.6-58.6,30.3-117.5,45.6-176.2c10.8-41.7,20.9-83.6,32.9-125
	c1.4-4.9,1.5-9.7,1.6-14.7c4.9-17.8,9.8-35.6,14.5-53.4c1-3.8,1.2-7.8,1.8-11.7c-1.1-8-0.9-15.3,8-19c0.1,0.9,0.1,1.8,0.2,2.7
	c1.8,2.7,1.8,5.4-0.1,8.1c-4.7,6.5-2.1,14.9-5.4,21.7c-5.4,19.9-10.5,40-13.6,60.4c-0.5,3.5-1.8,6.8-2.7,10.2
	c-17.6,82.7-36.3,165.1-54.2,247.7c-6,27.8-12.5,55.5-19.1,83.1C408.3,962.7,403.7,961.7,399.2,960.7z"/>
<path fill="#8EFE00" d="M581.2,464.5c11.6-14.1,27.6-22.7,42.1-33c31.2-22.3,62.7-44.2,93.4-67.1c46.1-34.4,93.5-66.8,139.5-101.3
	c10-7.5,19.3-16.1,30.9-21.2c1.4,5.5,8.6,7.3,8.7,13.6c-49.2,32.6-97.2,67-146.1,99.9c-33.5,22.6-68.2,43.2-100.8,67.1
	c-5,3.7-10.1,7.3-16.1,9.5c-8,8.6-20.7,11.2-27.2,21.7c-0.3,0.5-0.7,1.1-1,1.6c-7,4.1-13.1,10.1-21.9,10.4
	C582.2,465.3,581.7,464.9,581.2,464.5z"/>
<path fill="#AAFE00" d="M575.8,445.5c3.7-3.3,7.6-6.3,11.1-9.8C644.1,378.6,701.8,322,758.1,264c22.9-23.6,45.6-47.4,68.8-70.8
	c3.4-3.4,6.1-8.1,11.8-8.3c4.2,2.5,7.3,6.1,9.8,10.3c-10.6,9-21.6,17.6-31.7,27.2c-24.3,22.9-48.1,46.3-72.3,69.4
	c-39,37.3-77.6,75.2-117.5,111.5c-18.7,17-37,34.3-53.9,53.1c-0.6,3.4-2.7,5.5-5.8,6.8c-1.9,0.4-3.7,0.1-5.1-1.4
	C566.7,456.4,571.3,450.9,575.8,445.5z"/>
<path fill="#FEE400" d="M483.5,399.3c0-0.9,0-1.8,0-2.7c-13.1-50.4-26.5-100.7-38.7-151.3c-13.5-56.1-27.4-112.2-40.4-168.4
	c-1.1-4.7-3.2-9.6,0.3-14.3c4-2.7,8.5-3,13.1-3c7.8,0.2,7.5,6.9,8.4,11.5c10.2,52.2,21.7,104.1,31.6,156.4
	c9.4,49.8,18.6,99.7,28,149.5c1.8,9.6,5.7,18.9,4.4,29C481.7,410.2,486.8,400.5,483.5,399.3z"/>
<path fill="#80FE00" d="M632.8,442.8c20-15.9,42.9-27.3,64.6-40.3c69.3-41.5,139.7-81.3,208.1-124.4c1.1-0.7,2.6-0.7,3.9-1
	c3,4.4,7.7,7.7,8,13.7c-1.9,5.2-6.6,7.1-10.9,9.5c-77.8,42.6-155.2,86.1-234.2,126.6c-9.2,4.7-17.6,11-27.2,15
	C641.2,443.6,637.2,447.1,632.8,442.8z"/>
<path fill="#7CFE00" d="M632.8,442.8c19-2.7,33.3-15.6,49.6-23.9c34.1-17.4,67.1-36.9,100.7-55.2c44.7-24.4,89.6-48.6,134.3-72.9
	c0.8,6.4,9.2,8.9,8.3,16.2c-6.1-3.4-10.4,1.4-14.9,3.7C847.6,342.6,785,375.9,721,406.3c-34.2,16.2-66.3,36.6-101.8,50.1
	C619.3,447.4,629.1,448.1,632.8,442.8z"/>
<path fill="#FDBA00" d="M60,415.6c36,7.4,72.1,14.5,108,22.1c58.4,12.4,116.8,24.2,174.8,38.1c26,6.2,52.9,9.2,78.2,18.5
	c-10.4,3.8-20-0.6-29.9-2.7c-0.9,0-1.8,0-2.7,0c-41.4-6-82.4-14-123.6-21.1c-63.5-11-126.8-23.6-190.4-34.5
	c-6.3-1.1-12.6-1.8-17.2-6.9C56.9,424.4,57.5,419.9,60,415.6z"/>
<path fill="#C8FE00" d="M317.8,931.5c-3.8-5-0.7-9.3,1.4-13.7c31.1-64.7,62.1-129.4,93.1-194.2c15.2-31.8,30-63.7,45.1-95.5
	c1.9-4,4.6-7.6,7-11.4c3.7,13.6-6.2,23.3-10.2,34.5c-6.5,18.1-15.4,35.3-22.1,53.3c-0.4,1.3-0.9,2.6-1.5,3.8
	c-28.2,62.5-55.1,125.5-82.7,188.2c-5.9,13.5-10,28-19.2,40.1C324.7,935.6,320.9,934.3,317.8,931.5z"/>
<path fill="#FDBB00" d="M57.3,429.2c63,11.5,126.1,23,189.1,34.6c45.4,8.3,90.8,16.7,136.2,25.2c2.1,0.4,3.9,1.7,5.9,2.6
	c-13.9,4.5-27.1-1.8-40.3-3.6c-51-6.9-101.7-15.7-152.6-23.6c-42-6.5-84.1-12.7-126.1-19.2c-7.6-1.2-14.1-3.9-12.5-13.8
	C56.6,430.6,56.7,429.9,57.3,429.2z"/>
<path fill="#FAE800" d="M445.5,543.3c-3,1.9-5.8,4.2-9,5.8C327.2,603.7,218,658.4,108.7,712.9c-3.6,1.8-7.5,2.9-11.3,4.3
	c-2.6-1.1-2.3-3.3-2.3-5.5c-4.2-8.4,1.7-11.6,7.6-14.3c40.1-17.9,79.6-37,119.4-55.4c36.5-16.9,73.1-33.7,109.9-50
	c24.3-10.7,48.4-21.8,72.7-32.5C417.2,551.5,430.3,544.8,445.5,543.3z"/>
<path fill="#FAE800" d="M404.7,559.6c-19.7,12.6-41.5,20.8-62.7,30.4c-18.9,8.5-37.5,17.7-56.3,26.4c-60.5,28-120.9,56-181.4,84
	c-5,2.3-10.2,4.4-9.2,11.5c-4.4-5.6-6.5-12.3-8.9-18.8c18.7-3.9,35.2-13.5,52.5-20.9c55.6-23.5,110.8-47.7,166.3-71.6
	c28.5-12.3,57.2-24.4,85.7-36.6C395.2,561.9,399.4,559,404.7,559.6z"/>
<path fill="#F8ED00" d="M106.1,733.2c15.5-13.5,35.1-20.1,52.7-29.9c73.6-40.8,147.8-80.5,221.8-120.5c2.2-1.2,5.2-1.1,7.8-1.6
	c-14.3,14.1-33,21.5-49.9,31.5c-48.4,28.7-97.3,56.4-146,84.5c-26.9,15.5-53.7,31.2-80.5,46.8C109.1,741,107,737.4,106.1,733.2z"/>
<path fill="#BDFE00" d="M594.8,412.9c5.9-13.9,17.1-23.9,26.2-35.4c24.8-31.3,50.5-61.9,75.7-92.8c30.6-37.6,61-75.3,91.7-112.8
	c5-6.2,8.3-14.1,16.4-17.5c4.3,1.8,7.6,4.7,10.2,8.5c-20.2,15.6-33.8,37.3-50.8,55.8c-21,22.9-40.6,47-60.7,70.6
	c-24.8,29.1-49,58.7-74.6,87.1C617.7,388.8,608.9,403.3,594.8,412.9z"/>
<path fill="#FEE700" d="M488.9,407.5c-1.2-22.6-7.5-44.3-11.8-66.3c-15.5-79.3-31.7-158.5-48.2-237.7c-3.1-14.7-3.1-30.4-11.1-43.9
	c4.2-3.1,9.2-2.6,14-2.7c7.3,40.6,14.6,81.2,21.8,121.8c8.7,49,18.1,97.9,25.5,147.1c5.5,36.4,15,72,18,108.8
	C488.4,427.4,488.9,417.4,488.9,407.5z"/>
<path fill="#FEE200" d="M404.7,62.6c22.7,95.6,45.3,191.3,68.2,286.8c3.8,15.7,10.4,30.7,10.5,47.2c-7.6-14.4-10.5-30.4-14.7-45.9
	c-23.4-86.4-46.2-172.9-69.4-259.3c-2.3-8.7-5.5-17.1-8.2-25.7C395.7,64.7,400.2,63.6,404.7,62.6z"/>
<path fill="#F1FE00" d="M567.6,364c-5.3,21.1-11.9,41.6-24.4,59.7c9.1-35.3,21.8-69.5,33.3-104c25.4-76.5,51.6-152.7,77.4-229.1
	c2.1-6.3,2.8-13.7,11.7-14.6c0.9,0.2,1.7,0.4,2.6,0.6c6.5,3.7,2.9,8.8,1.4,13c-21.8,59.1-42.7,118.5-65,177.4
	C592.3,299.5,580.4,331.9,567.6,364z"/>
<path fill="#74FE00" d="M630.1,459.1c20.3-14.3,43.2-24,65.7-33.6c29-12.3,56.9-26.9,85.7-39.7c46.9-21,93.1-43.5,139.6-65.4
	c3.3-1.6,6.7-2.8,10.4-2.5c2.9,3,4.2,6.8,5.1,10.8c-20,13.5-43.2,20.2-64.9,30.2c-61.9,28.5-125,54.3-187.2,82.2
	c-1.2,0.7-2.4,1.2-3.7,1.7c-12.8,3.7-24.6,10.2-37,14.8C639.3,459.2,635.1,463.2,630.1,459.1z"/>
<path fill="#9EFE00" d="M665.4,380.3c6.8-15.3,22-22.5,33.7-32.1c25.3-20.7,48.8-43.4,73.5-64.6c24.6-21.2,48.5-43.4,73.7-64.1
	c4.4-3.6,7.7-8.6,11.6-12.9c4.6,3.8,9.8,7.2,12.1,13.1c-12.2,15.3-29,25.4-43.6,37.9c-34.9,29.8-71,58.3-106.1,87.9
	c-2.1,1.7-4.4,3.1-6.9,4.3c-6.4,2.1-12.2,5.1-15.9,11c-0.8,0.9-1.7,1.8-2.6,2.5c-5.9,3.1-11.4,6.6-14.6,12.7
	c-2.6,2.9-5.3,5.7-9.5,6.3C668.7,382.5,666.8,382,665.4,380.3z"/>
<path fill="#ABFE00" d="M412.8,963.7c-5.4-7-0.7-14.3,0.7-20.7c16.9-75.8,34.4-151.5,51.7-227.3c5.5-24,12.8-47.5,16.1-72
	c0.5-3.7,1.2-8.1,4.8-10.9c-3.2,31.7-11.4,62.6-17.4,93.8c-14.4,74.8-29.7,149.4-44.6,224.1c-1.1,5.4-0.9,10.8,2.2,15.7
	C421.5,967.1,417.2,965.1,412.8,963.7z"/>
<path fill="#65FE00" d="M575.8,730.6c-10-22.7-14-47.2-21.7-70.6c-7.7-23.4-11.7-47.9-21.7-70.6c-3.5-8.7-5.9-17.6-5.4-27.2
	c0.9,0,1.8,0,2.7,0c3,5,3.2,11,5.4,16.3c0,0,0,0,0,0c3.1,11.7,5.7,23.5,9.5,35c36.6,112.5,73.4,224.9,110.1,337.3
	c-0.9,2.7-3.1,2.7-5.3,2.5c-10.2,3-9.6-5.9-11.2-11c-9.9-31.2-18.4-62.9-27.9-94.2C598.4,809.1,587.8,769.6,575.8,730.6z"/>
<path fill="#99FE00" d="M670.8,380.3c2.7-1.8,5.4-3.6,8.1-5.4c3.5-6.8,10.4-9.6,16.3-13.6c3.6-6.8,10.9-9,16.3-13.6
	c32.5-26.6,64.9-53.4,97.5-79.8c20.1-16.3,38.8-34.5,60.9-48.3c2.3,2.9,4.6,5.8,6.9,8.7c-53.2,41.1-106.5,82.1-159.5,123.5
	c-27.9,21.8-55.3,44.2-83.2,66.1c-4.5,3.5-8.8,7.8-15,8.5c-0.2-8.2,7.1-10.5,11.9-14.6C644.1,401.1,655.7,388.6,670.8,380.3z"/>
<path fill="#8BFE00" d="M632.8,431.9c27.3-19.5,54.4-39.1,82.6-57.4c55.3-35.9,109.2-74.2,163.8-111.3c5-3.4,9.5-8.6,16.7-7.8
	c1.3,3.1,5.8,4,5.9,8.1c-31.4,20-62.8,40.2-94.3,60.1c-34.5,21.8-69.3,43.3-103.8,65.2c-18.6,11.8-36.6,24.4-55.2,36.3
	C643.7,428.2,639.5,433.1,632.8,431.9z"/>
<path fill="#E7FE00" d="M570.4,383.1c1.3-18.8,12.3-34.1,19.2-50.8c4.7-11.3,7.6-23.8,16.1-33.4c28.5-64.2,56.3-128.7,84.1-193.2
	c2.8-6.5,4.7-15.4,15.4-13.1c1.2,1,2.5,2.1,3.7,3.1c-12.4,32.9-29.5,63.7-44.1,95.5c-22.4,48.7-46.8,96.4-69.2,145.1
	C588,352.4,582,369.2,570.4,383.1z"/>
<path fill="#70FE01" d="M944.4,347.8c-13.7-0.4-25.2,6.9-37.2,11.5c-74.2,28.2-148,57.1-221.9,86c-4.7,1.9-9.3,3.3-14.4,3
	c0.2-7.3,7.7-4.9,10.9-8.1c80.2-33.4,159.8-68.3,240.3-101.1c5.7-2.3,11.2-6.7,17.7-2.1C941.2,340.5,942.8,344.1,944.4,347.8z"/>
<path fill="#F1FE00" d="M567.6,364c4.6-23.1,15.2-44.2,22.8-66.3c17.3-50.2,36-100,54.2-150c7.6-20.7,15.2-41.5,23-62.2
	c1.1-3,2.7-5.8,0.6-8.9c4,0.5,7.8,1.7,10.9,4.3c-15.4,39.9-30.8,79.8-46.2,119.8c-14.8,38.6-29,77.5-44.7,115.7
	C581.7,332.5,579.1,350.2,567.6,364z"/>
<path fill="#C4FE00" d="M437.3,698c-3.7,21.1-14.2,39.6-21.7,59.3c-23.4,62.1-47.3,124-71,186c-3.5-1.3-7-2.7-10.4-4
	c0.5-14.9,8.5-27.2,13.9-40.4c26.5-64.5,53.7-128.7,81-192.8C431.8,703.4,430.4,696.5,437.3,698z"/>
<path fill="#71FE00" d="M939.6,336.9c-19.8,4.8-37.8,14.2-56.5,21.7C832.6,379,782.4,400.3,732,421c-16.6,6.8-32.4,15.7-50.3,19.1
	c23.6-14.4,49.8-23,74.7-34.3c49.3-22.2,99-43.7,148.7-65c10.2-4.4,19.9-10.8,31.4-12C937.5,331.5,938.6,334.2,939.6,336.9z"/>
<path fill="#C5FE00" d="M429.2,706.2c-3.6,19.7-13.9,36.9-21.1,55.2c-21.5,54.3-44,108.2-66.2,162.2c-2.2,5.4-5.1,10.5-7.7,15.8
	c-1.8-0.9-3.7-1.8-5.5-2.8c5-23,17.2-43.2,26.2-64.7c21.2-51,43.9-101.4,66.2-151.9C423.2,715.1,424.8,709.8,429.2,706.2z"/>
<path fill="#65FE00" d="M575.8,730.6c12.9,26.8,18,56.1,27,84.2c13.6,42.7,25.9,85.9,39.1,128.8c1.2,3.8,1.1,9.6,7.5,9.8
	c-3.1,2.9-7,2.9-10.9,3.1c-14.6-51-29.3-101.9-43.6-153C588,779.3,579.5,755.6,575.8,730.6z"/>
<path fill="#E8FE01" d="M705.1,92.6c-10.1,2.5-11.6,11.8-15,19.4c-26.3,59.3-52.4,118.7-78.7,178c-1.4,3.2-3.8,6-5.7,9
	c3.1-17,12.1-31.7,18.5-47.4c21.3-51.4,43.5-102.3,65.1-153.6c1.6-3.8,4-6.9,5.9-10.4C698.9,88.5,702.7,89.1,705.1,92.6z"/>
<path fill="#65FE00" d="M513.4,535.1c0-3.6,0.1-7.3,0.1-10.9c5.2,0.2,6.1,4.8,8,8.2c1.3,1.6,1.9,3.5,2.4,5.5
	c0.4,2.7,0.4,5.3-1.3,7.6c-7.2,2.1-5.7-4.1-7.1-7.5C515,536.9,514.2,535.9,513.4,535.1z"/>
<path fill="#53FE00" d="M521.5,537.8c0-1.8,0-3.6,0-5.4c6.1,4.9,11,10.6,10.9,19c-1.8-1.8-3.6-3.6-5.4-5.4
	C522.4,545.1,523.8,540.2,521.5,537.8z"/>
<path fill="#FDB000" d="M480.7,502.5c-5.4-2.7-10.9-5.4-16.3-8.1c3.6,0,7.2,0,10.9,0c5.6,4.9,14.1,4.7,19,10.9
	C489.2,507.3,484.4,508,480.7,502.5z"/>
<path fill="#FDB700" d="M480.7,502.5c4.2,2.6,8.8,3,13.6,2.7c0,0.9,0,1.8,0,2.7c-4.5,0-9.1,0-13.6,0c-3.2-5.2-10.4-0.3-13.6-5.4
	C471.7,502.5,476.2,502.5,480.7,502.5z"/>
<path fill="#FDB700" d="M494.3,510.7c0-0.9,0-1.8,0-2.7c3.7-0.4,8,1.3,10.8-2.7c0,0,0.1,0,0.1,0c3.1-1.6,3.9,1.2,5.3,2.8
	c0,0.8,0,1.7-0.2,2.5C505,510.6,499.7,510.6,494.3,510.7z"/>
<path fill="#5EFE00" d="M524.2,505.5c2.1,3,5.2,2.4,8.2,2.5c0,0.9,0,1.8,0,2.7c-5.6-0.1-11.2-0.2-16.7-0.2c-0.4-3.9,1.7-5.8,5.3-6.6
	C522.2,504,523.3,504.5,524.2,505.5z"/>
<path fill="#D7FE00" d="M521.3,505c-1.9,1.8-3.8,3.6-5.7,5.4c-0.8-0.1-1.7-0.2-2.5-0.4c0.1-1.6,0.1-3.2,0.2-4.8
	c1.8-1.6,1-4.3,2.4-6.1c1.1-0.3,2.2-0.3,3.3,0.1C521,500.8,522.8,502.3,521.3,505z"/>
<path fill="#F6FE00" d="M518.8,499.9c-0.9,0-1.8,0-2.8,0c-1.9-2.7-1.9-5.5,0-8.2c0,0,0,0,0,0c4.9-5.4,2.5-13.9,8.1-19
	c0,3.6,0,7.2,0,10.9c3.9,6.4-0.8,10.6-3.7,15.3C519.9,499.2,519.4,499.5,518.8,499.9z"/>
<path fill="#FEFD00" d="M516,491.7c0,2.7,0,5.5,0,8.2c-0.1,2.2-0.6,4.2-2.7,5.4c0-4.5,0-9.1,0-13.6
	C514.2,491.7,515.1,491.7,516,491.7z"/>
<path fill="#FED000" d="M510.5,508c-1.8-0.9-3.5-1.9-5.3-2.8c-0.9-2.7-1.9-5.4-2.8-8.1c-1.6-1.6-1.6-3.4-0.6-5.3
	c5.6-2.3,3.7,3.9,6,5.3c0.1,2.2,0.5,4.3,2.7,5.5C510.6,504.4,510.5,506.2,510.5,508z"/>
<path fill="#FDD900" d="M461.7,524.3c0-0.9,0-1.8,0-2.7c6-2.9,13.4-1,19-5.4c5.4,0,10.9,0,16.3-0.1c0,0,0,0.1,0,0.1
	c-0.9,6.2-4.5,4.7-8.1,2.7c-5.4,1.8-10.9,3.6-16.3,5.4C469,524.3,465.4,524.3,461.7,524.3z"/>
<path fill="#F8ED00" d="M488.9,518.8c3-0.1,6.2,0.5,8.1-2.7c2.7,0,5.4,0,8.2,0c-1.9,8.7-8.4,12-16.3,13.5c-4.7-0.4-7.1,3.9-10.9,5.4
	c-8.7,0.7-14,8.2-21.7,10.9c-0.9,0-1.8,0-2.7,0c2.7-2.7,5.4-5.4,8.1-8.1C469,529,483.4,530.2,488.9,518.8z"/>
<path fill="#EEFB00" d="M488.9,529.7c5.4-4.5,10.9-9,16.3-13.5c0.8,0,1.6-0.1,2.4-0.2c0,1.8,0.1,3.6,0.1,5.4
	c-1.7,3.1-3.3,6.4-6.7,8.2c-2.8,2.4-6.4,3.4-9.4,5.5c-4.6,2.6-8.3,6.2-10.9,10.9c-7.2,6.3-14.5,12.7-21.7,19c-1.8,0-3.6,0-5.4,0
	c2.5-11.6,14.1-14.2,21.3-21.1C479.6,539.2,485.3,535.5,488.9,529.7z"/>
<path fill="#A5FE00" d="M521.3,505c-0.8-1.7-1.6-3.4-2.5-5.2c0,0,0,0,0,0c3.1-4.2,5.9-8.7,9.6-12.6c2.8-2,4.9-5.8,9.3-3.8
	c8.1-7.2,16.3-14.5,24.4-21.7c1.8,0,3.6,0,5.4,0c1.7,4.1-1.4,6.6-3,9.7c-3.4,5.5-10.2,7.8-13.4,13.5c-1.8,3.3-5.3,4.5-8.1,6.6
	c-3.9,0-6.6,1.8-8.1,5.4c-3.6,2.8-7.3,5.6-10.9,8.4C523.2,505.3,522.2,505.2,521.3,505z"/>
<path fill="#71FE00" d="M548.6,497.1c2.8-3.5,6.6-5,10.9-5.4c0,0.9,0,1.8,0,2.7C556.1,496.2,552.6,497.5,548.6,497.1z"/>
<path fill="#FED000" d="M488.9,475.4c0-3.6,0-7.2,0-10.9c1.8,1.8,3.6,3.6,5.4,5.4c6.5,3.5,7.8,9,6.4,15.6c-5.7,3.5-6.5-2.2-9.1-4.8
	C490.7,479,489.8,477.2,488.9,475.4z"/>
<path fill="#FEDB00" d="M499.8,486.2c-1.8-5.4-3.6-10.9-5.4-16.3c0-3.6,0-7.2,0-10.9c0,0,0,0,0,0c8.4,7.2,11.3,20.3,6.8,30.6
	C499.4,489,498.9,487.9,499.8,486.2z"/>
<path fill="#FEC700" d="M499.8,486.2c0,0.9,0,1.8,0,2.7c1.1,0.7,2.5,1.1,2.7,2.7c0,1.8,0,3.6,0,5.4c-5.5-0.3-8.5-3.8-10.8-8.2
	c0-2.7,0-5.4,0-8.1C494.3,482.6,497,484.4,499.8,486.2z"/>
<path fill="#FEE200" d="M502.5,491.7c-0.9-0.9-1.8-1.8-2.7-2.7c6.4-11.5-1.5-20.3-5.5-29.9c1-5.7-1.8-10.9-2.7-16.3
	c2.1-15.4-9.5-28.2-8.1-43.4c1.8,2.7,3.6,5.4,5.4,8.1c3.4,8.8,1.5,19.3,8.1,27.2c0,13.3,3.9,25.7,8.1,38c0.9,8.1,1.8,16.3,2.7,24.4
	C506.1,495.3,504.3,493.5,502.5,491.7z"/>
<path fill="#61FE00" d="M521.5,537.8c1.8,2.7,3.6,5.4,5.4,8.2c0,3.6,0,7.2,0,10.9c-1.8-0.9-3.6-1.8-5.4-2.7c-2.4-2.7-2.3-5.4,0-8.1
	C521.5,543.3,521.5,540.5,521.5,537.8z"/>
<path fill="#61FE00" d="M535.1,578.6c-4-4.7-5.2-10.3-5.4-16.3C534.9,566.5,535.3,572.5,535.1,578.6z"/>
<path fill="#F8ED00" d="M388.4,581.3c8.7-7.7,18.6-13.2,29.9-16.3C409.9,573.3,399.9,578.7,388.4,581.3z"/>
<path fill="#FDBB00" d="M391.1,491.7c10,0.9,19.9,1.8,29.9,2.7c12.4,0.1,24.1,3,35.3,8.1C434.3,500.9,412,500.2,391.1,491.7z"/>
<path fill="#71FE00" d="M681.7,440.1c-3.6,2.7-7.2,5.4-10.9,8.1c-23,12.8-48.4,19.9-72.6,29.9c-8.1,3.3-15.4,9.6-25.2,8.1
	c18.4-10.3,37.1-20,57-27.2c13.8-1.5,24.7-10.6,37.5-14.8C672.3,442.7,676.4,439.5,681.7,440.1z"/>
<path fill="#71FE00" d="M562.2,491.7c2.1-4.9,6.2-5.7,10.9-5.4C570.3,489.8,566.5,491.2,562.2,491.7z"/>
<path fill="#74FE00" d="M521.5,546c0,2.7,0,5.4,0,8.1c0,4.5,0,9,0,13.6l0,0c-0.9,1.2-1.8,1.3-2.7,0c-0.1-3,0.5-6.2-2.7-8.1
	c-2.1-8.1-2-16.3,0-24.4C520.5,537.4,517.1,543.7,521.5,546z"/>
<path fill="#C5FE00" d="M437.3,698c-2.7,2.7-5.4,5.4-8.1,8.1c4.9-20,15.2-37.8,22.9-56.7c4.4-10.8,12.4-20.4,12.4-33
	c8.1-14,10.6-30.9,21.7-43.4c-2.9,18.9-12.6,35.4-19.2,53.1C458,650.5,449.4,675,437.3,698z"/>
<path fill="#C5FE00" d="M499.8,527c2.6-1.8,5.2-3.7,7.8-5.5c0.1,2.7,0.1,5.5,0.2,8.2c-2.7,6.3-5.4,12.7-8,19
	c-3.6,8.1-7.2,16.3-10.9,24.4c-0.9,0-1.8,0-2.7,0c-0.9-10.1,9.1-17,8.2-27.1c-1.2-5.2,3.6-9,3-14C498,530.2,498.5,528.4,499.8,527z"
	/>
<path fill="#D8FE00" d="M499.7,532.4c-1.8,4.5-3.6,9.1-5.4,13.6c-5,3.4-4.5,11.2-10.9,13.6c0-1.8,0-3.6,0-5.4
	c1.7-7.4,10-11.1,10.9-19C495.5,533,496.7,530.9,499.7,532.4z"/>
<path fill="#E8FE00" d="M499.7,532.4c-1.8,0.9-3.6,1.8-5.4,2.7c-0.9,0-1.8,0-2.7,0c1.8-3.7,4.5-6.4,8.2-8.1
	C499.8,528.8,499.8,530.6,499.7,532.4z"/>
<path fill="#90FE00" d="M505.2,972.3c-9.5,0.7-17.1-0.3-11.6-13.1c0.8-2,0.8-4.5,0.7-6.7c-1.8-34.8,2.6-69.3,3.2-104
	c0.8-44.8,4.2-89.5,5.2-134.4c1-44.3,6.1-88.4,5.2-132.8c-2.1-7.2-2.1-14.5,0-21.7c0-0.9,0-1.8,0-2.7c0.9-1.2,1.8-1.3,2.7,0
	c0,41.1,0.6,82.1-0.3,123.2c-0.4,16.1,0.1,32,0.3,48c0.9,76.2-4.7,152.2-2.8,228.4C507.9,961.7,506.1,967,505.2,972.3z"/>
<path fill="#99FE00" d="M510.6,556.8c-0.9,0-1.8,0-2.7,0c0-5.4,0-10.9,0-16.3c0-2.7,0-5.4,0.1-8.1
	C513.3,540.1,509.4,548.7,510.6,556.8z"/>
<path fill="#99FE00" d="M507.9,559.6c0,7.2,0,14.5,0,21.7c-0.9,0-1.8,0-2.7,0C506.4,574.1,502.5,566.2,507.9,559.6z"/>
<path fill="#79FE00" d="M518.8,567.7c0.9,0,1.8,0,2.7,0c0,5.4,0,10.9,0,16.3C516.6,579.2,519.6,573.1,518.8,567.7z"/>
<path fill="#D7FE00" d="M529.7,489c-2.6,4.6-6.3,8.2-10.9,10.9c1.8-5.4,3.6-10.9,5.4-16.3c0.9-0.9,1.8-1.8,2.7-2.7
	c13.2-15,18.9-34.3,29.4-50.9c6.9-10.8,13-22.2,19.4-33.3c11.4-4.2,8.1-19.9,19-24.4c0,1.8,0,3.6,0,5.4
	c-10.8,22.9-26.1,43.1-39.1,64.6c-2.8,4.6-6.5,8.5-7,14.1c2.3,7.6-5.9,10.4-7.3,16.3C536.9,477.7,533.8,483.7,529.7,489z"/>
<path fill="#D7FE00" d="M602.9,358.6c-0.9,5.6-2.7,10.7-8.1,13.6C594.1,365.6,597.4,361.4,602.9,358.6z"/>
<path fill="#85FE00" d="M516,535.1c0,8.1,0,16.3,0,24.4c1.6,31.8,3.9,63.6,7.2,95.4c2.1,20.1,2.9,40.5,3.5,60.8
	c0.7,21.1,1.4,42.9,4.8,63c2.9,17.4-4.9,35.9,5.5,52.3c1.5,2.4-0.1,7-0.5,10.5c-0.3,2.7-1.7,5.4-1.3,7.9
	c5.2,39.4,5.8,79.1,8.9,118.7c0.1,1.3,1.1,2.5,1.7,3.7c-3.2,0.1-6.3,0.1-9.5,0.5c-9.5,1.2-11.9-2.9-12.4-12.2
	c-2.2-43.2-0.6-86.6-3.1-129.7c-2-34.3,0.5-68.6-2.4-102.7c-3.1-35-0.2-70.1-2.9-104.9c-2.3-29.3-1.1-58.5-2.1-87.8
	C514.2,535.1,515.1,535.1,516,535.1z"/>
<path fill="#C8FE00" d="M540.5,472.7c0.3-6.6,5.1-11,8.2-16.3c6.2-2.8,6.7-11.4,13.6-13.6c-1.8,4.5-3.6,9-5.4,13.6
	c-0.9,0.9-1.8,1.8-2.7,2.7c-2.5,3.8-5.7,7-8.1,10.9c-0.9,0.9-1.8,1.8-2.7,2.7C542.3,473.8,541.4,473.7,540.5,472.7z"/>
<path fill="#C8FE00" d="M570.4,431.9c-0.2,5.5-3.8,8.5-8.1,10.9C562.4,437.3,566,434.3,570.4,431.9z"/>
<path fill="#9DFE00" d="M562.2,469.9c1.8-2.7,3.6-5.4,5.4-8.2c1-2.6,2.8-4.4,5.4-5.4c13-4.8,20.7-16.5,31-24.8
	c18.8-15.1,36.2-31.9,54.1-48.1c2.1-1.9,4.4-3.1,7.2-3.1c1.8,0,3.6,0,5.4,0c-11.4,13.9-26.8,23.4-40.3,34.9
	c-4.1,3.5-8.6,6.4-11.3,11.3c-16,13.9-34.2,25.2-48.9,40.7c-0.4,1.9-1.5,3.3-3.2,4.1C565.2,471.8,563.5,471.6,562.2,469.9z"/>
<path fill="#C1FE00" d="M540.5,472.7c0.9,0,1.8,0,2.7,0c-1.5,3.8-5.8,6.1-5.4,10.9c-2.7,1.8-5.4,3.7-8.1,5.5
	C531.3,482.2,534.8,476.7,540.5,472.7z"/>
<path fill="#C1FE00" d="M545.9,469.9c0.2-5.5,3.8-8.5,8.1-10.9C553.9,464.6,550.3,467.6,545.9,469.9z"/>
<path fill="#80FE00" d="M632.8,442.8c-2.2,6.9-10.8,7.3-13.6,13.6c-13.5,5.1-25.3,13.4-38,19.8c-5.7,2.9-10.8,10.9-19,4.6
	c-0.7-0.6-1-1.3-0.9-2c0.1-0.8,0.2-1.1,0.4-1.1c4.9-3.2,11.1-3.8,15.1-8.4c1-0.7,2.1-1.3,3.3-1.6c9.4-3,17.3-8.9,25.6-14
	c0,0,0,0,0,0C616.1,453.5,623.1,444.7,632.8,442.8z"/>
<path fill="#8EFE00" d="M567.6,469.9c0.9-0.9,1.8-1.8,2.7-2.7c3.6-0.9,7.2-1.8,10.9-2.7c0,0,0,0,0,0c1.7,3.1-1.2,3.9-2.7,5.4h0
	c-4.5,2-7.1,8.1-13.4,6.2C563,472.8,565.7,471.5,567.6,469.9z"/>
<path fill="#95FE00" d="M567.6,469.9c-0.9,1.8-1.8,3.6-2.7,5.4c-0.2,1.6-1.8,1.8-2.7,2.7c0,0.9,0,1.8,0,2.7c-0.9,0-1.8,0-2.7,0
	c-2.8,4.1-6.1,6.5-10.9,2.7c2.2-6.9,10.7-7.4,13.6-13.6C564,469.9,565.8,469.9,567.6,469.9z"/>
<path fill="#86FE00" d="M548.6,483.5c4,0.4,7.5-0.9,10.9-2.7c-1.6,9.4-8.9,10.2-16.3,10.8C545,488.9,546.8,486.2,548.6,483.5z"/>
<path fill="#86FE00" d="M578.5,469.9c0.9-1.8,1.8-3.6,2.7-5.4c8.9-1.9,15-10.1,24.4-10.9C598.3,461.9,589.6,467.8,578.5,469.9z"/>
<path fill="#9DFE00" d="M711.6,347.8c-3.4,7-10.7,9.2-16.3,13.6C696.7,352,703.8,349.5,711.6,347.8z"/>
<path fill="#9DFE00" d="M695.3,361.3c-4.1,6.1-10.9,9-16.3,13.6C680.4,365.6,687.5,363.1,695.3,361.3z"/>
<path fill="#86FE00" d="M562.2,478.1c0.9-0.9,1.8-1.8,2.7-2.7c4.5-1.8,9.1-3.6,13.6-5.4C575.2,477,569.4,478.8,562.2,478.1z"/>
</svg>
