<?xml version="1.0" encoding="utf-8"?>
<!-- Generator: Adobe Illustrator 21.1.0, SVG Export Plug-In . SVG Version: 6.00 Build 0)  -->
<svg version="1.1" id="图层_1" xmlns="http://www.w3.org/2000/svg" xmlns:xlink="http://www.w3.org/1999/xlink" x="0px" y="0px"
	 viewBox="0 0 1024 1024" enable-background="new 0 0 1024 1024" xml:space="preserve">
<path fill="#00CBA9" d="M84.8,950.2c16.2-14.7,33.1-28.7,48.5-44.2C407.5,630,681.5,353.8,955.7,77.8c4-4.1,7-12.9,14.7-9.3
	c6.9,3.3,4.1,11.4,4.1,17.5c0.1,284.7,0,569.4,0.3,854c0,10.6-0.4,16.4-14.2,16.4C671.7,955.9,383,956,94.3,956
	c-1.7,0-3.3-0.3-5-0.5C87.8,953.7,86.3,952,84.8,950.2z"/>
<path fill="#00CBA9" d="M494.3,302.8C494,425.9,393.5,525.2,269.9,524.6C147.7,524,48.7,423.8,49,301
	C49.3,178,149.8,78.6,273.4,79.2C395.6,79.9,494.6,180,494.3,302.8z"/>
<path fill="#FEFEFE" d="M744.8,879.5c-43.4,0-86.9-0.4-130.3,0.2c-11.5,0.2-16-1.9-15.9-14.8c0.5-88.6,0.4-177.2-0.2-265.8
	c-0.1-12.1,3.1-15.5,15.3-15.4c88.6,0.4,177.2,0.3,265.8-0.2c10.6-0.1,15,1.8,15,13.9c-0.5,89.2-0.3,178.3,0.2,267.5
	c0.1,11.3-3,14.8-14.4,14.6c-45.2-0.6-90.3-0.3-135.5-0.3C744.8,879.4,744.8,879.4,744.8,879.5z"/>
</svg>
