<?xml version="1.0" encoding="utf-8"?>
<!-- Generator: Adobe Illustrator 21.1.0, SVG Export Plug-In . SVG Version: 6.00 Build 0)  -->
<svg version="1.1" id="图层_1" xmlns="http://www.w3.org/2000/svg" xmlns:xlink="http://www.w3.org/1999/xlink" x="0px" y="0px"
	 viewBox="0 0 1024 512" enable-background="new 0 0 1024 512" xml:space="preserve">
<path fill="#00CBA9" d="M509.4,454.6c-101.9,0-203.8,0-305.7,0c-85.9,0-154.6-68.5-154.7-154.1c0-30.5-0.1-61,0-91.6
	c0.2-81.6,69.6-151.6,150.9-151.7c205.4-0.1,410.7-0.2,616.1,0c90.2,0.1,158.2,67.8,158,158c-0.1,37.2,3.7,74.5-2.6,111.5
	c-12.3,72.9-75.9,127.3-150.1,127.7C717.3,455,613.4,454.6,509.4,454.6z"/>
<path fill="#FEFEFE" d="M610.8,422.2c21.1-18.9,37.9-39.2,47.8-64.7c7-18,11.2-36.5,11.3-55.8c0.1-30.5,0.4-61-0.1-91.5
	c-0.7-41.6-16-77.4-45.2-107.1c-4.2-4.2-9-7.9-17-14.8c23.3,0,41.7,0,60.1,0c49.1,0,98.2-0.2,147.3,0
	c74.5,0.3,128.4,53.8,127.9,128.1c-0.2,36.1,3.9,72.5-2.8,108.3c-10.3,55.2-60,97.8-115.9,98.6c-69.3,0.9-138.5,0.3-207.8,0.2
	C615.1,423.5,613.8,422.9,610.8,422.2z"/>
<path fill="#FEFEFE" d="M247.7,310.8c-6-20,5.3-36.2,22.6-52.1c29.3-26.9,56.5-56,84.7-84.1c22.9-22.7,52.5-24.1,72.8-3.6
	c19.7,20,18.2,49.7-3.7,71.7c-33.2,33.3-66.6,66.4-99.6,99.9c-5.9,6-12,8.7-20.4,8.4c-15-0.5-30-0.5-45,0
	c-8.5,0.3-12.3-2.1-11.5-11.2C248.3,331.6,247.7,323.3,247.7,310.8z"/>
<path fill="#FAFDFC" d="M440.2,329.2c0-1,0-2.1,0-3.1c-0.5-39.7-3.5-37.3,41.6-36.7c9.3,0.1,14.2,5.5,14.3,14.7
	c0.2,14.9,0.1,29.9,0.1,44.8c0,6.1-2.3,11.1-8.1,13.8c-3.3,1.6-7.4,3.2-9.9-0.1c-3.1-4-0.2-6.1,3.8-7.6c2.9-1.1,5.7-3.5,4.1-7.1
	c-1.6-3.5-5.3-2.1-8.2-2.2c-5.1-0.2-10.3,0.2-15.4-0.1c-8.5-0.5-15.8-0.1-13.6,11.7c0.6,3,0.7,6.5-3.7,6.9c-6,0.6-4.8-4.1-4.8-7.3
	C440.1,347.7,440.2,338.4,440.2,329.2z"/>
<path fill="#EDF9F6" d="M487.1,283.7c-14,0-27.9,0-41.9,0c-3.1,0-6.7,0.1-7-4.2c-0.2-4.3,3.4-5.4,6.4-4.6
	c12.8,3.6,2.8-13.1,11.4-12.6c7.9,0.4,5.5,13.4,15.4,12.6c10.8-0.8,21.8-1.1,32.5,0c10.4,1.1,7.7-14,17-12.4
	c6.4,1.1-2.1,15.7,10.5,12.4c2.5-0.7,5.2,0.6,5.3,4c0.2,4.4-3.1,4.7-6.2,4.7C516.1,283.7,501.6,283.7,487.1,283.7z"/>
<path fill="#F3FBF9" d="M536.2,322.3c0,7.2,0.2,14.4,0,21.6c-0.5,16.6-8.8,23.4-24.9,20.7c-2.5-0.4-5.3,0.1-5.7-3.6
	c-0.4-3.9,1.7-6,5.4-5.5c17,2.2,16.3-9,16.1-20.5c-0.3-13.4-0.1-26.8,0-40.2c0-3-0.2-6.6,4.2-6.8c4.2-0.1,4.8,3.1,4.9,6.3
	C536.2,303.8,536.2,313.1,536.2,322.3z"/>
<path fill="#E4F7F3" d="M514,320.3c0,6.6,0.1,13.3,0,19.9c0,3.5-1.5,6-5.5,5.5c-3.6-0.4-3.2-3.4-3.2-5.8c-0.1-13.8-0.1-27.6,0-41.4
	c0-2.5,0-5.5,3.5-5.6c4-0.2,5.1,2.7,5.2,6C514.1,306,514,313.1,514,320.3z"/>
<path fill="#00CBA9" d="M717.8,352.2c-38.5,0-36.9-0.1-39.1-35.5c-1.5-24.8,6-42.3,24.5-58.9c29.1-26.2,55.7-55.3,83.4-83.1
	c22.7-22.8,52.5-24.2,72.7-3.7c19.6,19.9,18.4,50-3.1,71.9c-33.3,33.9-67.2,67.2-99.9,101.6C743.6,357.8,728.8,349,717.8,352.2z"/>
<path fill="#04CCAB" d="M272.6,308.2c-3.1-14,1.1-22.9,16.2-23.4c13.1-0.4,24.5,11.6,24.1,25c-0.4,15.7-10.4,16.6-23.1,17.2
	C274.5,327.7,268.6,322.8,272.6,308.2z"/>
<path fill="#02CCAA" d="M397.3,181.5c7.4,0.6,15.7,6.2,18.5,18.3c1.7,7.3,1.6,16.1-4.7,19.7c-4.9,2.7-8.6-5.7-12.7-9.2
	c-4.6-4-9-8.4-13-13c-2.8-3.2-9.3-5.6-6.4-10.8C381.4,182,387.3,181.1,397.3,181.5z"/>
<path fill="#0ECDAC" d="M468,336.7c-3.1,0-6.2,0-9.3,0c-5.3,0.1-10.5,0.6-10.1-7.5c0.3-6.6,4.2-7.3,9.3-7.3c6.7,0.1,13.4,0.1,20.1,0
	c5.1-0.1,8.9,0.5,9.2,7.2c0.4,8.1-4.6,7.7-10,7.6C474.2,336.7,471.1,336.7,468,336.7z"/>
<path fill="#0DCDAC" d="M466.8,312.7c-3.6,0-7.2,0-10.8,0c-3.9,0-7.2-0.9-7.1-5.8c0-3.9,0.9-7.5,5.1-8.5c9.1-2.2,18.3-1.9,27.5-0.2
	c5.2,1,5.9,5.1,5.6,9.5c-0.3,5.3-4.3,4.9-7.9,5C475,312.8,470.9,312.7,466.8,312.7z"/>
<path fill="#FEFEFE" d="M745.1,318.7c-1.7-25.8-7.6-31.4-37.2-33.3c32.5-31.6,63-60.9,93.1-90.5c4.8-4.7,7.6-4.4,12.6,0
	c29.9,26.3,30.1,26.2,2.2,54C792.7,271.8,769.6,294.5,745.1,318.7z"/>
</svg>
