<?xml version="1.0" standalone="no"?><!DOCTYPE svg PUBLIC "-//W3C//DTD SVG 1.1//EN" "http://www.w3.org/Graphics/SVG/1.1/DTD/svg11.dtd"><svg t="1520753074406" class="icon" style="" viewBox="0 0 1024 1024" version="1.1" xmlns="http://www.w3.org/2000/svg" p-id="706" xmlns:xlink="http://www.w3.org/1999/xlink" width="64" height="64"><defs><style type="text/css"></style></defs><path d="M1018.8 909.2H407.4c-171.8 0-309.2-137-309.4-308.2 0-61-0.2-122 0-183.2 0.4-163.2 139.2-303.2 301.8-303.4 410.8-0.2 821.4-0.4 1232.2 0 180.4 0.2 316.4 135.6 316 316-0.2 74.4 7.4 149-5.2 223-24.6 145.8-151.8 254.6-300.2 255.4-208 1.2-415.8 0.4-623.8 0.4z" fill="#00CBA9" p-id="707"></path><path d="M1221.6 844.4c42.2-37.8 75.8-78.4 95.6-129.4 14-36 22.4-73 22.6-111.6 0.2-61 0.8-122-0.2-183-1.4-83.2-32-154.8-90.4-214.2-8.4-8.4-18-15.8-34-29.6h120.2c98.2 0 196.4-0.4 294.6 0 149 0.6 256.8 107.6 255.8 256.2-0.4 72.2 7.8 145-5.6 216.6-20.6 110.4-120 195.6-231.8 197.2-138.6 1.8-277 0.6-415.6 0.4-2.6 0-5.2-1.2-11.2-2.6zM495.4 621.6c-12-40 10.6-72.4 45.2-104.2 58.6-53.8 113-112 169.4-168.2 45.8-45.4 105-48.2 145.6-7.2 39.4 40 36.4 99.4-7.4 143.4-66.4 66.6-133.2 132.8-199.2 199.8-11.8 12-24 17.4-40.8 16.8-30-1-60-1-90 0-17 0.6-24.6-4.2-23-22.4 1.4-16.4 0.2-33 0.2-58z" fill="#FEFEFE" p-id="708"></path><path d="M880.4 658.4v-6.2c-1-79.4-7-74.6 83.2-73.4 18.6 0.2 28.4 11 28.6 29.4 0.4 29.8 0.2 59.8 0.2 89.6 0 12.2-4.6 22.2-16.2 27.6-6.6 3.2-14.8 6.4-19.8-0.2-6.2-8-0.4-12.2 7.6-15.2 5.8-2.2 11.4-7 8.2-14.2-3.2-7-10.6-4.2-16.4-4.4-10.2-0.4-20.6 0.4-30.8-0.2-17-1-31.6-0.2-27.2 23.4 1.2 6 1.4 13-7.4 13.8-12 1.2-9.6-8.2-9.6-14.6-0.6-18.4-0.4-37-0.4-55.4z" fill="#FAFDFC" p-id="709"></path><path d="M974.2 567.4h-83.8c-6.2 0-13.4 0.2-14-8.4-0.4-8.6 6.8-10.8 12.8-9.2 25.6 7.2 5.6-26.2 22.8-25.2 15.8 0.8 11 26.8 30.8 25.2 21.6-1.6 43.6-2.2 65 0 20.8 2.2 15.4-28 34-24.8 12.8 2.2-4.2 31.4 21 24.8 5-1.4 10.4 1.2 10.6 8 0.4 8.8-6.2 9.4-12.4 9.4-28.8 0.2-57.8 0.2-86.8 0.2z" fill="#EDF9F6" p-id="710"></path><path d="M1072.4 644.6c0 14.4 0.4 28.8 0 43.2-1 33.2-17.6 46.8-49.8 41.4-5-0.8-10.6 0.2-11.4-7.2-0.8-7.8 3.4-12 10.8-11 34 4.4 32.6-18 32.2-41-0.6-26.8-0.2-53.6 0-80.4 0-6-0.4-13.2 8.4-13.6 8.4-0.2 9.6 6.2 9.8 12.6v56z" fill="#F3FBF9" p-id="711"></path><path d="M1028 640.6c0 13.2 0.2 26.6 0 39.8 0 7-3 12-11 11-7.2-0.8-6.4-6.8-6.4-11.6-0.2-27.6-0.2-55.2 0-82.8 0-5 0-11 7-11.2 8-0.4 10.2 5.4 10.4 12 0.2 14.2 0 28.4 0 42.8z" fill="#E4F7F3" p-id="712"></path><path d="M1435.6 704.4c-77 0-73.8-0.2-78.2-71-3-49.6 12-84.6 49-117.8 58.2-52.4 111.4-110.6 166.8-166.2 45.4-45.6 105-48.4 145.4-7.4 39.2 39.8 36.8 100-6.2 143.8-66.6 67.8-134.4 134.4-199.8 203.2-25.4 26.6-55 9-77 15.4z" fill="#00CBA9" p-id="713"></path><path d="M545.2 616.4c-6.2-28 2.2-45.8 32.4-46.8 26.2-0.8 49 23.2 48.2 50-0.8 31.4-20.8 33.2-46.2 34.4-30.6 1.4-42.4-8.4-34.4-37.6z" fill="#04CCAB" p-id="714"></path><path d="M794.6 363c14.8 1.2 31.4 12.4 37 36.6 3.4 14.6 3.2 32.2-9.4 39.4-9.8 5.4-17.2-11.4-25.4-18.4-9.2-8-18-16.8-26-26-5.6-6.4-18.6-11.2-12.8-21.6 4.8-9 16.6-10.8 36.6-10z" fill="#02CCAA" p-id="715"></path><path d="M936 673.4h-18.6c-10.6 0.2-21 1.2-20.2-15 0.6-13.2 8.4-14.6 18.6-14.6 13.4 0.2 26.8 0.2 40.2 0 10.2-0.2 17.8 1 18.4 14.4 0.8 16.2-9.2 15.4-20 15.2H936z" fill="#0ECDAC" p-id="716"></path><path d="M933.6 625.4H912c-7.8 0-14.4-1.8-14.2-11.6 0-7.8 1.8-15 10.2-17 18.2-4.4 36.6-3.8 55-0.4 10.4 2 11.8 10.2 11.2 19-0.6 10.6-8.6 9.8-15.8 10-8.4 0.2-16.6 0-24.8 0z" fill="#0DCDAC" p-id="717"></path><path d="M1490.2 637.4c-3.4-51.6-15.2-62.8-74.4-66.6 65-63.2 126-121.8 186.2-181 9.6-9.4 15.2-8.8 25.2 0 59.8 52.6 60.2 52.4 4.4 108-46.2 45.8-92.4 91.2-141.4 139.6z" fill="#FEFEFE" p-id="718"></path></svg>