<?xml version="1.0" standalone="no"?><!DOCTYPE svg PUBLIC "-//W3C//DTD SVG 1.1//EN" "http://www.w3.org/Graphics/SVG/1.1/DTD/svg11.dtd"><svg t="1524210113121" class="icon" style="" viewBox="0 0 1025 1024" version="1.1" xmlns="http://www.w3.org/2000/svg" p-id="3045" xmlns:xlink="http://www.w3.org/1999/xlink" width="128.125" height="128"><defs><style type="text/css"></style></defs><path d="M981.92384 1024 43.257173 1024c-25.6 0-42.666667-17.066667-42.666667-42.666667L0.590507 42.666667c0-25.6 17.066667-42.666667 42.666667-42.666667l938.666667 0c25.6 0 42.666667 17.066667 42.666667 42.666667l0 938.666667C1024.590507 1006.933333 1007.52384 1024 981.92384 1024zM85.92384 938.666667l853.333333 0L939.257173 85.333333 85.92384 85.333333 85.92384 938.666667z" p-id="3046" fill="#00ccaa"></path><path d="M981.92384 810.666667 43.257173 810.666667c-25.6 0-42.666667-17.066667-42.666667-42.666667s17.066667-42.666667 42.666667-42.666667l938.666667 0c25.6 0 42.666667 17.066667 42.666667 42.666667S1007.52384 810.666667 981.92384 810.666667z" p-id="3047" fill="#00ccaa"></path><path d="M43.257173 725.333333c-12.8 0-21.333333-4.266667-29.866667-12.8-17.066667-17.066667-17.066667-42.666667 0-59.733333l256-256c17.066667-17.066667 42.666667-17.066667 59.733333 0s17.066667 42.666667 0 59.733333l-256 256C64.590507 721.066667 56.057173 725.333333 43.257173 725.333333z" p-id="3048" fill="#00ccaa"></path><path d="M469.92384 640c-12.8 0-21.333333-4.266667-29.866667-12.8l-170.666667-170.666667c-17.066667-17.066667-17.066667-42.666667 0-59.733333s42.666667-17.066667 59.733333 0l170.666667 170.666667c17.066667 17.066667 17.066667 42.666667 0 59.733333C491.257173 635.733333 482.72384 640 469.92384 640z" p-id="3049" fill="#00ccaa"></path><path d="M384.590507 554.666667c-12.8 0-21.333333-4.266667-29.866667-12.8-17.066667-17.066667-17.066667-42.666667 0-59.733333l213.333333-213.333333c17.066667-17.066667 42.666667-17.066667 59.733333 0s17.066667 42.666667 0 59.733333l-213.333333 213.333333C405.92384 550.4 397.390507 554.666667 384.590507 554.666667z" p-id="3050" fill="#00ccaa"></path><path d="M960.590507 704c-12.8 0-21.333333-4.266667-29.866667-12.8l-362.666667-362.666667c-17.066667-17.066667-17.066667-42.666667 0-59.733333s42.666667-17.066667 59.733333 0l362.666667 362.666667c17.066667 17.066667 17.066667 42.666667 0 59.733333C981.92384 699.733333 973.390507 704 960.590507 704z" p-id="3051" fill="#00ccaa"></path><path d="M128.590507 298.666667C85.92384 298.666667 47.52384 281.6 13.390507 256c-17.066667-17.066667-17.066667-42.666667-4.266667-59.733333 17.066667-17.066667 42.666667-17.066667 59.733333-4.266667C85.92384 204.8 107.257173 213.333333 128.590507 213.333333c46.933333 0 85.333333-38.4 85.333333-85.333333 0-21.333333-8.533333-42.666667-21.333333-55.466667-17.066667-17.066667-12.8-42.666667 4.266667-59.733333C213.92384-4.266667 239.52384-4.266667 256.590507 12.8 282.190507 46.933333 299.257173 85.333333 299.257173 128 299.257173 221.866667 222.457173 298.666667 128.590507 298.666667z" p-id="3052" fill="#00ccaa"></path></svg>