<?xml version="1.0" encoding="utf-8"?>
<!-- Generator: Adobe Illustrator 21.1.0, SVG Export Plug-In . SVG Version: 6.00 Build 0)  -->
<svg version="1.1" id="图层_1" xmlns="http://www.w3.org/2000/svg" xmlns:xlink="http://www.w3.org/1999/xlink" x="0px" y="0px"
	 viewBox="0 0 512 512" enable-background="new 0 0 512 512" xml:space="preserve">
<path fill="#00CCAA" d="M137.3,219.9c-20.7,0-41.3,0-62,0c-12.1,0-19.3-7.1-19.3-19.2c0-41.7,0-83.4,0-125.1
	c0-12.4,7.1-19.4,19.6-19.4c41.5,0,83,0,124.5,0c12.5,0,19.6,7,19.6,19.5c0,41.7,0,83.4,0,125.1c0,12.1-7.2,19.1-19.3,19.1
	C179.4,219.9,158.3,219.9,137.3,219.9z"/>
<path fill="#00CCAA" d="M368,431.6c-23.4,0-46.8-0.1-70.2,0.1c-4,0-5.7-0.4-5.7-5.2c0.2-47.4,0.2-94.7,0-142.1
	c0-3.7,0.8-4.9,4.8-4.9c47.6,0.1,95.1,0.1,142.7,0c4,0,4.8,1.2,4.8,4.9c-0.1,47.4-0.2,94.7,0.1,142.1c0,4.8-1.7,5.2-5.7,5.2
	C415.2,431.5,391.6,431.6,368,431.6z"/>
<path fill="#00CCAA" d="M374.1,219.9c-45.1,0-81.8-36.7-81.8-81.7c0-45.4,36.7-82.1,82.2-82c45,0.1,81.6,36.9,81.6,82
	C456,183.2,419.2,219.9,374.1,219.9z"/>
<path fill="#00CCAA" d="M154.1,455.9c-1-1-1.9-1.7-2.7-2.6c-30.7-31.8-61.4-63.7-92.1-95.5c-2.5-2.6-2.9-4,0-6.8
	c31.5-30.2,63-60.5,94.3-90.9c3.5-3.4,5.2-3.2,8.5,0.3c29.7,31.2,59.6,62.1,89.6,93c3.4,3.5,3.8,5.2-0.1,9
	c-31.2,29.7-62.1,59.7-93.1,89.5C157.2,453.2,155.7,454.4,154.1,455.9z"/>
</svg>
