<?xml version="1.0" encoding="utf-8"?>
<!-- Generator: Adobe Illustrator 21.1.0, SVG Export Plug-In . SVG Version: 6.00 Build 0)  -->
<svg version="1.1" id="图层_1" xmlns="http://www.w3.org/2000/svg" xmlns:xlink="http://www.w3.org/1999/xlink" x="0px" y="0px"
	 viewBox="0 0 512 512" enable-background="new 0 0 512 512" xml:space="preserve">
<path fill="#00CCAA" d="M255.6,456C145.4,455.8,55.9,366.2,56,255.9C56.1,145.4,145.8,55.8,256.4,56
	c110.5,0.2,199.9,90.1,199.6,200.7C455.7,366.9,366,456.2,255.6,456z"/>
<path fill="#FEFEFE" d="M397.4,250.8c-0.2,77.3-54.5,137.7-125.9,145.6c-32.2,3.5-62-3.5-89.7-20.1c-3.8-2.3-4.4-3.6-0.9-7
	c63.5-62,126.8-124.1,190.1-186.3c3.1-3,4.3-3.1,6.6,0.8C390.7,206.2,397.2,230.4,397.4,250.8z"/>
<path fill="#FEFEFE" d="M136.1,330.6c-9.4-14.7-15.6-30.6-18.9-47.5c-14.5-76.6,34.1-149.6,110.5-165.5
	c35.9-7.5,69.8-1.1,101.4,17.6c2.4,1.4,4.9,2.2,1.4,5.7c-64.3,62.8-128.5,125.7-192.7,188.6C137.4,329.8,136.9,330.1,136.1,330.6z"
	/>
</svg>
