<?xml version="1.0" encoding="utf-8"?>
<!-- Generator: Adobe Illustrator 21.1.0, SVG Export Plug-In . SVG Version: 6.00 Build 0)  -->
<svg version="1.1" id="图层_5" xmlns="http://www.w3.org/2000/svg" xmlns:xlink="http://www.w3.org/1999/xlink" x="0px" y="0px"
	 viewBox="0 0 1024 512" enable-background="new 0 0 1024 512" xml:space="preserve">
<path fill="#00CBA9" d="M511,454.5c-100.2,0-200.4,0.1-300.6,0C117.1,454.4,49.6,387.6,50,294.7c0.1-36.6-3.6-73.4,2.6-109.8
	C64.8,112.9,128.2,58,201.3,57.8c207.1-0.5,414.3-0.6,621.4,0c82.4,0.3,150.5,69.3,151,151.9c0.2,38.7,3.9,77.6-2.4,116
	c-12.4,74.8-75.8,128.5-151.9,128.8C716.6,454.8,613.8,454.5,511,454.5z"/>
<path fill="#FEFEFE" d="M512,423.5c-100.2,0-200.4,0-300.6,0c-77.6,0-130.8-52.7-130.4-130.2c0.2-35-4-70.4,2.7-105.1
	c11-57.7,61-99.4,119.8-99.5c205.1-0.3,410.1-0.4,615.2,0C889,88.9,943,143.6,942.8,214.1c-0.1,36.1,4,72.5-2.4,108.2
	c-10.7,59.4-60.9,100.9-121.5,101.1C716.5,423.7,614.3,423.5,512,423.5z"/>
<path fill="#00CBA9" d="M260.7,361.4c-20.1,0-40.2,0.2-60.4-0.1c-16.8-0.2-23.2-6.6-23.3-23.5c-0.1-40.2-0.2-80.5,0-120.7
	c0.1-16.8,6.4-22.9,23.7-22.9c30.4-0.2,60.9,0.4,91.3-0.3c10.6-0.2,17.6,3.8,25.9,10.2c21.4,16.7,29.7,36.8,26.9,64
	c-2.4,23-0.4,46.4-0.5,69.6c-0.1,16.9-6.5,23.5-23.2,23.7C300.9,361.6,280.8,361.4,260.7,361.4z"/>
<path fill="#04CCAB" d="M691.6,342.9c-5,5.1-9.7,6-9.4-2.9c0.7-22.2,2.2-44.3,3.8-66.4c0.4-5.5,3.8-10.9,9.3-11
	c21.2-0.6,42.4-0.2,67.8-0.2c-9,8.9-15.9,6.3-21.9,6.5c-11.3,0.4-22.7,0-34.1,0.2c-6.6,0.1-13.1,1.3-12.5,9.9
	c0.6,8.6,7.8,4.7,11.9,4.8c15.5,0.5,30.9,0.2,47.1,0.2c-0.5,11.2-6.4,19.3-12.7,26.3c-7.3,8.1-6.8,12.5,2.1,18.7
	c4.8,3.4,16.8,6.5,11,14.2c-4.9,6.4-10.9-3.8-15.4-7.5c-8.2-6.7-14.4-8.8-23.3-0.4c-5.2,4.8-11.6,12.2-21.1,7.7
	c-2.2-7,2.3-10.7,7.3-13.5c10.1-5.6,8.5-10.4,0.6-17.2c-4.6-4-15.4-8.7-4-17.3c7.4-0.6,12.5,4.1,18,7.9c2.9,2,5.7,4.8,9.7,4.1
	c3.3-0.6,5.8-2.8,6-6.2c0.2-3.6-3.3-3.7-5.6-3.4c-10.3,1.2-20.3-3-30.6-1.7c-5.1,6.5,1.2,12.6,0.9,19
	C695.9,324.3,696.1,333.9,691.6,342.9z"/>
<path fill="#08CDAC" d="M870.4,309.2c0,11.3,0.1,22.7-0.1,34c-0.2,10.5-5.3,16-16.4,15.9c-20.1-0.3-40.2-0.3-60.3,0
	c-12.2,0.2-16.7-6.3-16.8-17.2c-0.2-21.6-0.2-43.3,0-64.9c0.1-11.3,6.2-17.2,17.3-17.3c19.6-0.2,39.2-0.2,58.7,0
	c11.9,0.1,17.8,6.5,17.6,18.6C870.3,288.5,870.4,298.9,870.4,309.2z"/>
<path fill="#04CCAB" d="M424.3,260.4c4.1,0,8.2,0.1,12.4,0c13.1-0.2,19.9,5,19.7,19.3c-0.1,13-3.4,21.1-18.1,20.4
	c-3.6-0.2-9.4-2-9.6,4.3c-0.2,6.9,5.9,3.3,9.3,4.3c6.7,2,19.2-4.4,19.3,4.4c0.1,8.1-12.5,4.6-19.5,4.3c-7.4-0.3-10.1,2.3-9.7,9.7
	c0.5,8.7,0.3,17.5,0,26.3c-0.1,3.2,1.5,8.1-4.4,7.8c-5.3-0.3-4.3-4.9-4.3-8.3c-0.1-7.7-0.6-15.5,0.1-23.2
	c0.8-9.2-1.9-13.7-11.8-12.2c-4,0.6-8.2,0.1-12.3,0c-2.9,0-5.2-1.3-5.5-4.2c-0.5-4.7,3.1-4.4,6.1-4.6c1-0.1,2.1,0.2,3.1-0.1
	c6.5-1.6,18.2,4,18.9-3.3c0.9-10.1-11.1-3.7-17-6c-10.1-4-9.5-12.2-9.5-20.5c0-8.3,1.6-15.9,11.4-17.4c7.1-1.1,14.3-1,21.5-1.5
	C424.2,260.2,424.3,260.3,424.3,260.4z"/>
<path fill="#05CCAB" d="M625.6,330c7.4-11.9,8.4-23.5,12.7-33.8c0.9-2.2,0.8-5.7,4.5-4.8c3.5,0.8,4.7,3.1,3.4,7
	c-3.1,9.3-4.6,19.2-8.8,28c-4.5,9.4-3.1,14.3,7.1,16.5c3.9,0.8,10.1,0.5,8.6,6.1c-1.5,5.9-8.3,4-11.5,2c-9.9-6.3-17.8-5-27.7,1
	c-10.5,6.4-22.5,5.2-30.6-5.5c-8.2-10.9-6.6-22.9,2.2-32.6c5.5-6,8-10.4,3.9-18.4c-4.2-8.2-1.7-16.5,6.3-21.6
	c7.1-4.6,15.2-4.3,21.4,1.8c6.7,6.6,8.2,16.9,1.9,22.5C602.2,313,617.6,319.4,625.6,330z"/>
<path fill="#09CDAC" d="M494.7,277.1c-9,0-15.6,0.1-22.1,0c-3.2-0.1-4.4-2.2-4.3-5.1c0.1-2.6,2-3.2,4.1-3.5
	c11.9-1.6,25.9,4.8,34.8-9c0.2-0.2,1.2-0.3,1.4-0.1c16.2,18.3,37.5,4.7,56,8.9c3,0.7,6.5,0.3,5.9,4.9c-0.6,4.2-4,4-7,4
	c-10.8,0.1-21.7,0-32.5,0.1c-32,0-42,10.3-42,43.2c0,11.4,0,22.7-0.1,34.1c0,3.1-0.2,6.7-4.6,6.5c-4.5-0.2-3.9-4-3.9-6.9
	c-0.1-10.8,0.3-21.7-0.2-32.5c-0.2-4.5,4.4-12.7-7.9-10.6c-5.3,0.9-4.4-5.2-0.4-8.5C479.8,296.1,487.9,289.7,494.7,277.1z"/>
<path fill="#0ECEAE" d="M552.1,299.5c-13.2,0-25,0.1-36.8-0.1c-2.3,0-5.6,0.7-6.1-2.9c-0.6-4.3,2.5-5.1,5.8-5.1
	c14.4-0.1,28.9,0,43.3-0.1c7,0,7.8,3.3,5,8.9c-2.7,5.4-5.4,10.9-8.6,17.2c4,0.4,7,0.8,9.9,1c3.3,0.2,6.4,0.8,5.7,5.1
	c-0.5,3.4-3.5,3.7-5.9,3.3c-15.9-3.1-17.6,6-16.8,18.4c0.4,6.5-2.7,12.4-9.3,14.6c-4.6,1.5-11.1,4.3-13.3-2
	c-2.2-6.4,4.9-4.5,8.2-5.8c9.4-3.7,6.1-11.9,6.4-18.7c0.4-8.7-6.5-6-11-6.2c-7.7-0.4-15.5-0.1-23.2-0.2c-2.6,0-5.5-0.3-5.8-3.6
	c-0.4-4.4,2.9-4.8,6.1-4.8c7.2-0.1,14.5-0.8,21.6,0.1C540.9,320.2,548.4,314.2,552.1,299.5z"/>
<path fill="#0CCEAD" d="M715.3,361.1c-10.3,0-20.7-0.3-31,0.1c-12.8,0.4-19.6-5.7-19.9-18.3c-0.4-16-0.1-32-0.1-48
	c0-3.5-0.6-8,4.8-7.9c5.6,0.1,4,5.1,4,8.2c0.2,13.9,0.6,27.9-0.1,41.8c-0.6,11.3,3.3,15.8,15,15.3c19.1-0.8,38.2-0.4,57.3-0.1
	c4,0.1,11.1-2.8,11.3,3.7c0.2,8.2-7.6,4.7-12,4.9C734.9,361.5,725.1,361.1,715.3,361.1z"/>
<path fill="#1ED1B3" d="M372.6,279.6c-2.2,0.6-3.7,0.7-4.9,1.3c-3,1.5-5.6,5.8-9.2,1.4c-3.7-4.5,0.8-6.4,3.3-8.5
	c5.5-4.6,11.1-9,19.5-15.7c0,34.6,0,66.3,0,97.9c0,2.8-1.1,5.3-4.3,5.2c-4.3-0.1-4.3-3.6-4.3-6.7c-0.1-17.6,0-35.1-0.1-52.7
	C372.6,294.6,372.6,287.4,372.6,279.6z"/>
<path fill="#FAFDFD" d="M697.9,295.1c-5.5,5.6-1.2,8.4,3,11.9c17.8,15,17.8,15.2-2.4,28.6c-3,2-4.3,4-4.3,7.3c0,0-1.3,0-1.3,0
	s-1.3,0-1.3,0c0.3-14.7,0.6-29.5,0.8-44.2c0-4.1,1.6-5.5,5.5-4.1L697.9,295.1z"/>
<path fill="#17D0B1" d="M406.9,330.4c-1.8,8.8-4.2,17.7-9,25.7c-1.8,2.9-3.7,4.9-7.3,2.6c-2.9-1.9-2-4.2-0.7-6.6
	c4.2-7.7,6.8-15.9,8.3-24.6c0.5-2.9,1.4-6.6,5.5-6C409.3,322.4,406.4,327,406.9,330.4z"/>
<path fill="#12CFAF" d="M457.3,354c0.9,3.1-0.3,5-3.1,6.2c-3.7,1.5-4.3-1.5-5.1-3.8c-3.2-9.8-6.3-19.6-9.5-29.4
	c-0.8-2.6-1.3-4.9,2.3-5.8c3.2-0.8,4.7,0.8,5.6,3.5C450.8,334.4,454.1,344.2,457.3,354z"/>
<path fill="#22D2B5" d="M673.5,270c-1.1,3.6,2,9.6-4,10c-7.4,0.5-5.2-6.1-5.3-10.1c-0.1-3.7-1.9-9.5,4-9.9
	C676.1,259.4,672.1,266.4,673.5,270z"/>
<path fill="#FDFEFE" d="M241.3,249.8c-11.8,0-23.7-0.4-35.5,0.1c-8.2,0.4-10.3-2.5-10.5-10.5c-0.6-26.7-1-26.7,25.1-26.7
	c19.1,0,38.1,0.4,57.2-0.2c8.9-0.3,11.2,2.7,11.3,11.4c0.2,25.9,0.6,25.9-25.9,25.9C255.7,249.9,248.5,249.9,241.3,249.8z"/>
<path fill="#FDFEFE" d="M288.5,315.6c-0.4,15.6-13.9,27.9-29.4,27.1c-15-0.8-26.6-13.4-26.3-28.6c0.3-15.7,13.5-27.8,29.4-27
	C277.3,287.9,288.9,300.5,288.5,315.6z"/>
<path fill="#F6FCFB" d="M697.9,295.1c0,0,0-0.5,0-0.5c14-3.5,28-1.5,42.3-1.3c-9.2,23.4-11.2,24-29.7,10.2
	C706.6,300.4,702.2,297.8,697.9,295.1z"/>
<path fill="#FDFEFE" d="M784.9,310c0-41.5,0-41.5,41.3-41.5c36.2,0,36.2,0,36.2,35.8c0,11.3-0.3,22.7,0.1,34
	c0.3,9.2-3.8,13.4-12.8,13.3c-17,0-34-0.1-51,0c-9.6,0.1-14.3-3.8-13.8-13.9C785.2,328.5,784.9,319.3,784.9,310z"/>
<path fill="#F3FCFA" d="M424.1,268.6c8.8,2.8,24.5-6.9,23.3,14.1c-0.6,10.6-7.7,10.5-13.8,9.1c-11.1-2.6-28.3,9.3-32.7-8.2
	C395.6,262.5,414.3,271,424.1,268.6z"/>
<path fill="#F7FDFC" d="M602,346.5c-9.9-0.4-15.3-6-14.9-15.6c0.3-7.3,3.5-14.1,11.7-16.1c2.8-0.7,20.9,20,19.6,22.4
	C615.2,343.7,609,345.7,602,346.5z"/>
<path fill="#EAFAF7" d="M613.8,286.7c-1.7,7-3.7,14-10.6,14.3c-4.1,0.2-6.4-6.1-6.9-10.7c-0.6-5.9,2.2-9.9,8.3-10.6
	C610.2,279,612.5,282.8,613.8,286.7z"/>
<path fill="#0FCEAE" d="M824,283.9c23.3,0,24.8,1.7,24.8,27.4c-0.1,23.3-1.8,25-25.6,25c-23,0-24.8-2-24.9-25.8
	C798.4,285.8,800.2,283.9,824,283.9z"/>
<path fill="#F9FDFC" d="M839.8,309.4c2.1,12.6-0.9,19-15.7,18.9c-13.6-0.1-17.7-4.3-17.4-17.7c0.2-12.2,1.5-18.8,16.4-18.2
	C836,292.9,843.1,295.2,839.8,309.4z"/>
</svg>
