<?xml version="1.0" standalone="no"?><!DOCTYPE svg PUBLIC "-//W3C//DTD SVG 1.1//EN" "http://www.w3.org/Graphics/SVG/1.1/DTD/svg11.dtd"><svg class="icon" width="128px" height="128.00px" viewBox="0 0 1024 1024" version="1.1" xmlns="http://www.w3.org/2000/svg"><path fill="#bfbfbf" d="M554.666667 128a384 384 0 0 0-384 384H42.666667l165.973333 165.973333 2.986667 5.973334L384 512H256a298.666667 298.666667 0 0 1 298.666667-298.666667 298.666667 298.666667 0 0 1 298.666666 298.666667 298.666667 298.666667 0 0 1-298.666666 298.666667c-82.346667 0-157.013333-33.706667-210.773334-87.893334l-60.586666 60.586667A379.562667 379.562667 0 0 0 554.666667 896a384 384 0 0 0 384-384 384 384 0 0 0-384-384m-42.666667 213.333333v213.333334l182.613333 108.373333 30.72-51.626667-149.333333-88.746666V341.333333H512z"  /></svg>