<?xml version="1.0" standalone="no"?><!DOCTYPE svg PUBLIC "-//W3C//DTD SVG 1.1//EN" "http://www.w3.org/Graphics/SVG/1.1/DTD/svg11.dtd"><svg class="icon" width="128px" height="128.00px" viewBox="0 0 1024 1024" version="1.1" xmlns="http://www.w3.org/2000/svg"><path fill="#bfbfbf" d="M288.667004 556.742017l178.788989-0.217964-0.173962 178.918949-66.926272-67.01223L288.755008 779.900539l-44.675502-44.6315 111.514793-111.514793L288.667004 556.742017zM958.70846 244.013503l0 536.105001c0 98.599645-79.969333 178.61298-178.61298 178.61298L243.905544 958.731484c-98.642624 0-178.615027-80.013335-178.615027-178.61298L65.290517 244.013503c0-98.772584 79.971379-178.744987 178.615027-178.744987l536.190959 0C878.739127 65.268516 958.70846 145.239895 958.70846 244.013503zM869.403504 288.689005c0-74.03825-59.989279-134.113487-134.071532-134.113487L288.667004 154.575518c-74.080206 0-134.113487 60.075237-134.113487 134.113487L154.553517 735.443002c0 73.994248 60.033281 133.981481 134.113487 133.981481l446.664969 0c74.082252 0 134.071532-59.987233 134.071532-133.981481L869.403504 288.689005zM400.354735 355.701235 288.755008 244.101507l-44.675502 44.76146 111.514793 111.514793-66.926272 66.925249 178.788989 0.176009-0.173962-178.788989L400.354735 355.701235zM623.643218 355.701235l-66.924225-67.01223-0.217964 178.788989 178.830945-0.176009-66.924225-66.925249 111.514793-111.514793-44.675502-44.76146L623.643218 355.701235zM735.331973 556.742017 556.718993 556.742017 556.718993 735.443002l66.924225-67.01223 111.602797 111.470791 44.675502-44.6315L668.407748 623.754247 735.331973 556.742017z" /></svg>