<?xml version="1.0" standalone="no"?><!DOCTYPE svg PUBLIC "-//W3C//DTD SVG 1.1//EN" "http://www.w3.org/Graphics/SVG/1.1/DTD/svg11.dtd"><svg class="icon" width="128px" height="128.00px" viewBox="0 0 1024 1024" version="1.1" xmlns="http://www.w3.org/2000/svg"><path fill="#bfbfbf" d="M355.680257 310.937728l111.512746 111.514793-44.76146 44.742017L310.91675 355.701235l-66.924225 66.946738-0.176009-178.830945 178.788989 0.195451L355.680257 310.937728zM422.431543 556.914956 310.91675 668.406213l-66.924225-67.035766-0.176009 178.922019 178.788989-0.176009-66.924225-67.056232 111.512746-111.491257L422.431543 556.914956zM601.567433 556.914956l-44.673455 44.654013L668.406724 713.060225 601.349469 780.116457l178.744987 0L780.094456 601.370447l-67.056232 67.035766L601.567433 556.914956zM958.709483 244.013503l0 536.102954c0 98.623181-80.015382 178.615027-178.615027 178.615027L243.992525 958.731484c-98.774631 0-178.703031-79.991846-178.703031-178.615027L65.289494 244.013503c0-98.753141 79.927377-178.744987 178.703031-178.744987l536.102954 0C878.694101 65.268516 958.709483 145.260361 958.709483 244.013503zM869.402481 288.667515c0-74.015737-59.989279-134.071532-134.069485-134.071532L288.66598 154.595984c-73.992201 0-134.113487 60.055794-134.113487 134.071532l0 446.775486c0 73.992201 60.121286 133.981481 134.113487 133.981481l446.667016 0c74.080206 0 134.069485-59.989279 134.069485-133.981481L869.402481 288.667515zM668.406724 310.937728 556.893978 422.452521l44.673455 44.742017 111.470791-111.49228 67.056232 66.946738 0.173962-178.830945L601.349469 244.013503 668.406724 310.937728z" /></svg>